<svg viewBox="0 0 41 40" fill="none" xmlns="http://www.w3.org/2000/svg">
    <path fill-rule="evenodd" clip-rule="evenodd" d="M15.8748 38.6645C26.39 41.2864 37.0388 34.8878 39.6601 24.3738C42.2814 13.8593 35.8834 3.20858 25.3688 0.587301C14.8567 -2.03398 4.20788 4.36528 1.58783 14.8804C-1.03467 25.3938 5.36396 36.0432 15.8748 38.6645ZM24.9604 11.8783C27.6792 12.8148 29.6676 14.2187 29.2769 16.8301C28.9941 18.7418 27.9344 19.6673 26.5274 19.9917C28.4593 20.9976 29.4425 22.54 28.506 25.2141C27.3437 28.5351 24.5826 28.8154 20.9108 28.1205L20.0196 31.6918L17.8663 31.1552L18.7458 27.6317C18.1877 27.4931 17.6173 27.3459 17.0297 27.1865L16.1472 30.7265L13.9963 30.1898L14.8875 26.6118C14.6864 26.5603 14.4841 26.5075 14.2804 26.4544C13.9745 26.3746 13.6653 26.294 13.3524 26.2156L10.5502 25.517L11.6191 23.0521C11.6191 23.0521 13.2058 23.4741 13.1843 23.4428C13.7939 23.5937 14.0644 23.1963 14.1711 22.9313L15.5793 17.2858C15.6321 17.2985 15.6839 17.3115 15.7339 17.324L15.8068 17.3423C15.7209 17.3079 15.6431 17.2858 15.583 17.2705L16.5876 13.2405C16.6139 12.7829 16.4563 12.2058 15.5842 11.9881C15.6179 11.9654 14.0202 11.5992 14.0202 11.5992L14.5931 9.29934L17.5627 10.0408L17.5603 10.0519C18.0067 10.1629 18.4667 10.2684 18.9353 10.3751L19.8178 6.83875L21.9699 7.37539L21.1052 10.8424C21.6829 10.9743 22.2643 11.1074 22.8304 11.2484L23.689 7.80409L25.8424 8.34074L24.9604 11.8783ZM18.1493 24.7042C19.9064 25.1683 23.7464 26.1825 24.3569 23.7292C24.9825 21.2208 21.2583 20.3851 19.441 19.9774L19.441 19.9774L19.4409 19.9773C19.2379 19.9318 19.0587 19.8916 18.912 19.855L17.7295 24.5952C17.8497 24.625 17.9905 24.6622 18.1481 24.7038L18.1493 24.7042L18.1493 24.7042ZM25.023 16.7915C24.4664 19.0213 21.271 18.1685 19.8061 17.7776C19.673 17.7421 19.5542 17.7103 19.4529 17.6851L20.525 13.3858C20.6479 13.4164 20.7984 13.4498 20.969 13.4875C22.4857 13.8233 25.5914 14.5108 25.023 16.7915Z" fill="white"/>
</svg>
