<svg viewBox="0 0 41 40" fill="none" xmlns="http://www.w3.org/2000/svg">
<path fill-rule="evenodd" clip-rule="evenodd" d="M35.5417 6.66666H6.20833C3.26281 6.66666 0.875 9.05447 0.875 12V28C0.875 30.9455 3.26281 33.3333 6.20833 33.3333H35.5417C38.4872 33.3333 40.875 30.9455 40.875 28V12C40.875 9.05447 38.4872 6.66666 35.5417 6.66666ZM4.875 15.6667C4.875 15.1144 5.32272 14.6667 5.875 14.6667H29.2083C29.7606 14.6667 30.2083 15.1144 30.2083 15.6667V17.6667C30.2083 18.2189 29.7606 18.6667 29.2083 18.6667H5.875C5.32272 18.6667 4.875 18.2189 4.875 17.6667V15.6667ZM4.875 26.0333C4.875 25.6467 5.1884 25.3333 5.575 25.3333H10.8417C11.2283 25.3333 11.5417 25.6467 11.5417 26.0333V27.3C11.5417 27.6866 11.2283 28 10.8417 28H5.575C5.1884 28 4.875 27.6866 4.875 27.3V26.0333Z" fill="white"/>
</svg>
