<svg viewBox="0 0 40 40" fill="none" xmlns="http://www.w3.org/2000/svg">
<path fill-rule="evenodd" clip-rule="evenodd" d="M39.0585 38.8753C35.0426 35.405 31.4333 34.3144 28.129 34.3144C26.1077 34.3144 24.4483 34.4615 22.9373 34.5954C21.6743 34.7074 20.515 34.8101 19.3346 34.8101C9.77771 34.8101 2 27.2252 2 17.9051C2 8.58497 9.72688 1 19.3346 1C28.8916 1 36.6693 8.53539 36.6693 17.9051C36.6693 21.0779 35.8051 24.0524 34.2292 26.5807C34.1784 26.6798 34.0259 26.6303 34.0259 26.5311C33.4159 22.3668 30.8233 20.0368 27.0107 19.3923C26.7057 19.3427 26.604 19.1444 27.0615 19.0949C28.2307 18.9957 29.9083 18.9957 30.7216 19.1444C30.7724 18.7478 30.7725 18.3017 30.7725 17.8555C30.7725 11.6586 25.6381 6.65155 19.2838 6.65155C12.9295 6.65155 7.79516 11.6586 7.79516 17.8555C7.79516 22.8945 11.1901 27.1468 15.8753 28.5599C15.8957 28.3569 15.9509 28.1703 16.0433 28.0184C16.1906 27.8201 16.3747 27.6713 16.6325 27.6713C16.9271 27.7209 17.2585 27.8696 17.5163 28.1671C17.7432 28.4318 17.908 28.7133 18.003 28.9909C18.4234 29.0362 18.8508 29.0594 19.2838 29.0594H19.843C19.747 28.5444 19.685 28.0294 19.6516 27.5405C19.4967 27.4151 19.3167 27.1448 19.1367 26.7294C18.8421 26.1345 18.7684 25.49 18.8789 25.143C18.9525 24.8951 19.1735 24.796 19.3945 24.9447C19.5707 25.036 19.7071 25.2213 19.8108 25.4414C19.8924 25.4145 20.0029 25.5281 20.148 25.7875C21.7239 28.4645 24.0114 30.8937 28.4341 31.8356C32.0433 32.6288 35.7034 33.5708 39.6177 38.3795C39.9735 38.7761 39.4652 39.2223 39.0585 38.8753Z" fill="white"/>
</svg>
