<svg viewBox="0 0 38 38" fill="none" xmlns="http://www.w3.org/2000/svg">
<path fill-rule="evenodd" clip-rule="evenodd" d="M18.9239 0C21.9172 0 24.7076 0.71028 27.1936 1.9279C27.3965 2.02937 27.5868 2.13084 27.777 2.23231C27.9673 2.33378 28.1575 2.43525 28.3605 2.53672L26.6355 4.10948L23.9973 1.42056L19.5834 5.37784L16.9453 2.53672L8.7263 9.94392L14.0027 15.7784L11.9226 17.6048L17.0975 23.4393L15.0174 25.2657L22.4246 33.5354L26.8385 29.4766L30.6435 33.8398C29.8825 34.4486 29.0708 35.0067 28.1575 35.514C25.4179 37.0868 22.2216 38 18.8224 38C8.47263 37.8478 0 29.3752 0 18.9239C0 8.47263 8.47263 0 18.9239 0ZM15.474 17.757L19.9893 13.6983L23.9973 18.1629L19.5327 22.2216L15.474 17.757ZM23.1856 21.4606L18.6702 25.5194L22.729 30.0347L27.2443 25.976L23.1856 21.4606ZM12.227 10.0454L16.7423 5.98666L20.8011 10.502L16.2857 14.5608L12.227 10.0454ZM23.8959 4.81976L20.4967 7.86381L23.5407 11.263L26.9399 8.21895L23.8959 4.81976ZM26.4833 21.765L29.8825 18.7717L32.9266 22.1202L29.5274 25.1642L26.4833 21.765ZM32.8251 25.5701L29.4767 28.6141L32.5207 31.9626L35.8692 28.9186L32.8251 25.5701ZM30.8465 12.988L33.0788 10.9586L35.1081 13.1909L32.8758 15.2203L30.8465 12.988ZM30.1869 4.26168L27.9546 6.29105L29.984 8.52336L32.2163 6.54473L30.1869 4.26168ZM33.6876 19.6849L35.9706 17.6555L38 19.8879L35.7169 21.9172L33.6876 19.6849ZM26.9907 11.6182L23.5915 14.6622L26.6355 18.0107L30.0347 15.0174L26.9907 11.6182Z" fill="white"/>
</svg>
