<svg viewBox="0 0 43 40" fill="none" xmlns="http://www.w3.org/2000/svg">
<path fill-rule="evenodd" clip-rule="evenodd" d="M21.9923 5.89417C24.3813 5.04323 26.9868 4.77064 29.4909 5.20204C33.5765 5.83491 37.3327 8.2678 39.6172 11.7147C40.5516 13.1066 41.2328 14.6629 41.6442 16.2866C42.6453 20.3417 41.9164 24.8187 39.567 28.2851C37.2726 31.7751 33.4591 34.2398 29.3191 34.8229C24.7392 35.5634 19.8664 33.9454 16.5987 30.6559C14.4349 28.5406 12.9485 25.7474 12.4004 22.7694C12.3469 22.4821 12.3365 22.1763 12.1793 21.9194C12.1074 22.7295 12.1519 23.5454 12.1405 24.3589C12.1438 26.6719 12.1348 28.9843 12.1452 31.2973C10.3744 31.3063 8.60396 31.2973 6.83356 31.2982C4.54482 24.0233 2.26933 16.7431 0 9.46244C4.04683 9.45533 8.09461 9.47619 12.1414 9.45201C12.1623 12.3433 12.096 15.2365 12.176 18.1269C12.2408 18.0069 12.2853 17.8804 12.309 17.7472C12.7123 14.9867 13.9166 12.3481 15.7305 10.2314C17.3996 8.27918 19.5766 6.7636 21.9923 5.89417ZM26.4637 14.4966C25.2027 14.6426 23.988 15.2176 23.0929 16.1212C21.8256 17.3499 21.2188 19.2301 21.5672 20.967C21.9658 23.3231 24.068 25.2137 26.4173 25.4962C28.1328 25.7257 29.9401 25.0914 31.134 23.8351C32.1763 22.7718 32.7463 21.2794 32.7368 19.7951C32.6994 18.556 32.2185 17.3362 31.3995 16.4051C30.1995 15.0085 28.289 14.2785 26.4637 14.4966Z" fill="white"/>
</svg>
