<svg viewBox="0 0 25 25" fill="none" xmlns="http://www.w3.org/2000/svg">
<path d="M24.6259 15.5239C22.9561 22.2203 16.173 26.2957 9.47502 24.6258C2.77977 22.9563 -1.29605 16.1735 0.374439 9.47748C2.04337 2.78028 8.82651 -1.29546 15.5225 0.374057C22.2201 2.04357 26.2956 8.8271 24.6259 15.5239Z" fill="#1A88F3"/>
<path fill-rule="evenodd" clip-rule="evenodd" d="M18.0119 10.7192C18.2607 9.05593 16.9942 8.1618 15.2624 7.56532L15.8241 5.31222L14.4525 4.97043L13.9056 7.16416C13.545 7.07431 13.1746 6.98955 12.8066 6.90556L13.3575 4.69738L11.9866 4.35559L11.4244 6.60791C11.126 6.53994 10.833 6.47276 10.5486 6.40205L10.5501 6.39502L8.65853 5.92276L8.29364 7.38759C8.29364 7.38759 9.31133 7.62079 9.28984 7.63524C9.84537 7.77392 9.94577 8.14149 9.92897 8.43289L9.28906 10.9997C9.32735 11.0094 9.37696 11.0235 9.43165 11.0454L9.38522 11.0338L9.38511 11.0337C9.35332 11.0258 9.32037 11.0175 9.28672 11.0094L8.38975 14.6051C8.32177 14.7738 8.14949 15.027 7.76116 14.9309C7.77484 14.9508 6.76418 14.682 6.76418 14.682L6.08325 16.252L7.86821 16.6969C8.06754 16.7468 8.26447 16.7982 8.45936 16.849L8.45938 16.849C8.58915 16.8828 8.718 16.9164 8.84605 16.9492L8.27841 19.2281L9.64847 19.5699L10.2106 17.3152C10.5849 17.4168 10.9482 17.5105 11.3037 17.5988L10.7435 19.8429L12.1151 20.1847L12.6828 17.9101C15.0217 18.3527 16.7805 18.1742 17.5208 16.059C18.1173 14.3559 17.4911 13.3735 16.2605 12.7328C17.1567 12.5262 17.8318 11.9368 18.0119 10.7192ZM14.8779 15.1133C14.489 16.6758 12.043 16.0298 10.9238 15.7343L10.9237 15.7342C10.823 15.7077 10.7331 15.6839 10.6564 15.6649L11.4096 12.6457C11.5031 12.6691 11.6172 12.6947 11.7466 12.7237C12.9042 12.9834 15.2764 13.5157 14.8779 15.1133ZM11.9792 11.3226C12.9123 11.5716 14.9477 12.1147 15.3022 10.6946C15.6643 9.24197 13.686 8.80409 12.7199 8.59024C12.6112 8.56619 12.5153 8.54497 12.437 8.52546L11.7542 11.2637C11.8187 11.2798 11.8944 11.3 11.9792 11.3226Z" fill="white"/>
</svg>
