<svg viewBox="0 0 16 15" fill="none" xmlns="http://www.w3.org/2000/svg">
<path d="M15.1088 9.31434C14.1069 13.3322 10.037 15.7774 6.01826 14.7755C2.00112 13.7737 -0.444379 9.7041 0.557915 5.68649C1.55927 1.66817 5.62916 -0.777274 9.64677 0.224434C13.6653 1.22614 16.1106 5.29626 15.1088 9.31434Z" fill="#5C72A3" fill-opacity="0.5"/>
<path fill-rule="evenodd" clip-rule="evenodd" d="M11.1403 6.43154C11.2896 5.43358 10.5297 4.8971 9.49062 4.53921L9.82768 3.18735L9.0047 2.98228L8.67655 4.29851C8.46019 4.24461 8.23798 4.19375 8.01718 4.14336L8.34768 2.81845L7.52517 2.61337L7.18787 3.96477C7.00879 3.92398 6.83299 3.88367 6.66235 3.84125L6.66328 3.83703L5.52832 3.55368L5.30939 4.43257C5.30939 4.43257 5.92 4.57249 5.90711 4.58117C6.24043 4.66437 6.30067 4.88491 6.29059 5.05975L5.90664 6.59982C5.92961 6.60568 5.95938 6.61411 5.9922 6.62724L5.96427 6.62027L5.96422 6.62025C5.94516 6.61547 5.92541 6.61052 5.90523 6.60568L5.36705 8.76308C5.32627 8.86433 5.2229 9.0162 4.9899 8.95854C4.99811 8.9705 4.39171 8.80925 4.39171 8.80925L3.98315 9.75119L5.05413 10.0181C5.17373 10.0481 5.2919 10.0789 5.40884 10.1094C5.4867 10.1297 5.56401 10.1499 5.64083 10.1695L5.30025 11.5369L6.12229 11.742L6.45959 10.3892C6.68415 10.4501 6.90214 10.5063 7.11544 10.5593L6.77931 11.9058L7.60229 12.1109L7.94287 10.7461C9.34623 11.0116 10.4015 10.9045 10.8457 9.63541C11.2036 8.61355 10.8279 8.0241 10.0895 7.63973C10.6272 7.51575 11.0323 7.16208 11.1403 6.43154ZM9.25996 9.06802C9.02663 10.0055 7.55899 9.61794 6.88748 9.4406L6.88744 9.44059C6.82704 9.42464 6.77308 9.41039 6.72704 9.39896L7.17896 7.58749C7.23503 7.60148 7.30354 7.61685 7.38115 7.63427C8.07569 7.7901 9.49905 8.10944 9.25996 9.06802ZM7.5207 6.79356C8.08057 6.94296 9.3018 7.26883 9.51452 6.41674C9.73175 5.54518 8.54481 5.28245 7.96514 5.15414C7.89993 5.13971 7.84241 5.12697 7.79543 5.11527L7.3857 6.75822C7.4244 6.76786 7.46982 6.77998 7.5207 6.79356Z" fill="white"/>
</svg>
