<svg viewBox="0 0 25 25" fill="none" xmlns="http://www.w3.org/2000/svg">
<path fill-rule="evenodd" clip-rule="evenodd" d="M0 12.45C0 5.58509 5.58509 0 12.45 0C19.3149 0 24.8999 5.58509 24.8999 12.45C24.8999 19.3149 19.3148 24.9 12.4499 24.9C5.58509 24.9 0 19.3149 0 12.45ZM13.38 0.969415H11.4487V2.90075H13.38V0.969415ZM21.1448 12.4501C21.1448 17.2445 17.2443 21.145 12.4499 21.145C7.65563 21.145 3.75521 17.2444 3.75521 12.4501C3.75521 7.65581 7.65574 3.75527 12.4499 3.75527C17.2443 3.75527 21.1448 7.65581 21.1448 12.4501ZM6.38049 5.01468L5.01482 3.64901L3.64916 5.01468L5.01482 6.38034L6.38049 5.01468ZM2.86497 13.4156H0.933639V11.4843H2.86497V13.4156ZM3.64916 19.8853L5.01482 21.2509L6.38049 19.8853L5.01482 18.5196L3.64916 19.8853ZM13.38 23.9308H11.4487V21.9994H13.38V23.9308ZM18.5195 19.8853L19.8852 21.2509L21.2508 19.8853L19.8852 18.5196L18.5195 19.8853ZM19.8852 6.38034L18.5195 5.01468L19.8852 3.64901L21.2508 5.01468L19.8852 6.38034ZM21.9637 11.4843V13.4156H23.895V11.4843H21.9637Z" fill="#FF756C"/>
<path fill-rule="evenodd" clip-rule="evenodd" d="M12.45 19.5353C8.54318 19.5353 5.36475 16.3568 5.36475 12.4499C5.36475 8.54304 8.54318 5.3645 12.45 5.3645C16.3569 5.3645 19.5355 8.54304 19.5355 12.4499C19.5355 16.3568 16.3569 19.5353 12.45 19.5353ZM16.28 13.4507C16.28 12.8763 16.1722 12.3929 15.838 11.8493C15.317 11.0015 12.4575 8.56131 12.4575 8.56131C12.4575 8.56131 9.58019 11.0014 9.05916 11.8492C8.72504 12.3927 8.61999 12.8905 8.61999 13.465C8.61999 14.8846 9.62718 15.6619 10.766 15.6619C11.5145 15.6619 11.9501 15.2906 12.199 14.9945L11.7963 16.4199H13.0907L12.6789 14.961C12.9202 15.2663 13.3626 15.6334 14.1394 15.6334C15.2783 15.6334 16.28 14.8702 16.28 13.4507Z" fill="#FF756C"/>
</svg>
