<svg viewBox="0 0 15 15" fill="none" xmlns="http://www.w3.org/2000/svg">
<path fill-rule="evenodd" clip-rule="evenodd" d="M0 7.47C0 3.35105 3.35105 0 7.47 0C11.5889 0 14.9399 3.35105 14.9399 7.47C14.9399 11.5889 11.5889 14.94 7.46994 14.94C3.35105 14.94 0 11.5889 0 7.47ZM8.02799 0.581649H6.86919V1.74045H8.02799V0.581649ZM12.6869 7.47007C12.6869 10.3467 10.3466 12.687 7.46997 12.687C4.59338 12.687 2.25312 10.3467 2.25312 7.47007C2.25312 4.59348 4.59345 2.25316 7.46997 2.25316C10.3466 2.25316 12.6869 4.59348 12.6869 7.47007ZM3.82829 3.00881L3.00889 2.18941L2.1895 3.00881L3.00889 3.82821L3.82829 3.00881ZM1.71898 8.04937H0.560183V6.89057H1.71898V8.04937ZM2.1895 11.9312L3.00889 12.7506L3.82829 11.9312L3.00889 11.1118L2.1895 11.9312ZM8.02799 14.3585H6.86919V13.1997H8.02799V14.3585ZM11.1117 11.9312L11.9311 12.7506L12.7505 11.9312L11.9311 11.1118L11.1117 11.9312ZM11.9311 3.82821L11.1117 3.00881L11.9311 2.18941L12.7505 3.00881L11.9311 3.82821ZM13.1782 6.89057V8.04937H14.337V6.89057H13.1782Z" fill="#5C72A3" fill-opacity="0.5"/>
<path fill-rule="evenodd" clip-rule="evenodd" d="M7.46993 11.7212C5.12581 11.7212 3.21875 9.81408 3.21875 7.46996C3.21875 5.12584 5.12581 3.21872 7.46993 3.21872C9.81405 3.21872 11.7212 5.12584 11.7212 7.46996C11.7212 9.81408 9.81405 11.7212 7.46993 11.7212ZM9.76788 8.07043C9.76788 7.72581 9.70325 7.43573 9.50271 7.10959C9.1901 6.60094 7.47443 5.1368 7.47443 5.1368C7.47443 5.1368 5.74801 6.60088 5.4354 7.10953C5.23492 7.43566 5.1719 7.73431 5.1719 8.07899C5.1719 8.93077 5.77621 9.39719 6.45952 9.39719C6.90862 9.39719 7.16999 9.17438 7.31928 8.99669L7.07767 9.85195H7.85432L7.60724 8.97661C7.75203 9.15983 8.01746 9.38006 8.48355 9.38006C9.16686 9.38006 9.76788 8.92214 9.76788 8.07043Z" fill="#5C72A3" fill-opacity="0.5"/>
</svg>
