<svg viewBox="0 0 15 15" fill="none" xmlns="http://www.w3.org/2000/svg">
<path d="M5.625 3.12501C5.45924 3.12501 5.30027 3.19085 5.18306 3.30806C5.06585 3.42527 5 3.58425 5 3.75001C5 3.91577 5.06585 4.07474 5.18306 4.19195C5.30027 4.30916 5.45924 4.37501 5.625 4.37501C5.79076 4.37501 5.94973 4.30916 6.06694 4.19195C6.18415 4.07474 6.25 3.91577 6.25 3.75001C6.25 3.58425 6.18415 3.42527 6.06694 3.30806C5.94973 3.19085 5.79076 3.12501 5.625 3.12501ZM3.85625 3.12501C3.98538 2.75905 4.22484 2.44215 4.54162 2.218C4.85841 1.99385 5.23693 1.87347 5.625 1.87347C6.01307 1.87347 6.39159 1.99385 6.70837 2.218C7.02516 2.44215 7.26462 2.75905 7.39375 3.12501H11.875C12.0408 3.12501 12.1997 3.19085 12.3169 3.30806C12.4342 3.42527 12.5 3.58425 12.5 3.75001C12.5 3.91577 12.4342 4.07474 12.3169 4.19195C12.1997 4.30916 12.0408 4.37501 11.875 4.37501H7.39375C7.26462 4.74096 7.02516 5.05786 6.70837 5.28201C6.39159 5.50617 6.01307 5.62654 5.625 5.62654C5.23693 5.62654 4.85841 5.50617 4.54162 5.28201C4.22484 5.05786 3.98538 4.74096 3.85625 4.37501H3.125C2.95924 4.37501 2.80027 4.30916 2.68306 4.19195C2.56585 4.07474 2.5 3.91577 2.5 3.75001C2.5 3.58425 2.56585 3.42527 2.68306 3.30806C2.80027 3.19085 2.95924 3.12501 3.125 3.12501H3.85625ZM9.375 6.87501C9.20924 6.87501 9.05027 6.94085 8.93306 7.05806C8.81585 7.17527 8.75 7.33425 8.75 7.50001C8.75 7.66577 8.81585 7.82474 8.93306 7.94195C9.05027 8.05916 9.20924 8.12501 9.375 8.12501C9.54076 8.12501 9.69973 8.05916 9.81694 7.94195C9.93415 7.82474 10 7.66577 10 7.50001C10 7.33425 9.93415 7.17527 9.81694 7.05806C9.69973 6.94085 9.54076 6.87501 9.375 6.87501ZM7.60625 6.87501C7.73538 6.50905 7.97484 6.19215 8.29163 5.968C8.60841 5.74385 8.98693 5.62347 9.375 5.62347C9.76307 5.62347 10.1416 5.74385 10.4584 5.968C10.7752 6.19215 11.0146 6.50905 11.1438 6.87501H11.875C12.0408 6.87501 12.1997 6.94085 12.3169 7.05806C12.4342 7.17527 12.5 7.33425 12.5 7.50001C12.5 7.66577 12.4342 7.82474 12.3169 7.94195C12.1997 8.05916 12.0408 8.12501 11.875 8.12501H11.1438C11.0146 8.49096 10.7752 8.80786 10.4584 9.03201C10.1416 9.25617 9.76307 9.37654 9.375 9.37654C8.98693 9.37654 8.60841 9.25617 8.29163 9.03201C7.97484 8.80786 7.73538 8.49096 7.60625 8.12501H3.125C2.95924 8.12501 2.80027 8.05916 2.68306 7.94195C2.56585 7.82474 2.5 7.66577 2.5 7.50001C2.5 7.33425 2.56585 7.17527 2.68306 7.05806C2.80027 6.94085 2.95924 6.87501 3.125 6.87501H7.60625ZM5.625 10.625C5.45924 10.625 5.30027 10.6909 5.18306 10.8081C5.06585 10.9253 5 11.0842 5 11.25C5 11.4158 5.06585 11.5747 5.18306 11.6919C5.30027 11.8092 5.45924 11.875 5.625 11.875C5.79076 11.875 5.94973 11.8092 6.06694 11.6919C6.18415 11.5747 6.25 11.4158 6.25 11.25C6.25 11.0842 6.18415 10.9253 6.06694 10.8081C5.94973 10.6909 5.79076 10.625 5.625 10.625ZM3.85625 10.625C3.98538 10.259 4.22484 9.94215 4.54162 9.718C4.85841 9.49385 5.23693 9.37347 5.625 9.37347C6.01307 9.37347 6.39159 9.49385 6.70837 9.718C7.02516 9.94215 7.26462 10.259 7.39375 10.625H11.875C12.0408 10.625 12.1997 10.6909 12.3169 10.8081C12.4342 10.9253 12.5 11.0842 12.5 11.25C12.5 11.4158 12.4342 11.5747 12.3169 11.6919C12.1997 11.8092 12.0408 11.875 11.875 11.875H7.39375C7.26462 12.241 7.02516 12.5579 6.70837 12.782C6.39159 13.0062 6.01307 13.1265 5.625 13.1265C5.23693 13.1265 4.85841 13.0062 4.54162 12.782C4.22484 12.5579 3.98538 12.241 3.85625 11.875H3.125C2.95924 11.875 2.80027 11.8092 2.68306 11.6919C2.56585 11.5747 2.5 11.4158 2.5 11.25C2.5 11.0842 2.56585 10.9253 2.68306 10.8081C2.80027 10.6909 2.95924 10.625 3.125 10.625H3.85625Z" fill="#5C72A3" fill-opacity="0.5"/>
</svg>
