<svg viewBox="0 0 25 25" fill="none" xmlns="http://www.w3.org/2000/svg">
<path d="M11.4545 25C11.2662 25 1.50715 22.9163 1.66873 14.8356C1.82238 7.15677 12.9585 0 12.9585 0C12.9585 0 12.7186 3.40632 13.3692 4.94918C14.0197 6.49204 14.6011 7.32479 16.0624 8.47985C16.2437 7.91869 16.6544 7.32479 17.4756 6.53292C18.5311 8.60103 20.205 11.216 21.449 12.8129C24.1791 17.9313 21.5211 22.5935 14.2861 25C12.375 24.912 21.2427 18.8751 12.9585 14.6097C14.3909 18.8751 6.5604 20.7626 11.4545 25Z" fill="url(#paint0_linear_392:24862)" fill-opacity="0.93"/>
<defs>
<linearGradient id="paint0_linear_392:24862" x1="2.00073" y1="25" x2="22.0007" y2="8.30157e-07" gradientUnits="userSpaceOnUse">
<stop stop-color="#FF4DC2"/>
<stop offset="0.963542" stop-color="#FF5151"/>
</linearGradient>
</defs>
</svg>
