<svg viewBox="0 0 16 15" fill="none" xmlns="http://www.w3.org/2000/svg">
<path opacity="0.9" d="M7.83325 0C3.69779 0 0.333252 3.36454 0.333252 7.5C0.333252 11.6355 3.69779 15 7.83325 15C11.9687 15 15.3333 11.6355 15.3333 7.5C15.3333 3.36454 11.9687 0 7.83325 0ZM12.9895 10.9615H11.359C11.3084 10.9614 11.2588 10.948 11.2151 10.9227C11.1714 10.8974 11.1351 10.8611 11.1098 10.8173L10.5278 9.81923C10.4895 9.75397 10.4784 9.67628 10.4968 9.60289L11.0327 7.44231C11.0434 7.39877 11.0642 7.35835 11.0933 7.32423C11.1224 7.29012 11.159 7.26326 11.2003 7.24579L12.2135 6.81671C12.2631 6.79571 12.3174 6.78897 12.3706 6.79726C12.4237 6.80554 12.4735 6.82851 12.5143 6.86358L14.0153 8.15517C14.0523 8.18703 14.0807 8.22776 14.0976 8.27354C14.1146 8.31933 14.1196 8.36867 14.1123 8.41695C13.988 9.26983 13.6901 10.0881 13.2369 10.8213C13.2113 10.864 13.175 10.8994 13.1317 10.924C13.0883 10.9486 13.0393 10.9615 12.9895 10.9615ZM3.45296 6.81959L4.46618 7.24868C4.50748 7.26615 4.54414 7.29301 4.57325 7.32712C4.60235 7.36123 4.6231 7.40166 4.63385 7.44519L5.16967 9.60577C5.18811 9.67916 5.17697 9.75686 5.13866 9.82211L4.55669 10.8173C4.53143 10.8611 4.49512 10.8974 4.45139 10.9227C4.40766 10.948 4.35806 10.9614 4.30753 10.9615H2.677C2.62769 10.9616 2.57919 10.949 2.53614 10.9249C2.49308 10.9009 2.45692 10.8662 2.43109 10.8242C1.97789 10.091 1.67992 9.27272 1.55561 8.41983C1.5483 8.37156 1.55336 8.32221 1.57033 8.27643C1.58729 8.23064 1.6156 8.18991 1.6526 8.15805L3.15368 6.86647C3.19432 6.83167 3.24383 6.80886 3.29668 6.80058C3.34953 6.7923 3.40364 6.79889 3.45296 6.81959ZM12.7176 3.67392L12.0661 5.52656C12.053 5.56442 12.0321 5.59914 12.0049 5.62851C11.9776 5.65787 11.9446 5.68124 11.9078 5.69712L10.8412 6.14892C10.7922 6.16963 10.7385 6.17641 10.686 6.16852C10.6334 6.16063 10.5841 6.13837 10.5433 6.10421L8.51474 4.40264C8.48233 4.37583 8.45617 4.34224 8.43811 4.30425C8.42004 4.26625 8.41051 4.22476 8.41018 4.18269V2.97188C8.4102 2.92443 8.42193 2.87773 8.44432 2.83591C8.46671 2.79408 8.49908 2.75842 8.53854 2.73209L10.0829 1.70301C10.1232 1.6761 10.1696 1.65979 10.2179 1.65557C10.2662 1.65134 10.3147 1.65935 10.3591 1.67885C11.2477 2.06642 12.0363 2.65143 12.665 3.38942C12.698 3.42801 12.7203 3.47464 12.7296 3.52459C12.7388 3.57455 12.7347 3.62606 12.7176 3.67392ZM5.58325 1.70301L7.12796 2.73209C7.16743 2.75842 7.19979 2.79408 7.22218 2.83591C7.24457 2.87773 7.2563 2.92443 7.25633 2.97188V4.18269C7.25633 4.22483 7.24709 4.26646 7.22928 4.30465C7.21146 4.34283 7.18549 4.37665 7.1532 4.40373L5.1246 6.10529C5.08389 6.13945 5.03454 6.16171 4.98198 6.1696C4.92942 6.17749 4.87571 6.17071 4.82676 6.15L3.75873 5.69712C3.72172 5.68144 3.68839 5.65821 3.66088 5.6289C3.63337 5.59959 3.6123 5.56486 3.599 5.52692L2.94743 3.67428C2.9305 3.62625 2.92659 3.57459 2.93609 3.52456C2.94559 3.47453 2.96816 3.4279 3.00152 3.38942C3.63055 2.65068 4.4198 2.06516 5.30921 1.6774C5.35341 1.6585 5.40162 1.65094 5.44948 1.65541C5.49734 1.65988 5.54332 1.67624 5.58325 1.70301ZM6.20741 13.5105L5.49599 11.7188C5.47972 11.678 5.47296 11.6341 5.47621 11.5904C5.47946 11.5466 5.49264 11.5042 5.51474 11.4663L6.06174 10.5288C6.087 10.4851 6.12331 10.4487 6.16704 10.4234C6.21076 10.3981 6.26037 10.3847 6.3109 10.3846H9.35561C9.40613 10.3847 9.45574 10.3981 9.49947 10.4234C9.54319 10.4487 9.5795 10.4851 9.60477 10.5288L10.1521 11.4663C10.1743 11.5042 10.1875 11.5466 10.1908 11.5903C10.1942 11.6341 10.1874 11.678 10.1712 11.7188L9.46486 13.5097C9.44759 13.5535 9.41986 13.5924 9.3841 13.623C9.34833 13.6536 9.30562 13.675 9.25969 13.6853C8.32236 13.9005 7.34847 13.9005 6.41114 13.6853C6.36555 13.6749 6.32318 13.6535 6.28769 13.623C6.2522 13.5926 6.22465 13.5539 6.20741 13.5105Z" fill="#5C72A3" fill-opacity="0.5"/>
</svg>
