<svg viewBox="0 0 25 25" fill="none" xmlns="http://www.w3.org/2000/svg">
<path opacity="0.9" d="M12.5 0C5.60757 0 0 5.60757 0 12.5C0 19.3924 5.60757 25 12.5 25C19.3924 25 25 19.3924 25 12.5C25 5.60757 19.3924 0 12.5 0ZM21.0938 18.2692H18.3762C18.292 18.269 18.2093 18.2467 18.1364 18.2045C18.0636 18.1624 18.003 18.1018 17.9609 18.0288L16.991 16.3654C16.9271 16.2566 16.9086 16.1271 16.9393 16.0048L17.8323 12.4038C17.8503 12.3313 17.8848 12.2639 17.9333 12.2071C17.9819 12.1502 18.0429 12.1054 18.1118 12.0763L19.8005 11.3612C19.883 11.3262 19.9737 11.315 20.0622 11.3288C20.1508 11.3426 20.2337 11.3809 20.3017 11.4393L22.8035 13.5919C22.8652 13.645 22.9123 13.7129 22.9406 13.7892C22.9689 13.8655 22.9773 13.9478 22.9651 14.0282C22.758 15.4497 22.2613 16.8136 21.506 18.0355C21.4633 18.1067 21.4029 18.1657 21.3307 18.2067C21.2584 18.2476 21.1768 18.2692 21.0938 18.2692ZM5.19952 11.366L6.88822 12.0811C6.95705 12.1102 7.01815 12.155 7.06666 12.2119C7.11517 12.2687 7.14975 12.3361 7.16767 12.4087L8.0607 16.0096C8.09143 16.1319 8.07287 16.2614 8.00902 16.3702L7.03906 18.0288C6.99696 18.1018 6.93644 18.1624 6.86356 18.2045C6.79069 18.2467 6.70801 18.269 6.6238 18.2692H3.90625C3.82406 18.2693 3.74323 18.2483 3.67147 18.2082C3.59972 18.1681 3.53944 18.1103 3.49639 18.0403C2.74107 16.8184 2.24445 15.4545 2.03726 14.0331C2.02508 13.9526 2.03352 13.8704 2.06179 13.794C2.09007 13.7177 2.13725 13.6499 2.19892 13.5968L4.70072 11.4441C4.76844 11.3861 4.85096 11.3481 4.93904 11.3343C5.02712 11.3205 5.11731 11.3315 5.19952 11.366ZM20.6406 6.1232L19.5547 9.21094C19.5329 9.27404 19.4981 9.33191 19.4527 9.38085C19.4073 9.42979 19.3522 9.46873 19.2909 9.49519L17.5132 10.2482C17.4316 10.2827 17.3421 10.294 17.2545 10.2809C17.1669 10.2677 17.0847 10.2306 17.0168 10.1737L13.6358 7.33774C13.5818 7.29304 13.5382 7.23707 13.5081 7.17374C13.478 7.11042 13.4621 7.04127 13.4615 6.97115V4.95312C13.4616 4.87406 13.4811 4.79622 13.5185 4.72651C13.5558 4.6568 13.6097 4.59737 13.6755 4.55349L16.2494 2.83834C16.3166 2.79351 16.394 2.76631 16.4744 2.75928C16.5549 2.75224 16.6358 2.76558 16.7097 2.79808C18.1908 3.44403 19.5051 4.41904 20.5529 5.64904C20.608 5.71335 20.6451 5.79106 20.6605 5.87432C20.6759 5.95758 20.6691 6.04344 20.6406 6.1232ZM8.75 2.83834L11.3245 4.55349C11.3903 4.59737 11.4442 4.6568 11.4815 4.72651C11.5189 4.79622 11.5384 4.87406 11.5385 4.95312V6.97115C11.5385 7.04139 11.5231 7.11076 11.4934 7.17441C11.4637 7.23805 11.4204 7.29442 11.3666 7.33954L7.98558 10.1755C7.91773 10.2324 7.83547 10.2695 7.74788 10.2827C7.66028 10.2958 7.57076 10.2845 7.48918 10.25L5.70913 9.49519C5.64745 9.46907 5.5919 9.43034 5.54605 9.3815C5.5002 9.33265 5.46507 9.27476 5.44291 9.21154L4.35697 6.1238C4.32875 6.04375 4.32223 5.95766 4.33806 5.87427C4.35389 5.79088 4.39152 5.71317 4.44712 5.64904C5.49549 4.4178 6.81091 3.44193 8.29327 2.79567C8.36693 2.76417 8.44729 2.75157 8.52705 2.75902C8.60682 2.76647 8.68345 2.79374 8.75 2.83834ZM9.79027 22.5174L8.60457 19.5312C8.57745 19.4634 8.56618 19.3902 8.57159 19.3173C8.57701 19.2444 8.59897 19.1737 8.63582 19.1106L9.54748 17.5481C9.58958 17.4752 9.6501 17.4146 9.72298 17.3724C9.79585 17.3302 9.87853 17.3079 9.96274 17.3077H15.0373C15.1215 17.3079 15.2041 17.3302 15.277 17.3724C15.3499 17.4146 15.4104 17.4752 15.4525 17.5481L16.3648 19.1106C16.4017 19.1737 16.4238 19.2443 16.4293 19.3172C16.4348 19.3901 16.4237 19.4633 16.3966 19.5312L15.2194 22.5162C15.1906 22.5892 15.1443 22.654 15.0847 22.705C15.0251 22.7561 14.954 22.7917 14.8774 22.8089C13.3152 23.1674 11.692 23.1674 10.1298 22.8089C10.0538 22.7915 9.98321 22.7558 9.92406 22.7051C9.86491 22.6543 9.81899 22.5899 9.79027 22.5174Z" fill="url(#paint0_linear_392:24861)"/>
<defs>
<linearGradient id="paint0_linear_392:24861" x1="0" y1="25" x2="-3.55905" y2="5.11036" gradientUnits="userSpaceOnUse">
<stop stop-color="#08C052"/>
<stop offset="1" stop-color="#2EED87"/>
<stop offset="1" stop-color="#16E043"/>
</linearGradient>
</defs>
</svg>
