<svg width="30" height="30" viewBox="0 0 30 30" fill="none" xmlns="http://www.w3.org/2000/svg">
<rect width="30" height="30" rx="8" fill="url(#paint1)"/>
<rect width="30" height="30" rx="8" fill="url(#paint)"/>
<path fill-rule="evenodd" clip-rule="evenodd" d="M13.3498 22.4658C17.5559 23.5146 21.8154 20.9551 22.8639 16.7495C23.9125 12.5437 21.3533 8.28343 17.1474 7.23492C12.9426 6.18641 8.68305 8.74611 7.63503 12.9522C6.58603 17.1575 9.14549 21.4173 13.3498 22.4658ZM16.9841 11.7513C18.0716 12.1259 18.8669 12.6875 18.7107 13.732C18.5976 14.4967 18.1736 14.8669 17.6109 14.9967C18.3836 15.399 18.7769 16.016 18.4023 17.0856C17.9374 18.414 16.833 18.5261 15.3642 18.2482L15.0078 19.6767L14.1464 19.4621L14.4982 18.0527C14.275 17.9972 14.0468 17.9384 13.8118 17.8746L13.4588 19.2906L12.5984 19.0759L12.9549 17.6447C12.8745 17.6241 12.7936 17.603 12.7121 17.5818L12.712 17.5817C12.5897 17.5498 12.466 17.5176 12.3408 17.4862L11.22 17.2068L11.6476 16.2208C11.6476 16.2208 12.2822 16.3896 12.2736 16.3771C12.5175 16.4375 12.6257 16.2785 12.6684 16.1725L13.2316 13.9143C13.2528 13.9194 13.2735 13.9246 13.2935 13.9296L13.3226 13.9369C13.2883 13.9232 13.2571 13.9143 13.2331 13.9082L13.6349 12.2962C13.6455 12.1132 13.5824 11.8823 13.2336 11.7952C13.2471 11.7861 12.608 11.6397 12.608 11.6397L12.8371 10.7197L14.025 11.0163L14.024 11.0207C14.2026 11.0651 14.3866 11.1073 14.574 11.15L14.927 9.73549L15.7879 9.95014L15.442 11.337C15.6731 11.3897 15.9056 11.4429 16.1321 11.4994L16.4755 10.1216L17.3368 10.3363L16.9841 11.7513ZM14.2596 16.8817C14.9624 17.0673 16.4985 17.473 16.7427 16.4917C16.9929 15.4883 15.5032 15.1541 14.7763 14.991C14.6951 14.9727 14.6234 14.9566 14.5647 14.942L14.0917 16.8381C14.1399 16.8501 14.1964 16.865 14.2596 16.8817L14.2596 16.8817ZM17.0091 13.7166C16.7865 14.6085 15.5083 14.2674 14.9224 14.111L14.9223 14.111C14.8691 14.0968 14.8216 14.0841 14.7811 14.074L15.2099 12.3543C15.2591 12.3665 15.3192 12.3799 15.3875 12.395L15.3875 12.395C15.9942 12.5293 17.2364 12.8043 17.0091 13.7166Z" fill="white"/>
<defs>
<linearGradient id="paint1" x1="0" y1="0" x2="35.8447" y2="11.0632" gradientUnits="userSpaceOnUse">
<stop stop-color="#0095FF"/>
<stop offset="1" stop-color="#0855C4"/>
</linearGradient>
<linearGradient id="paint" x1="0" y1="0" x2="33.5539" y2="25.2836" gradientUnits="userSpaceOnUse">
<stop stop-color="#FFC759"/>
<stop offset="1" stop-color="#FFA902"/>
</linearGradient>
</defs>
</svg>
