<svg width="25" height="25" viewBox="0 0 25 25" fill="none" xmlns="http://www.w3.org/2000/svg">
<path d="M24.623 15.5239C22.9535 22.2203 16.1711 26.2957 9.47391 24.6258C2.77945 22.9563 -1.2959 16.1735 0.374395 9.47748C2.04313 2.78028 8.82548 -1.29546 15.5207 0.374057C22.2175 2.04357 26.2925 8.8271 24.623 15.5239Z" fill="#F7931A"/>
<path fill-rule="evenodd" clip-rule="evenodd" d="M18.0097 10.7191C18.2586 9.05581 16.9922 8.16168 15.2606 7.5652L15.8223 5.3121L14.4508 4.97031L13.9039 7.16403C13.5434 7.07419 13.1731 6.98943 12.8051 6.90544L13.3559 4.69726L11.9852 4.35547L11.4231 6.60779C11.1247 6.53982 10.8317 6.47263 10.5473 6.40193L10.5489 6.3949L8.65749 5.92264L8.29265 7.38747C8.29265 7.38747 9.31022 7.62067 9.28874 7.63512C9.8442 7.77379 9.94459 8.14137 9.92779 8.43277L9.28796 10.9995C9.32624 11.0093 9.37584 11.0234 9.43053 11.0452L9.3841 11.0336L9.384 11.0336C9.35221 11.0257 9.31926 11.0174 9.28561 11.0093L8.38875 14.605C8.32078 14.7737 8.14851 15.0268 7.76024 14.9308C7.77391 14.9507 6.76337 14.6819 6.76337 14.6819L6.08252 16.2518L7.86727 16.6967C8.06648 16.7467 8.26331 16.798 8.45808 16.8488L8.45837 16.8489L8.45848 16.8489C8.58819 16.8827 8.717 16.9163 8.84499 16.9491L8.27742 19.228L9.64733 19.5698L10.2094 17.3151C10.5836 17.4167 10.9469 17.5104 11.3024 17.5987L10.7422 19.8428L12.1137 20.1846L12.6813 17.91C15.0199 18.3526 16.7785 18.1741 17.5187 16.0589C18.1152 14.3558 17.489 13.3733 16.2586 12.7327C17.1547 12.5261 17.8297 11.9366 18.0097 10.7191ZM14.8762 15.1132C14.4873 16.6757 12.0416 16.0297 10.9225 15.7341L10.9224 15.7341C10.8218 15.7075 10.7318 15.6838 10.6551 15.6647L11.4082 12.6456C11.5017 12.6689 11.6159 12.6946 11.7452 12.7236C12.9026 12.9833 15.2746 13.5155 14.8762 15.1132ZM11.9777 11.3225C12.9108 11.5715 14.9459 12.1146 15.3004 10.6945C15.6624 9.24185 13.6844 8.80397 12.7184 8.59012C12.6097 8.56607 12.5139 8.54484 12.4356 8.52533L11.7528 11.2636C11.8173 11.2797 11.893 11.2999 11.9777 11.3225Z" fill="white"/>
</svg>
