<svg width="25" height="25" viewBox="0 0 25 25" fill="none" xmlns="http://www.w3.org/2000/svg">
<path fill-rule="evenodd" clip-rule="evenodd" d="M3.33333 4.16699H21.6667C23.5076 4.16699 25 5.65938 25 7.50032V17.5003C25 19.3413 23.5076 20.8337 21.6667 20.8337H3.33333C1.49238 20.8337 0 19.3413 0 17.5003V7.50032C0 5.65938 1.49238 4.16699 3.33333 4.16699Z" fill="url(#paint)"/>
<path fill-rule="evenodd" clip-rule="evenodd" d="M3.5 9.16699C2.94772 9.16699 2.5 9.61471 2.5 10.167V10.667C2.5 11.2193 2.94771 11.667 3.5 11.667H17.3333C17.8856 11.667 18.3333 11.2193 18.3333 10.667V10.167C18.3333 9.61471 17.8856 9.16699 17.3333 9.16699H3.5ZM3.2 15.8337C2.8134 15.8337 2.5 16.1471 2.5 16.5337V16.8003C2.5 17.1869 2.8134 17.5003 3.2 17.5003H5.96667C6.35327 17.5003 6.66667 17.1869 6.66667 16.8003V16.5337C6.66667 16.1471 6.35327 15.8337 5.96667 15.8337H3.2Z" fill="white"/>
<defs>
<linearGradient id="paint" x1="-2.13954e-07" y1="5.00033" x2="22.9167" y2="20.8337" gradientUnits="userSpaceOnUse">
<stop stop-color="#00C4FF"/>
<stop offset="1" stop-color="#0091FF"/>
</linearGradient>
</defs>
</svg>
