<svg width="30" height="30" viewBox="0 0 30 30" fill="none" xmlns="http://www.w3.org/2000/svg">
<rect width="30" height="30" rx="8" fill="url(#paint)"/>
<path fill-rule="evenodd" clip-rule="evenodd" d="M20.8667 9.66699H9.13333C7.95513 9.66699 7 10.6221 7 11.8003V18.2003C7 19.3785 7.95513 20.3337 9.13333 20.3337H20.8667C22.0449 20.3337 23 19.3785 23 18.2003V11.8003C23 10.6221 22.0449 9.66699 20.8667 9.66699ZM8.6 13.667C8.6 13.2252 8.95817 12.867 9.4 12.867H17.9333C18.3752 12.867 18.7333 13.2252 18.7333 13.667C18.7333 14.1088 18.3752 14.467 17.9333 14.467H9.4C8.95817 14.467 8.6 14.1088 8.6 13.667ZM8.6 17.667C8.6 17.3724 8.83878 17.1337 9.13333 17.1337H10.7333C11.0279 17.1337 11.2667 17.3724 11.2667 17.667C11.2667 17.9615 11.0279 18.2003 10.7333 18.2003H9.13333C8.83878 18.2003 8.6 17.9615 8.6 17.667Z" fill="white"/>
<defs>
<linearGradient id="paint" x1="0" y1="0" x2="35.8447" y2="11.0632" gradientUnits="userSpaceOnUse">
<stop stop-color="#0095FF"/>
<stop offset="1" stop-color="#0855C4"/>
</linearGradient>
</defs>
</svg>
