<svg width="30" height="30" viewBox="0 0 30 30" fill="none" xmlns="http://www.w3.org/2000/svg">
<rect width="30" height="30" rx="8" fill="url(#paint)"/>
<path fill-rule="evenodd" clip-rule="evenodd" d="M22.6232 22.5505C21.0168 21.1624 19.5731 20.7261 18.2514 20.7261C17.4429 20.7261 16.7791 20.785 16.1747 20.8386C15.6695 20.8833 15.2058 20.9244 14.7337 20.9244C10.9109 20.9244 7.7998 17.8905 7.7998 14.1624C7.7998 10.4344 10.8906 7.40039 14.7337 7.40039C18.5564 7.40039 21.6675 10.4145 21.6675 14.1624C21.6675 15.4315 21.3218 16.6213 20.6915 17.6327C20.6712 17.6723 20.6102 17.6525 20.6102 17.6128C20.3661 15.9471 19.3291 15.0151 17.8041 14.7573C17.6821 14.7375 17.6414 14.6582 17.8244 14.6383C18.2921 14.5987 18.9631 14.5987 19.2884 14.6582C19.3088 14.4995 19.3088 14.3211 19.3088 14.1426C19.3088 11.6638 17.2551 9.66101 14.7133 9.66101C12.1716 9.66101 10.1179 11.6638 10.1179 14.1426C10.1179 16.1582 11.4758 17.8591 13.3499 18.4244C13.3581 18.3432 13.3802 18.2685 13.4171 18.2077C13.476 18.1284 13.5497 18.0689 13.6528 18.0689C13.7706 18.0888 13.9032 18.1482 14.0063 18.2672C14.0971 18.3731 14.163 18.4857 14.201 18.5967C14.3692 18.6149 14.5401 18.6242 14.7133 18.6242H14.937C14.8986 18.4182 14.8738 18.2122 14.8604 18.0166C14.7985 17.9665 14.7265 17.8583 14.6545 17.6922C14.5366 17.4542 14.5072 17.1964 14.5514 17.0576C14.5808 16.9584 14.6692 16.9188 14.7576 16.9783C14.8281 17.0148 14.8826 17.0889 14.9241 17.177C14.9567 17.1662 15.001 17.2116 15.059 17.3154C15.6894 18.3862 16.6044 19.3579 18.3734 19.7346C19.8171 20.0519 21.2812 20.4287 22.8469 22.3522C22.9892 22.5108 22.7859 22.6893 22.6232 22.5505Z" fill="white"/>
<defs>
<linearGradient id="paint" x1="0" y1="0" x2="33.5539" y2="25.2836" gradientUnits="userSpaceOnUse">
<stop stop-color="#FFB369"/>
<stop offset="1" stop-color="#FD8C25"/>
</linearGradient>
</defs>
</svg>
