<svg width="25" height="25" viewBox="0 0 25 25" fill="none" xmlns="http://www.w3.org/2000/svg">
<path fill-rule="evenodd" clip-rule="evenodd" d="M24.3806 24.9179C21.7385 22.6349 19.364 21.9174 17.1902 21.9174C15.8603 21.9174 14.7686 22.0141 13.7745 22.1022C12.9436 22.1759 12.1809 22.2435 11.4044 22.2435C5.11692 22.2435 0 17.2534 0 11.1218C0 4.99011 5.08347 0 11.4044 0C17.6918 0 22.8087 4.9575 22.8087 11.1218C22.8087 13.2091 22.2402 15.166 21.2034 16.8294C21.17 16.8946 21.0697 16.862 21.0697 16.7968C20.6683 14.0571 18.9627 12.5242 16.4544 12.1002C16.2537 12.0676 16.1868 11.9371 16.4878 11.9045C17.257 11.8393 18.3607 11.8393 18.8958 11.9371C18.9292 11.6762 18.9292 11.3827 18.9292 11.0891C18.9292 7.01225 15.5514 3.71812 11.3709 3.71812C7.19044 3.71812 3.8126 7.01225 3.8126 11.0891C3.8126 14.4043 6.04612 17.2019 9.12851 18.1315C9.14193 17.998 9.17824 17.8752 9.239 17.7752C9.33591 17.6448 9.45705 17.5469 9.62664 17.5469C9.82046 17.5795 10.0385 17.6774 10.2081 17.8731C10.3574 18.0473 10.4658 18.2324 10.5283 18.4151C10.8049 18.4449 11.086 18.4602 11.3709 18.4602H11.7388C11.6756 18.1213 11.6348 17.7825 11.6129 17.4609C11.511 17.3784 11.3925 17.2005 11.2741 16.9272C11.0803 16.5359 11.0318 16.1119 11.1045 15.8836C11.153 15.7205 11.2984 15.6552 11.4437 15.7531C11.5597 15.8131 11.6494 15.9351 11.7176 16.0799C11.7713 16.0622 11.844 16.1369 11.9395 16.3076C12.9762 18.0688 14.4812 19.6669 17.3908 20.2866C19.7653 20.8084 22.1733 21.4281 24.7485 24.5918C24.9826 24.8527 24.6481 25.1462 24.3806 24.9179Z" fill="url(#paint)"/>
<defs>
<linearGradient id="paint" x1="-6.80447" y1="7.6822" x2="1.79294" y2="29.2364" gradientUnits="userSpaceOnUse">
<stop stop-color="#FFC04C"/>
<stop offset="1" stop-color="#FD8C25"/>
</linearGradient>
</defs>
</svg>
