<svg width="25" height="25" viewBox="0 0 25 25" fill="none" xmlns="http://www.w3.org/2000/svg">
<path fill-rule="evenodd" clip-rule="evenodd" d="M12.4499 0C14.4192 0 16.255 0.46729 17.8905 1.26836C18.024 1.33511 18.1492 1.40187 18.2744 1.46862C18.3995 1.53538 18.5247 1.60214 18.6582 1.66889L17.5234 2.7036L15.7877 0.934579L12.8838 3.53805L11.1482 1.66889L5.74099 6.54206L9.21228 10.3805L7.84379 11.5821L11.2483 15.4206L9.87984 16.6222L14.753 22.0627L17.6569 19.3925L20.1602 22.263C19.6595 22.6636 19.1255 23.0307 18.5247 23.3645C16.7223 24.3992 14.6195 25 12.3832 25C5.5741 24.8999 0 19.3258 0 12.4499C0 5.5741 5.5741 0 12.4499 0ZM10.1802 11.6823L13.1509 9.01202L15.7877 11.9493L12.8505 14.6195L10.1802 11.6823ZM15.2537 14.1188L12.283 16.7891L14.9533 19.7597L17.9239 17.0895L15.2537 14.1188ZM8.04406 6.60881L11.0147 3.93859L13.6849 6.90921L10.7143 9.57944L8.04406 6.60881ZM15.721 3.1709L13.4846 5.17357L15.4873 7.40988L17.7236 5.40721L15.721 3.1709ZM17.4232 14.3191L19.6595 12.3498L21.6622 14.5527L19.4259 16.5554L17.4232 14.3191ZM21.5955 16.8224L19.3925 18.8251L21.3952 21.028L23.5981 19.0254L21.5955 16.8224ZM20.2937 8.54472L21.7623 7.20961L23.0975 8.67823L21.6288 10.0133L20.2937 8.54472ZM19.8598 2.80373L18.3912 4.13884L19.7263 5.60747L21.1949 4.30573L19.8598 2.80373ZM22.1629 12.9506L23.6649 11.6155L25 13.0841L23.498 14.4192L22.1629 12.9506ZM17.757 7.64353L15.5207 9.6462L17.5234 11.8491L19.7597 9.87984L17.757 7.64353Z" fill="url(#paint)"/>
<defs>
<linearGradient id="paint" x1="-21.1797" y1="-1.52491" x2="-4.84591" y2="33.1669" gradientUnits="userSpaceOnUse">
<stop stop-color="#27A7DA"/>
<stop offset="1" stop-color="#116EB3"/>
</linearGradient>
</defs>
</svg>
