<svg width="30" height="30" viewBox="0 0 30 30" fill="none" xmlns="http://www.w3.org/2000/svg">
<rect width="30" height="30" rx="8" fill="url(#paint)"/>
<path fill-rule="evenodd" clip-rule="evenodd" d="M14.97 7.5C16.1515 7.5 17.253 7.78037 18.2343 8.26101C18.3144 8.30107 18.3895 8.34112 18.4646 8.38117C18.5397 8.42123 18.6148 8.46128 18.6949 8.50134L18.014 9.12216L16.9726 8.06075L15.2303 9.62283L14.1889 8.50134L10.9446 11.4252L13.0274 13.7283L12.2063 14.4493L14.249 16.7523L13.4279 17.4733L16.3518 20.7377L18.0941 19.1355L19.5961 20.8578C19.2957 21.0981 18.9753 21.3184 18.6148 21.5187C17.5334 22.1395 16.2717 22.5 14.9299 22.5C10.8445 22.4399 7.5 19.0955 7.5 14.97C7.5 10.8445 10.8445 7.5 14.97 7.5ZM13.6081 14.5094L15.3905 12.9072L16.9726 14.6696L15.2103 16.2717L13.6081 14.5094ZM16.6522 15.9713L14.8698 17.5734L16.472 19.3558L18.2543 17.7537L16.6522 15.9713ZM12.3264 11.4653L14.1088 9.86315L15.711 11.6455L13.9286 13.2477L12.3264 11.4653ZM16.9326 9.40255L15.5908 10.6041L16.7924 11.9459L18.1342 10.7443L16.9326 9.40255ZM17.9539 16.0915L19.2957 14.9099L20.4973 16.2316L19.1555 17.4332L17.9539 16.0915ZM20.4573 17.5935L19.1355 18.7951L20.3371 20.1168L21.6589 18.9152L20.4573 17.5935ZM19.6762 12.6268L20.5574 11.8258L21.3585 12.7069L20.4773 13.508L19.6762 12.6268ZM19.4159 9.18223L18.5347 9.9833L19.3358 10.8645L20.217 10.0834L19.4159 9.18223ZM20.7977 15.2704L21.6989 14.4693L22.5 15.3505L21.5988 16.1515L20.7977 15.2704ZM18.1542 12.0861L16.8124 13.2877L18.014 14.6095L19.3558 13.4279L18.1542 12.0861Z" fill="white"/>
<defs>
<linearGradient id="paint" x1="-25.4157" y1="-1.8299" x2="-5.8151" y2="39.8003" gradientUnits="userSpaceOnUse">
<stop stop-color="#27A7DA"/>
<stop offset="1" stop-color="#116EB3"/>
</linearGradient>
</defs>
</svg>
