<svg width="30" height="30" viewBox="0 0 30 30" fill="none" xmlns="http://www.w3.org/2000/svg">
<rect width="30" height="30" rx="8" fill="url(#paint)"/>
<path fill-rule="evenodd" clip-rule="evenodd" d="M15.4961 7.94708C16.6907 7.52161 17.9934 7.38532 19.2454 7.60102C21.2883 7.91746 23.1664 9.1339 24.3086 10.8574C24.7758 11.5533 25.1164 12.3315 25.3221 13.1433C25.8227 15.1708 25.4582 17.4094 24.2835 19.1425C23.1363 20.8876 21.2296 22.1199 19.1595 22.4114C16.8696 22.7817 14.4332 21.9727 12.7993 20.3279C11.7175 19.2703 10.9743 17.8737 10.7002 16.3847C10.6734 16.241 10.6682 16.0882 10.5897 15.9597C10.5537 16.3648 10.5759 16.7727 10.5702 17.1795C10.5719 18.3359 10.5674 19.4922 10.5726 20.6486C9.68718 20.6531 8.80198 20.6486 7.91678 20.6491C6.77241 17.0116 5.63467 13.3715 4.5 9.73122C6.52342 9.72766 8.5473 9.73809 10.5707 9.726C10.5811 11.1717 10.548 12.6183 10.588 14.0634C10.6204 14.0035 10.6427 13.9402 10.6545 13.8736C10.8562 12.4933 11.4583 11.174 12.3653 10.1157C13.1998 9.13959 14.2883 8.3818 15.4961 7.94708ZM17.7319 12.2483C17.1013 12.3213 16.494 12.6088 16.0464 13.0606C15.4128 13.675 15.1094 14.615 15.2836 15.4835C15.4829 16.6616 16.534 17.6068 17.7087 17.7481C18.5664 17.8628 19.4701 17.5457 20.067 16.9176C20.5882 16.3859 20.8731 15.6397 20.8684 14.8976C20.8497 14.278 20.6092 13.6681 20.1998 13.2026C19.5998 12.5043 18.6445 12.1392 17.7319 12.2483Z" fill="white"/>
<defs>
<linearGradient id="paint" x1="30" y1="30" x2="0" y2="0" gradientUnits="userSpaceOnUse">
<stop stop-color="#8D42FC"/>
<stop offset="1" stop-color="#AC73FF"/>
</linearGradient>
</defs>
</svg>
