<svg width="27" height="19" viewBox="0 0 27 19" fill="none" xmlns="http://www.w3.org/2000/svg">
<path fill-rule="evenodd" clip-rule="evenodd" d="M13.9284 0.566308C15.4415 0.0273776 17.0916 -0.14526 18.6776 0.127958C21.2651 0.528778 23.6441 2.06961 25.0909 4.25265C25.6827 5.13415 26.1141 6.11984 26.3746 7.14816C27.0087 9.71641 26.547 12.5519 25.0591 14.7472C23.606 16.9576 21.1908 18.5185 18.5687 18.8878C15.6682 19.3568 12.582 18.3321 10.5125 16.2487C9.14211 14.909 8.20074 13.14 7.85357 11.2539C7.81969 11.072 7.8131 10.8783 7.71356 10.7156C7.66799 11.2287 7.69618 11.7454 7.68898 12.2606C7.69108 13.7255 7.68538 15.1901 7.69198 16.6549C6.57043 16.6606 5.44917 16.6549 4.32792 16.6555C2.87838 12.0481 1.43724 7.43729 0 2.82621C2.56299 2.82171 5.12659 2.83492 7.68958 2.81961C7.70277 4.65077 7.6608 6.48313 7.71147 8.31369C7.75254 8.23773 7.78072 8.15756 7.79571 8.0732C8.05114 6.3249 8.81383 4.65377 9.96267 3.3132C11.0198 2.07681 12.3985 1.11695 13.9284 0.566308ZM16.7604 6.01448C15.9617 6.10696 15.1924 6.47115 14.6255 7.04341C13.8229 7.82163 13.4386 9.01238 13.6592 10.1125C13.9117 11.6046 15.2431 12.802 16.731 12.9809C17.8175 13.1263 18.9621 12.7245 19.7182 11.9289C20.3783 11.2555 20.7393 10.3103 20.7333 9.37026C20.7096 8.58543 20.405 7.81292 19.8864 7.22325C19.1264 6.33874 17.9164 5.87637 16.7604 6.01448Z" fill="#8B3EFC"/>
</svg>
