<svg viewBox="0 0 30 30" fill="none" xmlns="http://www.w3.org/2000/svg">
<path fill-rule="evenodd" clip-rule="evenodd" d="M21.2638 18.2515C21.7813 18.2515 22.2013 17.8315 22.2013 17.314V14.999C22.2013 14.4815 21.7813 14.0615 21.2638 14.0615H14.1488C13.7438 12.7278 12.5163 11.7478 11.0513 11.7478C9.25881 11.7478 7.80006 13.2065 7.80006 14.999C7.80006 16.7928 9.25881 18.2515 11.0513 18.2515C12.5163 18.2515 13.7438 17.2715 14.1488 15.9365H16.7888V17.314C16.7888 17.8315 17.2088 18.2515 17.7263 18.2515C18.2438 18.2515 18.6638 17.8315 18.6638 17.314V15.9365H20.3263V17.314C20.3263 17.8315 20.7463 18.2515 21.2638 18.2515ZM9.5825 2.49902H20.4188C24.6537 2.49902 27.5 5.47152 27.5 9.89527V20.104C27.5 24.5278 24.6537 27.499 20.4175 27.499H9.5825C5.34625 27.499 2.5 24.5278 2.5 20.104V9.89527C2.5 5.47152 5.34625 2.49902 9.5825 2.49902ZM9.67367 15.0002C9.67367 14.2402 10.2924 13.6227 11.0512 13.6227C11.8099 13.6227 12.4287 14.2402 12.4287 15.0002C12.4287 15.7589 11.8099 16.3764 11.0512 16.3764C10.2924 16.3764 9.67367 15.7589 9.67367 15.0002Z" fill="#1A88F3"/>
</svg>
