<svg viewBox="0 0 30 30" fill="none" xmlns="http://www.w3.org/2000/svg">
<circle cx="15.5" cy="15.5" r="13.5" fill="#1A88F3"/>
<path d="M16.6147 14.3849C16.0231 13.7936 15.221 13.4614 14.3846 13.4614C13.5483 13.4614 12.7461 13.7936 12.1546 14.3849L9.92386 16.6151C9.33232 17.2066 9 18.009 9 18.8456C9 19.6822 9.33232 20.4845 9.92386 21.0761C10.5154 21.6677 11.3177 22 12.1542 22C12.9908 22 13.7931 21.6677 14.3846 21.0761L15.4996 19.961M14.3853 16.6151C14.9769 17.2064 15.779 17.5386 16.6154 17.5386C17.4517 17.5386 18.2539 17.2064 18.8454 16.6151L21.0761 14.3849C21.6677 13.7934 22 12.991 22 12.1544C22 11.3178 21.6677 10.5155 21.0761 9.92391C20.4846 9.33234 19.6823 9 18.8458 9C18.0092 9 17.2069 9.33234 16.6154 9.92391L15.5003 11.039" stroke="white" stroke-width="1.3" stroke-linecap="round" stroke-linejoin="round"/>
</svg>
