<svg viewBox="0 0 30 30" fill="none" xmlns="http://www.w3.org/2000/svg">
<path opacity="0.8" d="M24.459 14.4912C23.9606 14.4912 23.5557 14.0863 23.5557 13.5879C23.5557 11.0556 22.5699 8.67502 20.7797 6.88481C20.4276 6.53273 20.4276 5.96127 20.7797 5.60783C21.1318 5.25439 21.7032 5.25575 22.0567 5.60783C24.1881 7.73929 25.3622 10.5736 25.3622 13.5879C25.3608 14.0863 24.9573 14.4912 24.459 14.4912Z" fill="#1A88F3"/>
<path opacity="0.8" d="M6.40323 14.4911C5.9049 14.4911 5.5 14.0863 5.5 13.5879C5.5 10.5735 6.67406 7.73927 8.80552 5.60781C9.1576 5.25573 9.72906 5.25573 10.0825 5.60781C10.4359 5.9599 10.4346 6.53135 10.0825 6.88479C8.29229 8.675 7.30646 11.0556 7.30646 13.5879C7.30646 14.0863 6.90156 14.4911 6.40323 14.4911Z" fill="#1A88F3"/>
<path opacity="0.8" d="M23.9021 19.9347C22.5371 18.781 21.7544 17.0937 21.7544 15.3075V12.7915C21.7544 9.61463 19.3941 6.98484 16.3377 6.54473V5.56973C16.3377 5.07005 15.9328 4.6665 15.4345 4.6665C14.9361 4.6665 14.5312 5.07005 14.5312 5.56973V6.54473C11.4735 6.98484 9.11458 9.61463 9.11458 12.7915V15.3089C9.11458 17.095 8.33188 18.781 6.95875 19.9429C6.60802 20.2435 6.40625 20.6809 6.40625 21.1427C6.40625 22.0134 7.11448 22.723 7.98656 22.723H22.8824C23.7531 22.723 24.4627 22.0147 24.4627 21.1427C24.4627 20.6809 24.2609 20.2435 23.9021 19.9347Z" fill="#1A88F3"/>
<path opacity="0.8" d="M15.4349 26.3333C17.0694 26.3333 18.4371 25.1688 18.7512 23.625H12.1172C12.4327 25.1688 13.8004 26.3333 15.4349 26.3333Z" fill="#1A88F3"/>
</svg>
