<svg viewBox="0 0 30 30" fill="none" xmlns="http://www.w3.org/2000/svg">
<path fill-rule="evenodd" clip-rule="evenodd" d="M19.961 4C21.6631 4 23.3004 4.64778 24.5049 5.81011C25.7107 6.97 26.3846 8.53444 26.3846 10.1722V19.8278C26.3846 23.2378 23.5035 26 19.961 26H7.42231C3.87988 26 1 23.2378 1 19.8278V10.1722C1 6.76222 3.86719 4 7.42231 4H19.961ZM21.9815 11.9934L22.083 11.8956C22.3864 11.5412 22.3864 11.0278 22.0691 10.6734C21.8926 10.4913 21.6502 10.3801 21.3976 10.3556C21.1311 10.3422 20.8773 10.4289 20.6856 10.6001L14.9626 15.0001C14.2265 15.5879 13.1718 15.5879 12.4242 15.0001L6.71264 10.6001C6.31791 10.3189 5.77214 10.3556 5.44341 10.6856C5.10072 11.0156 5.06264 11.5412 5.35329 11.9078L5.51956 12.0667L11.2946 16.4056C12.0053 16.9434 12.8671 17.2367 13.7696 17.2367C14.6694 17.2367 15.5465 16.9434 16.256 16.4056L21.9815 11.9934Z" fill="#1A88F3"/>
</svg>
