<svg viewBox="0 0 30 30" fill="none" xmlns="http://www.w3.org/2000/svg">
    <path d="M25.7496 13.7895C25.1516 13.7895 24.6657 13.3036 24.6657 12.7056C24.6657 9.66687 23.4827 6.81012 21.3345 4.66187C20.912 4.23937 20.912 3.55362 21.3345 3.1295C21.757 2.70537 22.4427 2.707 22.8668 3.1295C25.4246 5.68725 26.8335 9.08837 26.8335 12.7056C26.8318 13.3036 26.3476 13.7895 25.7496 13.7895Z" fill="#1A88F3"/>
    <path d="M4.08387 13.7894C3.48587 13.7894 3 13.3035 3 12.7055C3 9.08825 4.40888 5.68713 6.96663 3.12938C7.38913 2.70687 8.07488 2.70687 8.499 3.12938C8.92313 3.55188 8.9215 4.23762 8.499 4.66175C6.35075 6.81 5.16775 9.66675 5.16775 12.7055C5.16775 13.3035 4.68187 13.7894 4.08387 13.7894Z" fill="#1A88F3"/>
    <path d="M25.0829 20.3219C23.4449 18.9374 22.5056 16.9126 22.5056 14.7693V11.75C22.5056 7.93775 19.6733 4.782 16.0056 4.25388V3.08387C16.0056 2.48425 15.5198 2 14.9218 2C14.3238 2 13.8379 2.48425 13.8379 3.08387V4.25388C10.1686 4.782 7.33789 7.93775 7.33789 11.75V14.7709C7.33789 16.9143 6.39864 18.9374 4.75089 20.3316C4.33002 20.6924 4.08789 21.2173 4.08789 21.7714C4.08789 22.8163 4.93777 23.6678 5.98427 23.6678H23.8593C24.9041 23.6678 25.7556 22.8179 25.7556 21.7714C25.7556 21.2173 25.5135 20.6924 25.0829 20.3219Z" fill="#1A88F3"/>
    <path d="M14.9207 28C16.8821 28 18.5233 26.6025 18.9003 24.75H10.9395C11.3181 26.6025 12.9593 28 14.9207 28Z" fill="#1A88F3"/>
</svg>
