<svg viewBox="0 0 30 30" fill="none" xmlns="http://www.w3.org/2000/svg">
<path fill-rule="evenodd" clip-rule="evenodd" d="M12.3105 17.6625H14.4516C14.959 17.6625 15.3798 17.25 15.3798 16.7375C15.3798 16.2125 14.959 15.8 14.4516 15.8H12.3105V13.6375C12.3105 13.125 11.9021 12.7125 11.3947 12.7125C10.8872 12.7125 10.4664 13.125 10.4664 13.6375V15.8H8.33772C7.8303 15.8 7.40951 16.2125 7.40951 16.7375C7.40951 17.25 7.8303 17.6625 8.33772 17.6625H10.4664V19.825C10.4664 20.3375 10.8872 20.75 11.3947 20.75C11.9021 20.75 12.3105 20.3375 12.3105 19.825V17.6625ZM20.7976 11.782C21.0885 11.7787 21.4053 11.775 21.6931 11.775C22.0025 11.775 22.25 12.025 22.25 12.3375V22.3875C22.25 25.4875 19.7624 28 16.6807 28H6.84158C3.62376 28 1 25.3625 1 22.1125V8.6375C1 5.5375 3.5 3 6.58168 3H13.1906C13.5124 3 13.7599 3.2625 13.7599 3.575V7.6C13.7599 9.8875 15.6287 11.7625 17.8936 11.775C18.4226 11.775 18.889 11.779 19.2971 11.7824C19.6146 11.7851 19.8969 11.7875 20.146 11.7875C20.3222 11.7875 20.5506 11.7849 20.7976 11.782ZM21.1393 9.95772C20.122 9.96147 18.9227 9.95772 18.0601 9.94897C16.6913 9.94897 15.5638 8.81021 15.5638 7.42771V4.13271C15.5638 3.59396 16.2111 3.32646 16.5811 3.71521C17.2508 4.41851 18.1711 5.38521 19.0872 6.34754C20.0012 7.30769 20.9111 8.26349 21.5638 8.94897C21.9252 9.32771 21.6603 9.95647 21.1393 9.95772Z" fill="#1A88F3"/>
</svg>
