<svg viewBox="0 0 30 30" fill="none" xmlns="http://www.w3.org/2000/svg">
<path fill-rule="evenodd" clip-rule="evenodd" d="M21.9769 4.17912C21.9769 2.51664 23.3269 1.16666 24.9894 1.16666C26.6518 1.16666 28.0018 2.51664 28.0018 4.17912C28.0018 5.84159 26.6518 7.19157 24.9894 7.19157C23.3269 7.19157 21.9769 5.84159 21.9769 4.17912ZM17.161 17.1156L20.7734 12.4544L20.7234 12.4794C20.9234 12.2044 20.9609 11.8544 20.8234 11.5419C20.6872 11.2294 20.386 11.0169 20.0622 10.9919C19.7235 10.9544 19.3872 11.1044 19.186 11.3794L16.1623 15.2918L12.6986 12.5669C12.4861 12.4044 12.2361 12.3406 11.9861 12.3669C11.7373 12.4044 11.5123 12.5406 11.3611 12.7406L7.6624 17.5543L7.58616 17.6668C7.37366 18.0655 7.47366 18.578 7.84865 18.8543C8.02365 18.9668 8.21115 19.0418 8.42364 19.0418C8.71239 19.0543 8.98613 18.903 9.16113 18.6668L12.2986 14.6281L15.861 17.3043L15.9735 17.3781C16.3735 17.5906 16.8735 17.4918 17.161 17.1156ZM19.8122 3.39202C19.7622 3.70452 19.7372 4.01701 19.7372 4.32951C19.7372 7.14196 22.0122 9.41568 24.8122 9.41568C25.1247 9.41568 25.4246 9.37943 25.7371 9.32943V19.4155C25.7371 23.6542 23.2372 26.1667 18.9872 26.1667H9.75114C5.49996 26.1667 3 23.6542 3 19.4155V10.1669C3 5.91698 5.49996 3.39202 9.75114 3.39202H19.8122Z" fill="#1A88F3"/>
</svg>
