<svg width="24" height="24" viewBox="0 0 24 24" fill="none" xmlns="http://www.w3.org/2000/svg">
<path d="M19 3H18V2C18 1.73478 17.8946 1.48043 17.7071 1.29289C17.5196 1.10536 17.2652 1 17 1C16.7348 1 16.4804 1.10536 16.2929 1.29289C16.1054 1.48043 16 1.73478 16 2V3H8V2C8 1.73478 7.89464 1.48043 7.70711 1.29289C7.51957 1.10536 7.26522 1 7 1C6.73478 1 6.48043 1.10536 6.29289 1.29289C6.10536 1.48043 6 1.73478 6 2V3H5C4.20435 3 3.44129 3.31607 2.87868 3.87868C2.31607 4.44129 2 5.20435 2 6V20C2 20.7956 2.31607 21.5587 2.87868 22.1213C3.44129 22.6839 4.20435 23 5 23H19C19.7956 23 20.5587 22.6839 21.1213 22.1213C21.6839 21.5587 22 20.7956 22 20V6C22 5.20435 21.6839 4.44129 21.1213 3.87868C20.5587 3.31607 19.7956 3 19 3ZM20 20C20 20.2652 19.8946 20.5196 19.7071 20.7071C19.5196 20.8946 19.2652 21 19 21H5C4.73478 21 4.48043 20.8946 4.29289 20.7071C4.10536 20.5196 4 20.2652 4 20V11H20V20ZM20 9H4V6C4 5.73478 4.10536 5.48043 4.29289 5.29289C4.48043 5.10536 4.73478 5 5 5H6V6C6 6.26522 6.10536 6.51957 6.29289 6.70711C6.48043 6.89464 6.73478 7 7 7C7.26522 7 7.51957 6.89464 7.70711 6.70711C7.89464 6.51957 8 6.26522 8 6V5H16V6C16 6.26522 16.1054 6.51957 16.2929 6.70711C16.4804 6.89464 16.7348 7 17 7C17.2652 7 17.5196 6.89464 17.7071 6.70711C17.8946 6.51957 18 6.26522 18 6V5H19C19.2652 5 19.5196 5.10536 19.7071 5.29289C19.8946 5.48043 20 5.73478 20 6V9Z" fill="#1A88F3"/>
<path d="M11.8364 13.1178L10.1001 14.2061C10.0223 14.2789 9.98887 14.3895 10.0033 14.5406C10.0166 14.6903 10.0859 14.8327 10.2083 14.9672C10.3313 15.1025 10.4688 15.1873 10.6262 15.2233C10.7812 15.2585 10.8988 15.2393 10.9766 15.1672L11.6632 14.739V18.5654C11.6632 18.6736 11.7229 18.7719 11.8436 18.8631C11.9612 18.9545 12.1122 19 12.2934 19C12.4746 19 12.6311 18.9545 12.7622 18.8631C12.8941 18.7718 12.9601 18.6736 12.9601 18.5654V13.421C12.9601 13.2961 12.8957 13.1954 12.7686 13.1178C12.6414 13.0385 12.4833 13 12.2934 13C12.1043 13 11.9524 13.0385 11.8364 13.1178Z" fill="#1A88F3"/>
</svg>
