<svg width="24" height="24" viewBox="0 0 24 24" fill="none" xmlns="http://www.w3.org/2000/svg">
<path d="M19 3H18V2C18 1.73478 17.8946 1.48043 17.7071 1.29289C17.5196 1.10536 17.2652 1 17 1C16.7348 1 16.4804 1.10536 16.2929 1.29289C16.1054 1.48043 16 1.73478 16 2V3H8V2C8 1.73478 7.89464 1.48043 7.70711 1.29289C7.51957 1.10536 7.26522 1 7 1C6.73478 1 6.48043 1.10536 6.29289 1.29289C6.10536 1.48043 6 1.73478 6 2V3H5C4.20435 3 3.44129 3.31607 2.87868 3.87868C2.31607 4.44129 2 5.20435 2 6V20C2 20.7956 2.31607 21.5587 2.87868 22.1213C3.44129 22.6839 4.20435 23 5 23H19C19.7956 23 20.5587 22.6839 21.1213 22.1213C21.6839 21.5587 22 20.7956 22 20V6C22 5.20435 21.6839 4.44129 21.1213 3.87868C20.5587 3.31607 19.7956 3 19 3ZM20 20C20 20.2652 19.8946 20.5196 19.7071 20.7071C19.5196 20.8946 19.2652 21 19 21H5C4.73478 21 4.48043 20.8946 4.29289 20.7071C4.10536 20.5196 4 20.2652 4 20V11H20V20ZM20 9H4V6C4 5.73478 4.10536 5.48043 4.29289 5.29289C4.48043 5.10536 4.73478 5 5 5H6V6C6 6.26522 6.10536 6.51957 6.29289 6.70711C6.48043 6.89464 6.73478 7 7 7C7.26522 7 7.51957 6.89464 7.70711 6.70711C7.89464 6.51957 8 6.26522 8 6V5H16V6C16 6.26522 16.1054 6.51957 16.2929 6.70711C16.4804 6.89464 16.7348 7 17 7C17.2652 7 17.5196 6.89464 17.7071 6.70711C17.8946 6.51957 18 6.26522 18 6V5H19C19.2652 5 19.5196 5.10536 19.7071 5.29289C19.8946 5.48043 20 5.73478 20 6V9Z" fill="#1A88F3"/>
<path d="M11.7998 17.7997L13.2753 15.8306C13.2812 15.8227 13.2869 15.8148 13.2924 15.8067C13.4328 15.5985 13.528 15.3633 13.5721 15.1162C13.6161 14.869 13.608 14.6154 13.5482 14.3716C13.4885 14.1277 13.3783 13.8991 13.225 13.7004C13.0716 13.5016 12.8783 13.3372 12.6576 13.2175C12.4369 13.0979 12.1936 13.0258 11.9434 13.0057C11.6931 12.9857 11.4415 13.0183 11.2045 13.1013C10.9676 13.1843 10.7507 13.3159 10.5676 13.4877C10.3846 13.6596 10.2395 13.8678 10.1417 14.099C10.0812 14.2453 10.0809 14.4096 10.141 14.5561C10.201 14.7026 10.3166 14.8194 10.4624 14.8811C10.6082 14.9427 10.7725 14.9443 10.9194 14.8854C11.0664 14.8265 11.1841 14.7118 11.2469 14.5665C11.2793 14.49 11.3272 14.4209 11.3877 14.3639C11.4482 14.3068 11.5198 14.2629 11.5981 14.235C11.6764 14.2071 11.7597 14.1958 11.8426 14.2017C11.9255 14.2076 12.0063 14.2308 12.0798 14.2696C12.1534 14.3084 12.218 14.362 12.2697 14.4271C12.3214 14.4922 12.359 14.5674 12.3802 14.6478C12.4013 14.7282 12.4055 14.8121 12.3925 14.8942C12.3795 14.9763 12.3496 15.0548 12.3047 15.1248L10.1263 18.0315C10.0574 18.1202 10.0147 18.2264 10.0032 18.3381C9.99163 18.4499 10.0117 18.5626 10.061 18.6635C10.1104 18.7644 10.187 18.8494 10.2823 18.9089C10.3776 18.9684 10.4876 19 10.5999 19C10.6066 19 10.6132 18.9999 10.6198 18.9997H13.0001C13.1592 18.9997 13.3118 18.9365 13.4244 18.824C13.5369 18.7114 13.6001 18.5588 13.6001 18.3997C13.6001 18.2406 13.5369 18.0879 13.4244 17.9754C13.3118 17.8629 13.1592 17.7997 13.0001 17.7997H11.7998Z" fill="#1A88F3"/>
</svg>
