<svg width="24" height="24" viewBox="0 0 24 24" fill="none" xmlns="http://www.w3.org/2000/svg">
<path d="M5.07938 14.3001H6.78006L8.35402 17.3895C8.52473 17.7246 8.86899 17.9356 9.24505 17.9356H9.32444C10.0784 17.9356 10.5612 17.1329 10.2078 16.4669L8.89386 13.9903C10.0368 13.5427 10.6978 12.4411 10.6978 11.1673C10.6978 9.20494 9.35518 8 7.17252 8H3V16.9356C3 17.4878 3.44772 17.9356 4 17.9356H4.07938C4.63166 17.9356 5.07938 17.4878 5.07938 16.9356V14.3001ZM5.07938 9.62494H6.88334C7.91614 9.62494 8.56336 10.2309 8.56336 11.1948C8.56336 12.1794 7.95057 12.7509 6.90399 12.7509H5.07938V9.62494Z" fill="#1A88F3"/>
<path d="M14.755 9C14.755 8.44772 14.3073 8 13.755 8H13.6756C13.1233 8 12.6756 8.44772 12.6756 9V14.5067C12.6756 16.7031 14.3006 18.1903 16.8412 18.1903C19.3819 18.1903 21 16.7031 21 14.5067V9C21 8.44772 20.5523 8 20 8H19.9206C19.3683 8 18.9206 8.44772 18.9206 9V14.307C18.9206 15.5808 18.1701 16.407 16.8412 16.407C15.5124 16.407 14.755 15.5808 14.755 14.307V9Z" fill="#1A88F3"/>
</svg>
