<svg width="24" height="24" viewBox="0 0 24 24" fill="none" xmlns="http://www.w3.org/2000/svg">
<path d="M19 3H18V2C18 1.73478 17.8946 1.48043 17.7071 1.29289C17.5196 1.10536 17.2652 1 17 1C16.7348 1 16.4804 1.10536 16.2929 1.29289C16.1054 1.48043 16 1.73478 16 2V3H8V2C8 1.73478 7.89464 1.48043 7.70711 1.29289C7.51957 1.10536 7.26522 1 7 1C6.73478 1 6.48043 1.10536 6.29289 1.29289C6.10536 1.48043 6 1.73478 6 2V3H5C4.20435 3 3.44129 3.31607 2.87868 3.87868C2.31607 4.44129 2 5.20435 2 6V20C2 20.7956 2.31607 21.5587 2.87868 22.1213C3.44129 22.6839 4.20435 23 5 23H19C19.7956 23 20.5587 22.6839 21.1213 22.1213C21.6839 21.5587 22 20.7956 22 20V6C22 5.20435 21.6839 4.44129 21.1213 3.87868C20.5587 3.31607 19.7956 3 19 3ZM20 20C20 20.2652 19.8946 20.5196 19.7071 20.7071C19.5196 20.8946 19.2652 21 19 21H5C4.73478 21 4.48043 20.8946 4.29289 20.7071C4.10536 20.5196 4 20.2652 4 20V11H20V20ZM20 9H4V6C4 5.73478 4.10536 5.48043 4.29289 5.29289C4.48043 5.10536 4.73478 5 5 5H6V6C6 6.26522 6.10536 6.51957 6.29289 6.70711C6.48043 6.89464 6.73478 7 7 7C7.26522 7 7.51957 6.89464 7.70711 6.70711C7.89464 6.51957 8 6.26522 8 6V5H16V6C16 6.26522 16.1054 6.51957 16.2929 6.70711C16.4804 6.89464 16.7348 7 17 7C17.2652 7 17.5196 6.89464 17.7071 6.70711C17.8946 6.51957 18 6.26522 18 6V5H19C19.2652 5 19.5196 5.10536 19.7071 5.29289C19.8946 5.48043 20 5.73478 20 6V9Z" fill="#1A88F3"/>
<path d="M11.9453 18.1429C11.5092 18.1429 11.135 17.826 11.0749 17.4058C11.0693 17.3665 11.0664 17.3261 11.0664 17.2857C11.0664 17.049 10.8696 16.8571 10.627 16.8571C10.3843 16.8571 10.1875 17.049 10.1875 17.2857C10.1875 17.3655 10.1932 17.4458 10.2044 17.5243C10.3248 18.3656 11.0732 19 11.9453 19C12.9146 19 13.7031 18.231 13.7031 17.2857C13.7031 16.7741 13.4718 16.3144 13.1061 16C13.4718 15.6856 13.7031 15.2259 13.7031 14.7143C13.7031 13.769 12.9146 13 11.9453 13C11.1072 13 10.3818 13.5814 10.2205 14.3825C10.1737 14.6147 10.3289 14.84 10.567 14.8856C10.8049 14.9312 11.0361 14.7799 11.0829 14.5477C11.1635 14.1476 11.5262 13.8571 11.9453 13.8571C12.4299 13.8571 12.8242 14.2417 12.8242 14.7143C12.8242 15.1869 12.4299 15.5714 11.9453 15.5714C11.7026 15.5714 11.5059 15.7633 11.5059 16C11.5059 16.2367 11.7026 16.4286 11.9453 16.4286C12.4299 16.4286 12.8242 16.8131 12.8242 17.2857C12.8242 17.7583 12.4299 18.1429 11.9453 18.1429Z" fill="#1A88F3"/>
</svg>
