<svg width="24" height="24" viewBox="0 0 24 24" fill="none" xmlns="http://www.w3.org/2000/svg">
<path d="M12 1C9.82441 1 7.69767 1.64514 5.88873 2.85383C4.07979 4.06253 2.66989 5.78049 1.83733 7.79048C1.00477 9.80047 0.786929 12.0122 1.21137 14.146C1.6358 16.2798 2.68345 18.2398 4.22183 19.7782C5.76021 21.3166 7.72022 22.3642 9.85401 22.7886C11.9878 23.2131 14.1995 22.9952 16.2095 22.1627C18.2195 21.3301 19.9375 19.9202 21.1462 18.1113C22.3549 16.3023 23 14.1756 23 12C23 9.08262 21.8411 6.28473 19.7782 4.22183C17.7153 2.15893 14.9174 1 12 1ZM12 21C10.22 21 8.47992 20.4722 6.99987 19.4832C5.51983 18.4943 4.36628 17.0887 3.68509 15.4442C3.0039 13.7996 2.82567 11.99 3.17294 10.2442C3.5202 8.49836 4.37737 6.89471 5.63604 5.63604C6.89472 4.37737 8.49836 3.5202 10.2442 3.17293C11.99 2.82567 13.7996 3.0039 15.4442 3.68508C17.0887 4.36627 18.4943 5.51983 19.4832 6.99987C20.4722 8.47991 21 10.22 21 12C21 14.3869 20.0518 16.6761 18.364 18.364C16.6761 20.0518 14.387 21 12 21Z" fill="#1A88F3"/>
<path d="M6.0462 14.8812H9.35314V14.1749H7.19802V14.1056L8.15182 13.1815C9.0198 12.3465 9.28053 11.9175 9.28053 11.3762V11.3663C9.28053 10.5644 8.61386 10 7.68647 10C6.69307 10 6 10.6205 6 11.5083L6.0033 11.5182L6.79538 11.5215L6.79868 11.5083C6.79868 11.0165 7.13861 10.6832 7.64356 10.6832C8.13861 10.6832 8.43894 11 8.43894 11.4389V11.4488C8.43894 11.8152 8.25743 12.0561 7.61056 12.7096L6.0462 14.3069V14.8812Z" fill="#1A88F3"/>
<path d="M11.9645 15C12.9942 15 13.717 14.3234 13.717 13.3333V13.3267C13.717 12.4158 13.0734 11.7558 12.1856 11.7558C11.7368 11.7558 11.3671 11.9472 11.1691 12.2673H11.113L11.245 10.8185H13.4398V10.1188H10.5817L10.3506 12.9076H11.08C11.1361 12.802 11.2153 12.7096 11.3011 12.637C11.4761 12.4785 11.7071 12.3993 11.9744 12.3993C12.519 12.3993 12.9084 12.7888 12.9084 13.3432V13.3498C12.9084 13.9109 12.5256 14.3036 11.9678 14.3036C11.4794 14.3036 11.1196 13.9934 11.0569 13.604L11.0536 13.5809H10.2681L10.2714 13.6238C10.3341 14.4059 10.9909 15 11.9645 15Z" fill="#1A88F3"/>
<path d="M16.3152 15C17.4472 15 18.1336 14.0396 18.1336 12.5017V12.495C18.1336 10.9571 17.4472 10 16.3152 10C15.1831 10 14.5033 10.9571 14.5033 12.495V12.5017C14.5033 14.0396 15.1831 15 16.3152 15ZM16.3152 14.3102C15.7079 14.3102 15.3614 13.6304 15.3614 12.5017V12.495C15.3614 11.3663 15.7079 10.6931 16.3152 10.6931C16.9224 10.6931 17.2756 11.3663 17.2756 12.495V12.5017C17.2756 13.6304 16.9224 14.3102 16.3152 14.3102Z" fill="#1A88F3"/>
</svg>
