<svg width="24" height="24" viewBox="0 0 24 24" fill="none" xmlns="http://www.w3.org/2000/svg">
<path d="M12 1C9.82441 1 7.69767 1.64514 5.88873 2.85383C4.07979 4.06253 2.66989 5.78049 1.83733 7.79048C1.00477 9.80047 0.786929 12.0122 1.21137 14.146C1.6358 16.2798 2.68345 18.2398 4.22183 19.7782C5.76021 21.3166 7.72022 22.3642 9.85401 22.7886C11.9878 23.2131 14.1995 22.9952 16.2095 22.1627C18.2195 21.3301 19.9375 19.9202 21.1462 18.1113C22.3549 16.3023 23 14.1756 23 12C23 9.08262 21.8411 6.28473 19.7782 4.22183C17.7153 2.15893 14.9174 1 12 1ZM12 21C10.22 21 8.47992 20.4722 6.99987 19.4832C5.51983 18.4943 4.36628 17.0887 3.68509 15.4442C3.0039 13.7996 2.82567 11.99 3.17294 10.2442C3.5202 8.49836 4.37737 6.89471 5.63604 5.63604C6.89472 4.37737 8.49836 3.5202 10.2442 3.17293C11.99 2.82567 13.7996 3.0039 15.4442 3.68508C17.0887 4.36627 18.4943 5.51983 19.4832 6.99987C20.4722 8.47991 21 10.22 21 12C21 14.3869 20.0518 16.6761 18.364 18.364C16.6761 20.0518 14.387 21 12 21Z" fill="#1A88F3"/>
<path d="M5.03478 13.7665H7.52423V13.2348H5.90187V13.1826L6.61988 12.487C7.2733 11.8584 7.46957 11.5354 7.46957 11.128V11.1205C7.46957 10.5168 6.96771 10.0919 6.26957 10.0919C5.52174 10.0919 5 10.559 5 11.2273L5.00248 11.2348L5.59876 11.2373L5.60124 11.2273C5.60124 10.8571 5.85715 10.6062 6.23727 10.6062C6.60994 10.6062 6.83603 10.8447 6.83603 11.1752V11.1826C6.83603 11.4584 6.69938 11.6398 6.21243 12.1317L5.03478 13.3342V13.7665Z" fill="#1A88F3"/>
<path d="M9.49007 13.8559C10.2652 13.8559 10.8093 13.3466 10.8093 12.6012V12.5963C10.8093 11.9106 10.3248 11.4137 9.65653 11.4137C9.31864 11.4137 9.04037 11.5578 8.89131 11.7988H8.84907L8.94845 10.7081H10.6006V10.1814H8.44907L8.27515 12.2808H8.82422C8.86646 12.2012 8.92609 12.1317 8.99068 12.077C9.12236 11.9578 9.29628 11.8981 9.49752 11.8981C9.90746 11.8981 10.2006 12.1913 10.2006 12.6087V12.6137C10.2006 13.036 9.91243 13.3317 9.49255 13.3317C9.12485 13.3317 8.85404 13.0981 8.80683 12.805L8.80435 12.7876H8.21304L8.21553 12.8199C8.26273 13.4087 8.75714 13.8559 9.49007 13.8559Z" fill="#1A88F3"/>
<path d="M12.7205 10H12.1441L11.0758 14.6683H11.6522L12.7205 10Z" fill="#1A88F3"/>
<path d="M14.3559 13.8559C15.1311 13.8559 15.6752 13.3466 15.6752 12.6012V12.5963C15.6752 11.9106 15.1907 11.4137 14.5224 11.4137C14.1845 11.4137 13.9062 11.5578 13.7571 11.7988H13.7149L13.8143 10.7081H15.4665V10.1814H13.3149L13.141 12.2808H13.6901C13.7323 12.2012 13.7919 12.1317 13.8565 12.077C13.9882 11.9578 14.1621 11.8981 14.3634 11.8981C14.7733 11.8981 15.0665 12.1913 15.0665 12.6087V12.6137C15.0665 13.036 14.7783 13.3317 14.3584 13.3317C13.9907 13.3317 13.7199 13.0981 13.6727 12.805L13.6702 12.7876H13.0789L13.0814 12.8199C13.1286 13.4087 13.623 13.8559 14.3559 13.8559Z" fill="#1A88F3"/>
<path d="M17.6311 13.8559C18.4832 13.8559 19 13.1329 19 11.9752V11.9702C19 10.8124 18.4832 10.0919 17.6311 10.0919C16.7789 10.0919 16.2671 10.8124 16.2671 11.9702V11.9752C16.2671 13.1329 16.7789 13.8559 17.6311 13.8559ZM17.6311 13.3367C17.1739 13.3367 16.913 12.8249 16.913 11.9752V11.9702C16.913 11.1205 17.1739 10.6137 17.6311 10.6137C18.0882 10.6137 18.354 11.1205 18.354 11.9702V11.9752C18.354 12.8249 18.0882 13.3367 17.6311 13.3367Z" fill="#1A88F3"/>
</svg>
