<svg width="24" height="24" viewBox="0 0 24 24" fill="none" xmlns="http://www.w3.org/2000/svg">
<path d="M7.41999 15.54C7.23374 15.7274 7.1292 15.9808 7.1292 16.245C7.1292 16.5092 7.23374 16.7626 7.41999 16.95C7.51295 17.0437 7.62355 17.1181 7.74541 17.1689C7.86727 17.2197 7.99798 17.2458 8.12999 17.2458C8.262 17.2458 8.39271 17.2197 8.51457 17.1689C8.63643 17.1181 8.74703 17.0437 8.83999 16.95C9.02624 16.7626 9.13078 16.5092 9.13078 16.245C9.13078 15.9808 9.02624 15.7274 8.83999 15.54C8.74703 15.4463 8.63643 15.3719 8.51457 15.3211C8.39271 15.2703 8.262 15.2442 8.12999 15.2442C7.99798 15.2442 7.86727 15.2703 7.74541 15.3211C7.62355 15.3719 7.51295 15.4463 7.41999 15.54ZM7.41999 7.05C7.23374 7.23736 7.1292 7.49082 7.1292 7.755C7.1292 8.01919 7.23374 8.27264 7.41999 8.46C7.51295 8.55373 7.62355 8.62812 7.74541 8.67889C7.86727 8.72966 7.99798 8.7558 8.12999 8.7558C8.262 8.7558 8.39271 8.72966 8.51457 8.67889C8.63643 8.62812 8.74703 8.55373 8.83999 8.46C9.02624 8.27264 9.13078 8.01919 9.13078 7.755C9.13078 7.49082 9.02624 7.23736 8.83999 7.05C8.74703 6.95627 8.63643 6.88188 8.51457 6.83111C8.39271 6.78034 8.262 6.7542 8.12999 6.7542C7.99798 6.7542 7.86727 6.78034 7.74541 6.83111C7.62355 6.88188 7.51295 6.95627 7.41999 7.05ZM12.37 17.05C12.1722 17.05 11.9789 17.1087 11.8144 17.2185C11.65 17.3284 11.5218 17.4846 11.4461 17.6673C11.3704 17.85 11.3506 18.0511 11.3892 18.2451C11.4278 18.4391 11.523 18.6173 11.6629 18.7571C11.8027 18.897 11.9809 18.9922 12.1749 19.0308C12.3689 19.0694 12.5699 19.0496 12.7527 18.9739C12.9354 18.8982 13.0916 18.77 13.2015 18.6056C13.3113 18.4411 13.37 18.2478 13.37 18.05C13.3768 17.9145 13.3559 17.7791 13.3087 17.6519C13.2615 17.5248 13.1889 17.4086 13.0954 17.3103C13.0018 17.2121 12.8893 17.134 12.7646 17.0806C12.6399 17.0273 12.5056 16.9998 12.37 17V17.05ZM6.36999 11.05C6.17221 11.05 5.97887 11.1087 5.81442 11.2185C5.64997 11.3284 5.5218 11.4846 5.44611 11.6673C5.37042 11.85 5.35062 12.0511 5.3892 12.2451C5.42779 12.4391 5.52303 12.6173 5.66288 12.7571C5.80274 12.897 5.98092 12.9922 6.1749 13.0308C6.36888 13.0694 6.56995 13.0496 6.75267 12.9739C6.9354 12.8982 7.09158 12.77 7.20146 12.6056C7.31134 12.4411 7.36999 12.2478 7.36999 12.05C7.37677 11.9145 7.35592 11.7791 7.30871 11.6519C7.26151 11.5248 7.18892 11.4086 7.09538 11.3103C7.00184 11.2121 6.88929 11.134 6.76459 11.0806C6.63988 11.0273 6.50563 10.9998 6.36999 11V11.05ZM12.37 5.05C12.1722 5.05 11.9789 5.10865 11.8144 5.21853C11.65 5.32841 11.5218 5.48459 11.4461 5.66732C11.3704 5.85004 11.3506 6.05111 11.3892 6.24509C11.4278 6.43907 11.523 6.61726 11.6629 6.75711C11.8027 6.89696 11.9809 6.9922 12.1749 7.03079C12.3689 7.06937 12.5699 7.04957 12.7527 6.97388C12.9354 6.89819 13.0916 6.77002 13.2015 6.60557C13.3113 6.44112 13.37 6.24778 13.37 6.05C13.3768 5.91453 13.3559 5.7791 13.3087 5.65195C13.2615 5.52479 13.1889 5.40857 13.0954 5.31035C13.0018 5.21213 12.8893 5.13396 12.7646 5.08061C12.6399 5.02726 12.5056 4.99983 12.37 5V5.05ZM15.91 7.1C15.7695 7.23962 15.6737 7.41779 15.6346 7.61193C15.5956 7.80607 15.615 8.00745 15.6905 8.19052C15.7661 8.37359 15.8942 8.53012 16.0588 8.64026C16.2234 8.75041 16.417 8.80921 16.615 8.80921C16.813 8.80921 17.0066 8.75041 17.1712 8.64026C17.3358 8.53012 17.4639 8.37359 17.5394 8.19052C17.615 8.00745 17.6344 7.80607 17.5953 7.61193C17.5563 7.41779 17.4604 7.23962 17.32 7.1C17.1393 6.90696 16.8895 6.79332 16.6253 6.78395C16.3611 6.77458 16.1039 6.87024 15.91 7.05V7.1ZM22.21 7.1C21.2957 5.2723 19.8904 3.73542 18.1516 2.6617C16.4128 1.58798 14.4092 1.01988 12.3656 1.0211C10.322 1.02233 8.31911 1.59282 6.58157 2.66862C4.84404 3.74441 3.44054 5.28297 2.52847 7.11176C1.6164 8.94056 1.23181 10.9873 1.41783 13.0224C1.60386 15.0575 2.35314 17.0006 3.58166 18.6337C4.81017 20.2669 6.46935 21.5255 8.37313 22.2684C10.2769 23.0114 12.35 23.2093 14.36 22.84C14.8654 22.7449 15.3468 22.55 15.7761 22.2667C16.2054 21.9834 16.5738 21.6174 16.86 21.19C17.1683 20.7254 17.3811 20.204 17.4858 19.6564C17.5905 19.1087 17.5852 18.5456 17.47 18C17.407 17.6703 17.3736 17.3356 17.37 17C17.3744 16.031 17.6602 15.0841 18.1929 14.2745C18.7255 13.465 19.4818 12.8276 20.37 12.44C20.8489 12.2256 21.2787 11.9153 21.633 11.5283C21.9873 11.1414 22.2586 10.6859 22.43 10.19C22.6034 9.68329 22.6733 9.14691 22.6355 8.61268C22.5977 8.07846 22.453 7.55726 22.21 7.08V7.1ZM20.51 9.54C20.4247 9.77932 20.2922 9.99909 20.1204 10.1863C19.9487 10.3735 19.7411 10.5244 19.51 10.63C18.28 11.1806 17.235 12.0745 16.5006 13.2045C15.7663 14.3345 15.3737 15.6524 15.37 17C15.3715 17.4701 15.4184 17.9389 15.51 18.4C15.5711 18.6818 15.5751 18.973 15.5219 19.2564C15.4686 19.5397 15.3592 19.8096 15.2 20.05C15.0653 20.2604 14.8881 20.4403 14.6797 20.5781C14.4713 20.7158 14.2363 20.8085 13.99 20.85C13.4558 20.9504 12.9135 21.0006 12.37 21C11.1642 21.0006 9.9705 20.7588 8.85991 20.2891C7.74932 19.8194 6.74444 19.1314 5.90495 18.2658C5.06546 17.4001 4.40847 16.3747 3.97301 15.2502C3.53754 14.1257 3.33247 12.9252 3.36999 11.72C3.4476 9.47279 4.359 7.33495 5.92662 5.72296C7.49424 4.11097 9.60582 3.14028 11.85 3H12.36C14.0357 3.00042 15.6781 3.46869 17.1021 4.35207C18.5261 5.23545 19.6752 6.49885 20.42 8C20.6492 8.47498 20.6816 9.02129 20.51 9.52V9.54ZM12.37 11C12.1722 11 11.9789 11.0587 11.8144 11.1685C11.65 11.2784 11.5218 11.4346 11.4461 11.6173C11.3704 11.8 11.3506 12.0011 11.3892 12.1951C11.4278 12.3891 11.523 12.5673 11.6629 12.7071C11.8027 12.847 11.9809 12.9422 12.1749 12.9808C12.3689 13.0194 12.5699 12.9996 12.7527 12.9239C12.9354 12.8482 13.0916 12.72 13.2015 12.5556C13.3113 12.3911 13.37 12.1978 13.37 12C13.37 11.7348 13.2646 11.4804 13.0771 11.2929C12.8896 11.1054 12.6352 11 12.37 11Z" fill="#1A88F3"/>
</svg>
