<svg viewBox="0 0 30 30" fill="none" xmlns="http://www.w3.org/2000/svg">
<path d="M19.2925 4.00086C15.5881 4.00086 12.585 5.65691 12.585 7.70272C12.585 9.74854 15.5889 11.4054 19.2925 11.4054C22.997 11.4054 26 9.74854 26 7.70272C26 5.65691 22.9961 4 19.2925 4V4.00086ZM26 8.80247C25.9983 10.8483 22.997 12.5052 19.2925 12.5052C15.5984 12.5052 12.6022 10.8663 12.585 8.82994V10.2782C12.585 11.1522 13.1448 11.9523 14.0617 12.5859C14.9888 12.8383 15.8147 13.1886 16.5024 13.6315C17.3549 13.8479 18.2924 13.9801 19.2925 13.9801C22.997 13.9801 26 12.324 26 10.2782V8.80247ZM26 11.378C26 13.4238 22.997 15.0807 19.2925 15.0807C18.8418 15.0807 18.404 15.0472 17.9781 15C18.3142 15.4525 18.5434 15.9753 18.6486 16.529C18.8624 16.541 19.0736 16.5556 19.2925 16.5556C22.997 16.5556 26 14.8996 26 12.8537V11.378ZM10.7075 13.4435C7.00304 13.4435 4 15.1004 4 17.1463C4 19.1921 7.0039 20.849 10.7075 20.849C14.4119 20.849 17.415 19.1921 17.415 17.1463C17.415 15.1004 14.4111 13.4435 10.7075 13.4435ZM26 13.9535C25.9983 15.9993 22.997 17.6562 19.2925 17.6562C19.077 17.6562 18.859 17.6408 18.6486 17.6287C18.6392 17.6931 18.634 17.779 18.622 17.8434C18.6649 17.973 18.7019 18.1009 18.7019 18.2469V19.1054C18.8967 19.1148 19.0925 19.1311 19.2925 19.1311C22.997 19.1311 26 17.4751 26 15.4293V13.9535ZM26 16.529C25.9983 18.5748 22.997 20.2317 19.2925 20.2317C19.077 20.2317 18.859 20.2163 18.6486 20.2042C18.6392 20.2686 18.634 20.3545 18.622 20.4189C18.6649 20.5476 18.7019 20.6764 18.7019 20.8224V21.6809C18.8967 21.6903 19.0925 21.7066 19.2925 21.7066C22.997 21.7066 26 20.0506 26 18.0048V16.529ZM17.415 18.246C17.4133 20.2918 14.4119 21.9487 10.7075 21.9487C7.01335 21.9487 4.01717 20.3098 4 18.2726V19.7218C4 21.7676 7.00219 23.4245 10.7075 23.4245C14.4128 23.4245 17.415 21.7676 17.415 19.7218V18.246ZM17.415 20.8215C17.4133 22.8673 14.4119 24.5242 10.7075 24.5242C7.01335 24.5242 4.01717 22.8854 4 20.8481V22.2973C4 24.3431 7.00219 26 10.7075 26C14.4128 26 17.415 24.3431 17.415 22.2973V20.8215Z" fill="#5C72A3" fill-opacity="0.5"/>
</svg>
