<svg viewBox="0 0 30 30" fill="none" xmlns="http://www.w3.org/2000/svg">
<circle cx="15.5" cy="15.5" r="13.5" fill="#5C72A3" fill-opacity="0.5"/>
<path d="M16.6147 14.3849C16.0231 13.7936 15.221 13.4614 14.3846 13.4614C13.5483 13.4614 12.7461 13.7936 12.1546 14.3849L9.92386 16.6151C9.33232 17.2066 9 18.009 9 18.8456C9 19.6822 9.33232 20.4845 9.92386 21.0761C10.5154 21.6677 11.3177 22 12.1542 22C12.9908 22 13.7931 21.6677 14.3846 21.0761L15.4996 19.961M14.3853 16.6151C14.9769 17.2064 15.779 17.5386 16.6154 17.5386C17.4517 17.5386 18.2539 17.2064 18.8454 16.6151L21.0761 14.3849C21.6677 13.7934 22 12.991 22 12.1544C22 11.3178 21.6677 10.5155 21.0761 9.92391C20.4846 9.33234 19.6823 9 18.8458 9C18.0092 9 17.2069 9.33234 16.6154 9.92391L15.5003 11.039" stroke="white" stroke-width="1.3" stroke-linecap="round" stroke-linejoin="round"/>
<path fill-rule="evenodd" clip-rule="evenodd" d="M22.0821 18.288C22.0823 17.9631 21.8214 17.6997 21.4992 17.6997C21.1771 17.6997 20.9157 17.9631 20.9154 18.288L20.9141 19.9184L19.2875 19.917C18.9626 19.9168 18.6992 20.1767 18.6992 20.4976C18.6992 20.8185 18.9626 21.0789 19.2875 21.0791L20.9131 21.0805L20.9118 22.7114C20.9115 23.0363 21.1725 23.2997 21.4947 23.2997C21.8168 23.2997 22.0782 23.0363 22.0785 22.7114L22.0798 21.0814L23.7109 21.0828C24.0358 21.083 24.2992 20.8231 24.2992 20.5022C24.2992 20.1813 24.0358 19.9209 23.7109 19.9206L22.0807 19.9193L22.0821 18.288Z" fill="white"/>
</svg>
