<svg viewBox="0 0 30 30" fill="none" xmlns="http://www.w3.org/2000/svg">
<path d="M24.8542 9.42289C21.6843 4.19367 16.909 7.83171 16.909 7.83171C16.5993 8.06672 16.0282 8.25995 15.6402 8.26085L14.3611 8.26174C13.9731 8.26219 13.402 8.06897 13.0928 7.83395C13.0928 7.83395 8.31702 4.19502 5.14662 9.42424C1.97711 14.6517 3.2544 20.3446 3.2544 20.3446C3.47817 21.7385 4.21572 22.6687 5.60759 22.5519C6.99542 22.4355 10.0078 18.7979 10.0078 18.7979C10.2567 18.4982 10.7781 18.2533 11.1652 18.2533L18.8334 18.252C19.221 18.252 19.7419 18.4969 19.9903 18.7966C19.9903 18.7966 23.0032 22.4342 24.3933 22.5505C25.7833 22.6674 26.5227 21.7363 26.7451 20.3433C26.7446 20.3433 28.0242 14.6512 24.8542 9.42289ZM12.1185 13.6792H10.4742V15.2704C10.4742 15.2704 10.126 15.5374 9.58715 15.5306C9.0492 15.5225 8.80574 15.2394 8.80574 15.2394V13.6797H7.25276C7.25276 13.6797 7.05897 13.4802 7.00706 12.9549C6.95604 12.4296 7.22143 12.0049 7.22143 12.0049H8.86616V10.354C8.86616 10.354 9.2045 10.172 9.69098 10.1859C10.1779 10.2012 10.5346 10.385 10.5346 10.385L10.5279 12.0045H12.0809C12.0809 12.0045 12.3521 12.3541 12.3745 12.7765C12.3968 13.1993 12.1185 13.6792 12.1185 13.6792ZM19.6605 15.4929C18.9404 15.4929 18.3599 14.9083 18.3599 14.1861C18.3599 13.4627 18.9404 12.8794 19.6605 12.8794C20.3774 12.8794 20.9624 13.4627 20.9624 14.1861C20.9624 14.9087 20.3774 15.4929 19.6605 15.4929ZM19.6605 11.8975C18.9404 11.8975 18.3599 11.3134 18.3599 10.5912C18.3599 9.86776 18.9404 9.28449 19.6605 9.28449C20.3774 9.28449 20.9624 9.86776 20.9624 10.5912C20.9624 11.3138 20.3774 11.8975 19.6605 11.8975ZM22.9016 13.8275C22.1815 13.8275 21.601 13.2434 21.601 12.5208C21.601 11.7978 22.1815 11.214 22.9016 11.214C23.6186 11.214 24.2035 11.7978 24.2035 12.5208C24.2035 13.2434 23.6186 13.8275 22.9016 13.8275Z" fill="#5C72A3" fill-opacity="0.5"/>
</svg>
