<svg viewBox="0 0 36 34" fill="none" xmlns="http://www.w3.org/2000/svg">
    <path opacity="0.8" d="M25.7496 13.7895C25.1516 13.7895 24.6657 13.3036 24.6657 12.7056C24.6657 9.66687 23.4827 6.81012 21.3345 4.66187C20.912 4.23937 20.912 3.55362 21.3345 3.1295C21.757 2.70537 22.4427 2.707 22.8668 3.1295C25.4246 5.68725 26.8335 9.08837 26.8335 12.7056C26.8318 13.3036 26.3476 13.7895 25.7496 13.7895Z" fill="#5C72A3" fill-opacity="0.5"/>
    <path opacity="0.8" d="M4.08387 13.7894C3.48587 13.7894 3 13.3035 3 12.7055C3 9.08825 4.40888 5.68713 6.96663 3.12938C7.38913 2.70687 8.07488 2.70687 8.499 3.12938C8.92313 3.55188 8.9215 4.23762 8.499 4.66175C6.35075 6.81 5.16775 9.66675 5.16775 12.7055C5.16775 13.3035 4.68187 13.7894 4.08387 13.7894Z" fill="#5C72A3" fill-opacity="0.5"/>
    <path opacity="0.8" d="M25.0829 20.3219C23.4449 18.9374 22.5056 16.9126 22.5056 14.7693V11.75C22.5056 7.93775 19.6733 4.782 16.0056 4.25388V3.08387C16.0056 2.48425 15.5198 2 14.9218 2C14.3238 2 13.8379 2.48425 13.8379 3.08387V4.25388C10.1686 4.782 7.33789 7.93775 7.33789 11.75V14.7709C7.33789 16.9143 6.39864 18.9374 4.75089 20.3316C4.33002 20.6924 4.08789 21.2173 4.08789 21.7714C4.08789 22.8163 4.93777 23.6678 5.98427 23.6678H23.8593C24.9041 23.6678 25.7556 22.8179 25.7556 21.7714C25.7556 21.2173 25.5135 20.6924 25.0829 20.3219Z" fill="#5C72A3" fill-opacity="0.5"/>
    <path opacity="0.8" d="M14.9207 28C16.8821 28 18.5233 26.6025 18.9003 24.75H10.9395C11.3181 26.6025 12.9593 28 14.9207 28Z" fill="#5C72A3" fill-opacity="0.5"/>
    <g opacity="0.8">
        <mask id="path-5" maskUnits="userSpaceOnUse" x="16.3181" y="13.8929" width="21.2132" height="21.2132" fill="black">
            <rect fill="white" x="16.3181" y="13.8929" width="21.2132" height="21.2132"/>
            <path fill-rule="evenodd" clip-rule="evenodd" d="M24.3614 20.8297C23.9351 20.4027 23.2465 20.3995 22.8234 20.8226C22.4004 21.2456 22.403 21.9348 22.8294 22.3618L24.9686 24.5045L22.8309 26.6387C22.4039 27.0651 22.3993 27.7523 22.8207 28.1738C23.2421 28.5952 23.93 28.5912 24.357 28.1648L26.4934 26.0319L28.6334 28.1753C29.0597 28.6023 29.7483 28.6055 30.1713 28.1825C30.5944 27.7594 30.5918 27.0702 30.1654 26.6432L28.0268 24.5011L30.1705 22.3609C30.5975 21.9345 30.6021 21.2473 30.1806 20.8258C29.7592 20.4044 29.0714 20.4084 28.6444 20.8348L26.5019 22.9737L24.3614 20.8297Z"/>
        </mask>
        <path fill-rule="evenodd" clip-rule="evenodd" d="M24.3614 20.8297C23.9351 20.4027 23.2465 20.3995 22.8234 20.8226C22.4004 21.2456 22.403 21.9348 22.8294 22.3618L24.9686 24.5045L22.8309 26.6387C22.4039 27.0651 22.3993 27.7523 22.8207 28.1738C23.2421 28.5952 23.93 28.5912 24.357 28.1648L26.4934 26.0319L28.6334 28.1753C29.0597 28.6023 29.7483 28.6055 30.1713 28.1825C30.5944 27.7594 30.5918 27.0702 30.1654 26.6432L28.0268 24.5011L30.1705 22.3609C30.5975 21.9345 30.6021 21.2473 30.1806 20.8258C29.7592 20.4044 29.0714 20.4084 28.6444 20.8348L26.5019 22.9737L24.3614 20.8297Z" fill="#5C72A3" fill-opacity="0.5"/>
        <path d="M24.3614 20.8297L25.7768 19.4167L25.7768 19.4167L24.3614 20.8297ZM22.8294 22.3618L21.414 23.7749L21.414 23.7749L22.8294 22.3618ZM24.9686 24.5045L26.3817 25.9199C26.757 25.5451 26.9682 25.0366 26.9686 24.5062C26.969 23.9757 26.7587 23.4669 26.384 23.0915L24.9686 24.5045ZM22.8309 26.6387L21.4178 25.2234L21.4178 25.2234L22.8309 26.6387ZM24.357 28.1648L22.9439 26.7495L22.9439 26.7495L24.357 28.1648ZM26.4934 26.0319L27.9088 24.6188C27.1284 23.8371 25.8621 23.8361 25.0804 24.6165L26.4934 26.0319ZM28.6334 28.1753L30.0487 26.7622L28.6334 28.1753ZM30.1654 26.6432L28.75 28.0563L28.7501 28.0563L30.1654 26.6432ZM28.0268 24.5011L26.6137 23.0857C26.2383 23.4605 26.0272 23.969 26.0268 24.4994C26.0263 25.0299 26.2366 25.5387 26.6114 25.9141L28.0268 24.5011ZM30.1705 22.3609L31.5835 23.7762L31.5835 23.7762L30.1705 22.3609ZM28.6444 20.8348L27.2313 19.4194L28.6444 20.8348ZM26.5019 22.9737L25.0866 24.3868C25.867 25.1685 27.1333 25.1695 27.915 24.3891L26.5019 22.9737ZM24.2377 22.2368C23.8679 22.6066 23.2892 22.5865 22.9461 22.2428L25.7768 19.4167C24.581 18.2189 22.6252 18.1924 21.4092 19.4083L24.2377 22.2368ZM24.2447 20.9487C24.587 21.2916 24.6065 21.8679 24.2377 22.2368L21.4092 19.4083C20.1942 20.6233 20.2191 22.578 21.414 23.7749L24.2447 20.9487ZM26.384 23.0915L24.2447 20.9487L21.414 23.7749L23.5532 25.9176L26.384 23.0915ZM24.244 28.0541L26.3817 25.9199L23.5555 23.0892L21.4178 25.2234L24.244 28.0541ZM24.2349 26.7595C24.6116 27.1362 24.5824 27.7162 24.244 28.0541L21.4178 25.2234C20.2253 26.4139 20.187 28.3685 21.4065 29.588L24.2349 26.7595ZM22.9439 26.7495C23.2815 26.4125 23.8592 26.3838 24.2349 26.7595L21.4065 29.588C22.625 30.8065 24.5784 30.7699 25.7701 29.5802L22.9439 26.7495ZM25.0804 24.6165L22.9439 26.7495L25.77 29.5802L27.9065 27.4472L25.0804 24.6165ZM30.0487 26.7622L27.9088 24.6188L25.0781 27.4449L27.218 29.5883L30.0487 26.7622ZM28.7571 26.7683C29.1269 26.3985 29.7056 26.4185 30.0487 26.7622L27.218 29.5883C28.4138 30.7861 30.3696 30.8126 31.5856 29.5967L28.7571 26.7683ZM28.7501 28.0563C28.4078 27.7135 28.3883 27.1371 28.7571 26.7683L31.5856 29.5967C32.8006 28.3817 32.7757 26.427 31.5808 25.2301L28.7501 28.0563ZM26.6114 25.9141L28.75 28.0563L31.5808 25.2302L29.4421 23.088L26.6114 25.9141ZM28.7574 20.9455L26.6137 23.0857L29.4398 25.9164L31.5835 23.7762L28.7574 20.9455ZM28.7664 22.2401C28.3898 21.8634 28.419 21.2834 28.7574 20.9455L31.5835 23.7762C32.776 22.5857 32.8143 20.6311 31.5949 19.4116L28.7664 22.2401ZM30.0574 22.2501C29.7199 22.5871 29.1421 22.6158 28.7664 22.2401L31.5949 19.4116C30.3763 18.1931 28.423 18.2297 27.2313 19.4194L30.0574 22.2501ZM27.915 24.3891L30.0574 22.2501L27.2313 19.4194L25.0889 21.5584L27.915 24.3891ZM22.9461 22.2428L25.0866 24.3868L27.9173 21.5607L25.7768 19.4167L22.9461 22.2428Z" fill="#F5F5F5" mask="url(#path-5)"/>
    </g>
</svg>
