<svg viewBox="0 0 34 32" fill="none" xmlns="http://www.w3.org/2000/svg">
    <path opacity="0.8" d="M25.7496 13.7895C25.1516 13.7895 24.6657 13.3036 24.6657 12.7056C24.6657 9.66687 23.4827 6.81012 21.3345 4.66187C20.912 4.23937 20.912 3.55362 21.3345 3.1295C21.757 2.70537 22.4427 2.707 22.8668 3.1295C25.4246 5.68725 26.8335 9.08837 26.8335 12.7056C26.8318 13.3036 26.3476 13.7895 25.7496 13.7895Z" fill="#5C72A3" fill-opacity="0.5"/>
    <path opacity="0.8" d="M4.08387 13.7894C3.48587 13.7894 3 13.3035 3 12.7055C3 9.08825 4.40888 5.68713 6.96663 3.12938C7.38913 2.70687 8.07488 2.70687 8.499 3.12938C8.92313 3.55188 8.9215 4.23762 8.499 4.66175C6.35075 6.81 5.16775 9.66675 5.16775 12.7055C5.16775 13.3035 4.68187 13.7894 4.08387 13.7894Z" fill="#5C72A3" fill-opacity="0.5"/>
    <path opacity="0.8" d="M25.0829 20.3219C23.4449 18.9374 22.5056 16.9126 22.5056 14.7693V11.75C22.5056 7.93775 19.6733 4.782 16.0056 4.25388V3.08387C16.0056 2.48425 15.5198 2 14.9218 2C14.3238 2 13.8379 2.48425 13.8379 3.08387V4.25388C10.1686 4.782 7.33789 7.93775 7.33789 11.75V14.7709C7.33789 16.9143 6.39864 18.9374 4.75089 20.3316C4.33002 20.6924 4.08789 21.2173 4.08789 21.7714C4.08789 22.8163 4.93777 23.6678 5.98427 23.6678H23.8593C24.9041 23.6678 25.7556 22.8179 25.7556 21.7714C25.7556 21.2173 25.5135 20.6924 25.0829 20.3219Z" fill="#5C72A3" fill-opacity="0.5"/>
    <path opacity="0.8" d="M14.9207 28C16.8821 28 18.5233 26.6025 18.9003 24.75H10.9395C11.3181 26.6025 12.9593 28 14.9207 28Z" fill="#5C72A3" fill-opacity="0.5"/>
    <g opacity="0.8">
        <mask id="path-5" maskUnits="userSpaceOnUse" x="19.3008" y="17.2998" width="15" height="15" fill="black">
            <rect fill="white" x="19.3008" y="17.2998" width="15" height="15"/>
            <path fill-rule="evenodd" clip-rule="evenodd" d="M27.5832 20.3924C27.5837 19.789 27.0991 19.2998 26.5008 19.2998C25.9025 19.2998 25.4171 19.789 25.4166 20.3924L25.4141 23.4202L22.3934 23.4178C21.79 23.4173 21.3008 23.9 21.3008 24.496C21.3008 25.0919 21.79 25.5755 22.3934 25.576L25.4123 25.5784L25.4099 28.6072C25.4094 29.2106 25.894 29.6998 26.4923 29.6998C27.0906 29.6998 27.576 29.2106 27.5765 28.6072L27.579 25.5802L30.6082 25.5827C31.2116 25.5832 31.7008 25.1004 31.7008 24.5045C31.7008 23.9085 31.2116 23.425 30.6082 23.4245L27.5808 23.422L27.5832 20.3924Z"/>
        </mask>
        <path fill-rule="evenodd" clip-rule="evenodd" d="M27.5832 20.3924C27.5837 19.789 27.0991 19.2998 26.5008 19.2998C25.9025 19.2998 25.4171 19.789 25.4166 20.3924L25.4141 23.4202L22.3934 23.4178C21.79 23.4173 21.3008 23.9 21.3008 24.496C21.3008 25.0919 21.79 25.5755 22.3934 25.576L25.4123 25.5784L25.4099 28.6072C25.4094 29.2106 25.894 29.6998 26.4923 29.6998C27.0906 29.6998 27.576 29.2106 27.5765 28.6072L27.579 25.5802L30.6082 25.5827C31.2116 25.5832 31.7008 25.1004 31.7008 24.5045C31.7008 23.9085 31.2116 23.425 30.6082 23.4245L27.5808 23.422L27.5832 20.3924Z" fill="#5C72A3" fill-opacity="0.5"/>
        <path d="M27.5832 20.3924L29.5832 20.394V20.394L27.5832 20.3924ZM25.4166 20.3924L23.4166 20.3908V20.3908L25.4166 20.3924ZM25.4141 23.4202L25.4125 25.4202C25.9429 25.4207 26.4518 25.2104 26.8271 24.8356C27.2025 24.4608 27.4137 23.9523 27.4141 23.4219L25.4141 23.4202ZM22.3934 23.4178L22.395 21.4178H22.395L22.3934 23.4178ZM22.3934 25.576L22.395 23.576H22.395L22.3934 25.576ZM25.4123 25.5784L27.4123 25.5801C27.4132 24.4755 26.5185 23.5793 25.414 23.5784L25.4123 25.5784ZM25.4099 28.6072L27.4099 28.6088L25.4099 28.6072ZM27.5765 28.6072L25.5765 28.6056V28.6056L27.5765 28.6072ZM27.579 25.5802L27.5806 23.5802C27.0502 23.5798 26.5413 23.7901 26.1659 24.1648C25.7906 24.5396 25.5794 25.0481 25.579 25.5786L27.579 25.5802ZM30.6082 25.5827L30.6065 27.5827H30.6065L30.6082 25.5827ZM30.6082 23.4245L30.6098 21.4245L30.6082 23.4245ZM27.5808 23.422L25.5808 23.4204C25.5799 24.5249 26.4746 25.4211 27.5791 25.422L27.5808 23.422ZM26.5008 21.2998C25.9778 21.2998 25.5828 20.8764 25.5832 20.3908L29.5832 20.394C29.5846 18.7015 28.2204 17.2998 26.5008 17.2998V21.2998ZM27.4166 20.394C27.4162 20.8785 27.0224 21.2998 26.5008 21.2998V17.2998C24.7825 17.2998 23.4179 18.6995 23.4166 20.3908L27.4166 20.394ZM27.4141 23.4219L27.4166 20.394L23.4166 20.3908L23.4141 23.4186L27.4141 23.4219ZM22.3918 25.4178L25.4125 25.4202L25.4157 21.4202L22.395 21.4178L22.3918 25.4178ZM23.3008 24.496C23.3008 25.0286 22.87 25.4181 22.3918 25.4178L22.395 21.4178C20.7099 21.4164 19.3008 22.7714 19.3008 24.496H23.3008ZM22.395 23.576C22.872 23.5764 23.3008 23.9647 23.3008 24.496H19.3008C19.3008 26.2192 20.7079 27.5746 22.3918 27.576L22.395 23.576ZM25.414 23.5784L22.395 23.576L22.3918 27.576L25.4107 27.5784L25.414 23.5784ZM27.4099 28.6088L27.4123 25.5801L23.4123 25.5768L23.4099 28.6056L27.4099 28.6088ZM26.4923 27.6998C27.0153 27.6998 27.4103 28.1232 27.4099 28.6088L23.4099 28.6056C23.4085 30.2981 24.7727 31.6998 26.4923 31.6998V27.6998ZM25.5765 28.6056C25.5769 28.1212 25.9706 27.6998 26.4923 27.6998V31.6998C28.2106 31.6998 29.5751 30.3001 29.5765 28.6088L25.5765 28.6056ZM25.579 25.5786L25.5765 28.6056L29.5765 28.6088L29.579 25.5818L25.579 25.5786ZM30.6098 23.5827L27.5806 23.5802L27.5774 27.5802L30.6065 27.5827L30.6098 23.5827ZM29.7008 24.5045C29.7008 23.9718 30.1316 23.5823 30.6098 23.5827L30.6065 27.5827C32.2916 27.584 33.7008 26.229 33.7008 24.5045H29.7008ZM30.6065 25.4245C30.1295 25.4241 29.7008 25.0358 29.7008 24.5045H33.7008C33.7008 22.7812 32.2937 21.4258 30.6098 21.4245L30.6065 25.4245ZM27.5791 25.422L30.6065 25.4245L30.6098 21.4245L27.5824 21.422L27.5791 25.422ZM25.5832 20.3908L25.5808 23.4204L29.5808 23.4236L29.5832 20.394L25.5832 20.3908Z" fill="#F5F5F5" mask="url(#path-5)"/>
    </g>
</svg>
