<svg width="26" height="24" viewBox="0 0 26 24" fill="none" xmlns="http://www.w3.org/2000/svg">
<path fill-rule="evenodd" clip-rule="evenodd" d="M19.0644 22.1514C19.0644 21.1227 19.8971 20.29 20.9257 20.29C21.9421 20.29 22.7748 21.1227 22.7748 22.1514C22.7748 23.1678 21.9421 24.0005 20.9257 24.0005C19.8971 24.0005 19.0644 23.1678 19.0644 22.1514ZM5.28906 22.1514C5.28906 21.1227 6.12177 20.29 7.1504 20.29C8.16678 20.29 8.99949 21.1227 8.99949 22.1514C8.99949 23.1678 8.16678 24.0005 7.1504 24.0005C6.12177 24.0005 5.28906 23.1678 5.28906 22.1514Z" fill="#1A88F3"/>
<path fill-rule="evenodd" clip-rule="evenodd" d="M22.7757 4.71375C23.5227 4.71375 24.0125 4.9709 24.5023 5.5342C24.9922 6.0975 25.0779 6.90571 24.9677 7.63923L23.8043 15.6724C23.5839 17.2165 22.2614 18.3542 20.7062 18.3542H7.34621C5.71755 18.3542 4.37053 17.1051 4.23583 15.4899L3.10923 2.14094L1.26014 1.82255C0.770313 1.73683 0.427435 1.25926 0.513154 0.76943C0.598874 0.267359 1.07645 -0.0632726 1.57852 0.0102012L4.49911 0.451044C4.91546 0.525742 5.2216 0.867395 5.25834 1.28375L5.491 4.02677C5.52774 4.41985 5.84613 4.71375 6.23799 4.71375H22.7757ZM15.3544 11.0802H18.7464C19.2607 11.0802 19.6648 10.6639 19.6648 10.1618C19.6648 9.6475 19.2607 9.2434 18.7464 9.2434H15.3544C14.84 9.2434 14.4359 9.6475 14.4359 10.1618C14.4359 10.6639 14.84 11.0802 15.3544 11.0802Z" fill="#1A88F3"/>
</svg>
