<svg width="26" height="25" viewBox="0 0 26 25" fill="none" xmlns="http://www.w3.org/2000/svg">
<path d="M23.0148 6.69041C19.7128 1.24331 14.7385 5.03292 14.7385 5.03292C14.4159 5.27773 13.821 5.47901 13.4169 5.47995L12.0845 5.48088C11.6803 5.48135 11.0854 5.28007 10.7633 5.03526C10.7633 5.03526 5.78856 1.24471 2.48606 6.69182C-0.815512 12.1371 0.515 18.0672 0.515 18.0672C0.748096 19.5192 1.51638 20.4882 2.96624 20.3665C4.4119 20.2452 7.54983 16.4561 7.54983 16.4561C7.80904 16.1439 8.35215 15.8888 8.75541 15.8888L16.7431 15.8873C17.1469 15.8873 17.6895 16.1425 17.9482 16.4547C17.9482 16.4547 21.0866 20.2438 22.5346 20.365C23.9826 20.4867 24.7528 19.5169 24.9845 18.0658C24.984 18.0658 26.3169 12.1366 23.0148 6.69041ZM9.74839 11.1241H8.03561V12.7816C8.03561 12.7816 7.67291 13.0596 7.11161 13.0526C6.55125 13.0442 6.29764 12.7493 6.29764 12.7493V11.1246H4.67996C4.67996 11.1246 4.4781 10.9168 4.42402 10.3696C4.37087 9.82237 4.64732 9.38003 4.64732 9.38003H6.36058V7.66029C6.36058 7.66029 6.71302 7.47071 7.21977 7.48522C7.72699 7.50114 8.09854 7.69258 8.09854 7.69258L8.09155 9.37956H9.70924C9.70924 9.37956 9.99175 9.74373 10.0151 10.1837C10.0384 10.6242 9.74839 11.1241 9.74839 11.1241ZM17.6047 13.0133C16.8546 13.0133 16.2499 12.4043 16.2499 11.6521C16.2499 10.8985 16.8546 10.2909 17.6047 10.2909C18.3515 10.2909 18.9608 10.8985 18.9608 11.6521C18.9608 12.4048 18.3515 13.0133 17.6047 13.0133ZM17.6047 9.26816C16.8546 9.26816 16.2499 8.65965 16.2499 7.90743C16.2499 7.15382 16.8546 6.54624 17.6047 6.54624C18.3515 6.54624 18.9608 7.15382 18.9608 7.90743C18.9608 8.66012 18.3515 9.26816 17.6047 9.26816ZM20.9808 11.2786C20.2307 11.2786 19.6261 10.6701 19.6261 9.91739C19.6261 9.16424 20.2307 8.5562 20.9808 8.5562C21.7277 8.5562 22.337 9.16424 22.337 9.91739C22.337 10.6701 21.7277 11.2786 20.9808 11.2786Z" fill="#5C72A3" fill-opacity="0.5"/>
</svg>
