<svg width="26" height="24" viewBox="0 0 26 24" fill="none" xmlns="http://www.w3.org/2000/svg">
<g clip-path="url(#clip0_38:12569)">
<path d="M27 10.6202V11.339C27 11.9344 26.515 12.4171 25.9167 12.4171H25.5556L24.3768 20.6283C24.2244 21.6906 23.3102 22.4796 22.232 22.4796H5.76802C4.68979 22.4796 3.77564 21.6906 3.62311 20.6283L2.44444 12.4171H2.08333C1.48502 12.4171 1 11.9344 1 11.339V10.6202C1 10.0248 1.48502 9.54212 2.08333 9.54212H5.12303L9.94296 2.94664C10.4122 2.30462 11.3155 2.16262 11.9607 2.62959C12.6059 3.09655 12.7485 3.99557 12.2793 4.63764L8.69514 9.54212H19.3049L15.7207 4.63759C15.2515 3.99557 15.3942 3.0965 16.0393 2.62954C16.6844 2.16258 17.5879 2.30453 18.0571 2.9466L22.877 9.54212H25.9167C26.515 9.54212 27 10.0248 27 10.6202ZM15.0833 18.5265V13.4952C15.0833 12.8998 14.5983 12.4171 14 12.4171C13.4017 12.4171 12.9167 12.8998 12.9167 13.4952V18.5265C12.9167 19.1219 13.4017 19.6046 14 19.6046C14.5983 19.6046 15.0833 19.1219 15.0833 18.5265ZM20.1389 18.5265V13.4952C20.1389 12.8998 19.6539 12.4171 19.0556 12.4171C18.4572 12.4171 17.9722 12.8998 17.9722 13.4952V18.5265C17.9722 19.1219 18.4572 19.6046 19.0556 19.6046C19.6539 19.6046 20.1389 19.1219 20.1389 18.5265ZM10.0278 18.5265V13.4952C10.0278 12.8998 9.54276 12.4171 8.94445 12.4171C8.34613 12.4171 7.86111 12.8998 7.86111 13.4952V18.5265C7.86111 19.1219 8.34613 19.6046 8.94445 19.6046C9.54276 19.6046 10.0278 19.1219 10.0278 18.5265Z" fill="#1A88F3"/>
</g>
<defs>
<clipPath id="clip0_38:12569">
<rect width="26" height="23" fill="white" transform="translate(0 0.916992)"/>
</clipPath>
</defs>
</svg>
