<svg width="24" height="24" viewBox="0 0 24 24" fill="none" xmlns="http://www.w3.org/2000/svg">
<g clip-path="url(#clip0)">
<path d="M23.3478 11.5938V12.1563C23.3478 12.6223 22.9682 13.0001 22.5 13.0001H22.2174L21.2949 19.4262C21.1756 20.2575 20.4602 20.8751 19.6163 20.8751H6.73149C5.88766 20.8751 5.17224 20.2575 5.05287 19.4262L4.13043 13.0001H3.84783C3.37958 13.0001 3 12.6223 3 12.1563V11.5938C3 11.1278 3.37958 10.7501 3.84783 10.7501H6.22672L9.99884 5.58839C10.3661 5.08594 11.073 4.97481 11.578 5.34026C12.0829 5.70571 12.1945 6.40929 11.8273 6.91178L9.02229 10.7501H17.3255L14.5205 6.91174C14.1533 6.40929 14.265 5.70567 14.7699 5.34023C15.2748 4.97478 15.9818 5.08587 16.349 5.58836L20.1211 10.7501H22.5C22.9682 10.7501 23.3478 11.1278 23.3478 11.5938ZM14.0217 17.7813V13.8438C14.0217 13.3778 13.6422 13.0001 13.1739 13.0001C12.7057 13.0001 12.3261 13.3778 12.3261 13.8438V17.7813C12.3261 18.2473 12.7057 18.6251 13.1739 18.6251C13.6422 18.6251 14.0217 18.2473 14.0217 17.7813ZM17.9783 17.7813V13.8438C17.9783 13.3778 17.5987 13.0001 17.1304 13.0001C16.6622 13.0001 16.2826 13.3778 16.2826 13.8438V17.7813C16.2826 18.2473 16.6622 18.6251 17.1304 18.6251C17.5987 18.6251 17.9783 18.2473 17.9783 17.7813ZM10.0652 17.7813V13.8438C10.0652 13.3778 9.68564 13.0001 9.21739 13.0001C8.74914 13.0001 8.36957 13.3778 8.36957 13.8438V17.7813C8.36957 18.2473 8.74914 18.6251 9.21739 18.6251C9.68564 18.6251 10.0652 18.2473 10.0652 17.7813Z" fill="white"/>
</g>
<defs>
<clipPath id="clip0">
<rect width="20.3478" height="18" fill="white" transform="translate(3 4)"/>
</clipPath>
</defs>
</svg>
