<svg width="20" height="20" viewBox="0 0 20 20" fill="none" xmlns="http://www.w3.org/2000/svg">
<path fill-rule="evenodd" clip-rule="evenodd" d="M1.66667 10.0125C1.66667 5.62261 5.17501 1.66667 10.0167 1.66667C14.75 1.66667 18.3333 5.54749 18.3333 9.98749C18.3333 15.1369 14.1333 18.3333 10 18.3333C8.63334 18.3333 7.11667 17.9661 5.90001 17.2484C5.47501 16.9897 5.11667 16.7977 4.65834 16.9479L2.97501 17.4487C2.55001 17.5822 2.16667 17.2484 2.29167 16.7977L2.85001 14.9282C2.94167 14.6695 2.92501 14.3941 2.79167 14.1771C2.07501 12.8585 1.66667 11.4146 1.66667 10.0125ZM8.91667 10.0125C8.91667 10.6051 9.39167 11.0808 9.98334 11.0891C10.575 11.0891 11.05 10.6051 11.05 10.0209C11.05 9.42831 10.575 8.9526 9.98334 8.9526C9.4 8.94425 8.91667 9.42831 8.91667 10.0125ZM12.7583 10.0209C12.7583 10.6051 13.2333 11.0891 13.825 11.0891C14.4167 11.0891 14.8917 10.6051 14.8917 10.0209C14.8917 9.42831 14.4167 8.9526 13.825 8.9526C13.2333 8.9526 12.7583 9.42831 12.7583 10.0209ZM6.14167 11.0891C5.55834 11.0891 5.075 10.6051 5.075 10.0209C5.075 9.42831 5.55 8.9526 6.14167 8.9526C6.73334 8.9526 7.20834 9.42831 7.20834 10.0209C7.20834 10.6051 6.73334 11.0808 6.14167 11.0891Z" fill="white"/>
</svg>
