<svg width="20" height="20" viewBox="0 0 20 20" fill="none" xmlns="http://www.w3.org/2000/svg">
<path fill-rule="evenodd" clip-rule="evenodd" d="M13.8877 1.67528C15.0865 1.60036 16.2686 2.0166 17.1594 2.83242C17.9752 3.72317 18.3915 4.90528 18.3249 6.11236V13.8877C18.3998 15.0947 17.9752 16.2768 17.1677 17.1676C16.277 17.9834 15.0865 18.3996 13.8877 18.3247H6.1124C4.9053 18.3996 3.72318 17.9834 2.83243 17.1676C2.0166 16.2768 1.60036 15.0947 1.67528 13.8877V6.11236C1.60036 4.90528 2.0166 3.72317 2.83243 2.83242C3.72318 2.0166 4.9053 1.60036 6.1124 1.67528H13.8877ZM9.15094 14.0375L14.7535 8.41831C15.2613 7.90218 15.2613 7.0697 14.7535 6.5619L13.6713 5.47968C13.1552 4.96355 12.3227 4.96355 11.8066 5.47968L11.2488 6.04576C11.1655 6.12901 11.1655 6.27053 11.2488 6.35378C11.2488 6.35378 12.5724 7.66908 12.5974 7.70238C12.689 7.80228 12.7473 7.93547 12.7473 8.08532C12.7473 8.38501 12.5058 8.63475 12.1978 8.63475C12.0563 8.63475 11.9231 8.57648 11.8315 8.48491L10.4413 7.103C10.3747 7.0364 10.2581 7.0364 10.1915 7.103L6.22062 11.0739C5.9459 11.3486 5.78773 11.7149 5.7794 12.1062L5.72946 14.0791C5.72946 14.1873 5.76275 14.2872 5.83768 14.3622C5.9126 14.4371 6.0125 14.4787 6.12072 14.4787H8.07705C8.47664 14.4787 8.85958 14.3205 9.15094 14.0375Z" fill="white"/>
</svg>
