<svg width="20" height="20" viewBox="0 0 20 20" fill="none" xmlns="http://www.w3.org/2000/svg">
<path d="M18.2119 5.35233C15.5702 0.994647 11.5908 4.02634 11.5908 4.02634C11.3327 4.22219 10.8568 4.38321 10.5335 4.38396L9.46759 4.38471C9.14423 4.38508 8.66835 4.22406 8.41064 4.02821C8.41064 4.02821 4.43085 0.99577 1.78885 5.35345C-0.852409 9.70964 0.212 14.4538 0.212 14.4538C0.398476 15.6154 1.0131 16.3905 2.17299 16.2932C3.32952 16.1962 5.83987 13.1649 5.83987 13.1649C6.04723 12.9151 6.48172 12.711 6.80432 12.711L13.1945 12.7099C13.5175 12.7099 13.9516 12.914 14.1586 13.1637C14.1586 13.1637 16.6693 16.1951 17.8277 16.292C18.9861 16.3894 19.6022 15.6135 19.7876 14.4527C19.7872 14.4527 20.8535 9.70927 18.2119 5.35233ZM7.59872 8.89929H6.22848V10.2253C6.22848 10.2253 5.93833 10.4477 5.48929 10.4421C5.041 10.4354 4.83811 10.1994 4.83811 10.1994V8.89967H3.54397C3.54397 8.89967 3.38248 8.7334 3.33921 8.29565C3.2967 7.8579 3.51786 7.50402 3.51786 7.50402H4.88846V6.12823C4.88846 6.12823 5.17042 5.97657 5.57582 5.98818C5.98159 6.00091 6.27883 6.15407 6.27883 6.15407L6.27324 7.50365H7.56739C7.56739 7.50365 7.7934 7.79499 7.81204 8.14699C7.83069 8.49936 7.59872 8.89929 7.59872 8.89929ZM13.8837 10.4106C13.2836 10.4106 12.7999 9.92346 12.7999 9.32169C12.7999 8.7188 13.2836 8.23274 13.8837 8.23274C14.4812 8.23274 14.9686 8.7188 14.9686 9.32169C14.9686 9.92384 14.4812 10.4106 13.8837 10.4106ZM13.8837 7.41453C13.2836 7.41453 12.7999 6.92772 12.7999 6.32595C12.7999 5.72305 13.2836 5.23699 13.8837 5.23699C14.4812 5.23699 14.9686 5.72305 14.9686 6.32595C14.9686 6.92809 14.4812 7.41453 13.8837 7.41453ZM16.5847 9.02287C15.9846 9.02287 15.5009 8.53606 15.5009 7.93391C15.5009 7.33139 15.9846 6.84496 16.5847 6.84496C17.1821 6.84496 17.6696 7.33139 17.6696 7.93391C17.6696 8.53606 17.1821 9.02287 16.5847 9.02287Z" fill="white"/>
</svg>
