<svg width="20" height="20" viewBox="0 0 20 20" fill="none" xmlns="http://www.w3.org/2000/svg">
<path fill-rule="evenodd" clip-rule="evenodd" d="M14.1756 12.1677C14.5206 12.1677 14.8006 11.8877 14.8006 11.5427V9.99933C14.8006 9.65433 14.5206 9.37433 14.1756 9.37433H9.43224C9.16224 8.48517 8.34391 7.83183 7.36724 7.83183C6.17225 7.83183 5.19975 8.80433 5.19975 9.99933C5.19975 11.1952 6.17225 12.1677 7.36724 12.1677C8.34391 12.1677 9.16224 11.5143 9.43224 10.6243H11.1922V11.5427C11.1922 11.8877 11.4722 12.1677 11.8172 12.1677C12.1622 12.1677 12.4422 11.8877 12.4422 11.5427V10.6243H13.5506V11.5427C13.5506 11.8877 13.8306 12.1677 14.1756 12.1677ZM6.38808 1.666H13.6122C16.4356 1.666 18.3331 3.64767 18.3331 6.59683V13.4027C18.3331 16.3518 16.4356 18.3327 13.6114 18.3327H6.38808C3.56391 18.3327 1.66641 16.3518 1.66641 13.4027V6.59683C1.66641 3.64767 3.56391 1.666 6.38808 1.666ZM6.449 10.0001C6.449 9.49342 6.8615 9.08175 7.36733 9.08175C7.87316 9.08175 8.28566 9.49342 8.28566 10.0001C8.28566 10.5059 7.87316 10.9176 7.36733 10.9176C6.8615 10.9176 6.449 10.5059 6.449 10.0001Z" fill="white"/>
</svg>
