<svg width="20" height="20" viewBox="0 0 20 20" fill="none" xmlns="http://www.w3.org/2000/svg">
<g id="Iconly/Bold/Star">
<g id="Star">
<path id="Star_2" d="M14.9321 11.9334C14.7163 12.1426 14.6171 12.4451 14.6663 12.7417L15.4071 16.8417C15.4696 17.1892 15.3229 17.5409 15.0321 17.7417C14.7471 17.9501 14.3679 17.9751 14.0571 17.8084L10.3663 15.8834C10.2379 15.8151 10.0954 15.7784 9.9496 15.7742H9.72376C9.64543 15.7859 9.56876 15.8109 9.49876 15.8492L5.8071 17.7834C5.6246 17.8751 5.41793 17.9076 5.21543 17.8751C4.7221 17.7817 4.39293 17.3117 4.47376 16.8159L5.21543 12.7159C5.2646 12.4167 5.16543 12.1126 4.9496 11.9001L1.94043 8.98341C1.68876 8.73924 1.60126 8.37258 1.71626 8.04175C1.82793 7.71175 2.11293 7.47091 2.4571 7.41675L6.59876 6.81591C6.91376 6.78341 7.19043 6.59175 7.3321 6.30841L9.1571 2.56675C9.20043 2.48341 9.25626 2.40675 9.32376 2.34175L9.39876 2.28341C9.43793 2.24008 9.48293 2.20425 9.53293 2.17508L9.62376 2.14175L9.76543 2.08341H10.1163C10.4296 2.11591 10.7054 2.30341 10.8496 2.58341L12.6988 6.30841C12.8321 6.58091 13.0913 6.77008 13.3904 6.81591L17.5321 7.41675C17.8821 7.46675 18.1746 7.70841 18.2904 8.04175C18.3996 8.37591 18.3054 8.74258 18.0488 8.98341L14.9321 11.9334Z" fill="white"/>
</g>
</g>
</svg>
