<svg width="15" height="15" viewBox="0 0 15 15" fill="none" xmlns="http://www.w3.org/2000/svg">
<rect width="15" height="15" rx="7.5" fill="#5C72A3"/>
<g clip-path="url(#clip0_12:40013)">
<path d="M9.57425 8.78999C9.47445 8.78994 9.37875 8.75024 9.30822 8.67964C9.23768 8.60903 9.19808 8.51329 9.19813 8.41349C9.19818 8.31368 9.23787 8.21799 9.30848 8.14745C9.37909 8.07691 9.47483 8.03731 9.57463 8.03736C9.67444 8.03736 9.77015 8.07701 9.84072 8.14758C9.9113 8.21816 9.95094 8.31387 9.95094 8.41368C9.95094 8.51348 9.9113 8.6092 9.84072 8.67977C9.77015 8.75034 9.67444 8.78999 9.57463 8.78999H9.57425ZM5.43276 8.78999C5.38334 8.78996 5.33441 8.78021 5.28876 8.76127C5.24311 8.74234 5.20164 8.7146 5.16672 8.67964C5.09618 8.60903 5.05658 8.51329 5.05663 8.41349C5.05668 8.31368 5.09638 8.21799 5.16698 8.14745C5.23759 8.07691 5.33333 8.03731 5.43313 8.03736C5.53293 8.03736 5.62865 8.07701 5.69922 8.14758C5.7698 8.21816 5.80944 8.31387 5.80944 8.41368C5.80944 8.51348 5.7698 8.6092 5.69922 8.67977C5.62865 8.75034 5.53293 8.78999 5.43313 8.78999H5.43276ZM9.70776 6.53324L10.46 5.23612C10.4802 5.20026 10.4854 5.15784 10.4744 5.11817C10.4633 5.07851 10.437 5.04485 10.4011 5.02462C10.3653 5.00438 10.3229 4.99921 10.2832 5.01025C10.2435 5.02129 10.2099 5.04764 10.1896 5.08349L9.42951 6.39599C8.82583 6.12006 8.1695 5.9783 7.50576 5.98049C6.81201 5.98049 6.15763 6.12974 5.57788 6.39224L4.81776 5.07974C4.80773 5.06201 4.79432 5.04643 4.77828 5.03389C4.76223 5.02134 4.74388 5.01208 4.72425 5.00663C4.70463 5.00118 4.68413 4.99965 4.66391 5.00213C4.6437 5.0046 4.62417 5.01103 4.60644 5.02105C4.58871 5.03107 4.57313 5.04449 4.56059 5.06053C4.54805 5.07658 4.53878 5.09493 4.53334 5.11455C4.52789 5.13418 4.52635 5.15468 4.52883 5.17489C4.5313 5.19511 4.53773 5.21464 4.54776 5.23237L5.29588 6.52911C4.01076 7.23036 3.12913 8.53161 2.99976 10.0714H11.9998C11.8745 8.53536 10.9966 7.23449 9.70776 6.53324Z" fill="white"/>
</g>
<defs>
<clipPath id="clip0_12:40013">
<rect width="9" height="9" fill="white" transform="translate(2.99976 3.125)"/>
</clipPath>
</defs>
</svg>
