<svg width="15" height="15" viewBox="0 0 15 15" fill="none" xmlns="http://www.w3.org/2000/svg">
<path fill-rule="evenodd" clip-rule="evenodd" d="M8.82581 7.0207H10.5557C10.818 7.0207 11.0241 6.80384 11.0241 6.54234C11.0241 6.27445 10.818 6.06397 10.5557 6.06397H8.82581C8.56351 6.06397 8.35742 6.27445 8.35742 6.54234C8.35742 6.80384 8.56351 7.0207 8.82581 7.0207ZM12.6104 3.70468C12.9913 3.70468 13.2411 3.83862 13.4909 4.13202C13.7407 4.42542 13.7844 4.84638 13.7282 5.22843L13.135 9.41252C13.0225 10.2168 12.3481 10.8093 11.5549 10.8093H4.74149C3.91089 10.8093 3.22393 10.1594 3.15523 9.31748L2.58068 2.36463L1.63766 2.19879C1.38786 2.15415 1.21299 1.9054 1.25671 1.65027C1.30042 1.3894 1.54398 1.21655 1.80004 1.25546L3.2895 1.48444C3.50183 1.52335 3.65796 1.7013 3.6767 1.91815L3.79535 3.34687C3.81409 3.55161 3.97646 3.70468 4.17631 3.70468H12.6104ZM4.64145 11.8174C4.11685 11.8174 3.69219 12.2511 3.69219 12.7869C3.69219 13.3163 4.11685 13.75 4.64145 13.75C5.15979 13.75 5.58446 13.3163 5.58446 12.7869C5.58446 12.2511 5.15979 11.8174 4.64145 11.8174ZM11.6672 11.8174C11.1426 11.8174 10.718 12.2511 10.718 12.7869C10.718 13.3163 11.1426 13.75 11.6672 13.75C12.1856 13.75 12.6102 13.3163 12.6102 12.7869C12.6102 12.2511 12.1856 11.8174 11.6672 11.8174Z" fill="#5C72A3"/>
</svg>
