<svg width="15" height="15" viewBox="0 0 15 15" fill="none" xmlns="http://www.w3.org/2000/svg">
<path d="M13.1997 6.16586L12.7495 5.71586C12.5744 5.54086 12.4744 5.30336 12.4744 5.05399V4.40961C12.4744 3.37211 11.6303 2.52899 10.5925 2.52899H9.94847C9.69838 2.52899 9.4608 2.42836 9.28574 2.25336L8.82932 1.79774C8.09155 1.06649 6.89737 1.06649 6.16585 1.80336L5.71569 2.25336C5.54063 2.42836 5.30304 2.52899 5.05295 2.52899H4.40897C3.37109 2.52899 2.52704 3.37211 2.52704 4.40961V5.04711C2.52704 5.30336 2.427 5.54086 2.25194 5.71586L1.79552 6.17274C1.06401 6.90961 1.07026 8.10399 1.80177 8.83461L2.25194 9.27836C2.427 9.45961 2.52704 9.69711 2.52704 9.94774V10.5909C2.52704 11.6284 3.37109 12.4727 4.40897 12.4727H5.05295C5.30304 12.4727 5.54063 12.5721 5.71569 12.7471L6.17211 13.204C6.54099 13.5665 7.02241 13.7471 7.50384 13.7471C7.98526 13.7471 8.46669 13.5665 8.83557 13.1971L9.28574 12.7471C9.4608 12.5721 9.69838 12.4727 9.94847 12.4727H10.5925C11.6303 12.4727 12.4744 11.6284 12.4744 10.5909V9.94774C12.4744 9.69711 12.5744 9.45961 12.7495 9.28461L13.1934 8.84086C13.1997 8.83461 13.2059 8.82899 13.2122 8.82211C13.5623 8.46649 13.7561 7.99086 13.7499 7.49086C13.7499 6.99086 13.556 6.51586 13.1997 6.16586Z" fill="#5C72A3"/>
<path d="M7.77772 11V10.456C8.92986 10.3633 9.5999 9.75878 9.5999 8.80368C9.5999 7.9977 9.13823 7.50605 8.12909 7.24007L7.77772 7.15544V5.1848C8.37831 5.25734 8.78278 5.63615 8.79912 6.1399H9.49368C9.46508 5.2654 8.79095 4.64479 7.77772 4.56016V4H7.23025V4.56419C6.18842 4.66494 5.5429 5.26943 5.5429 6.14796C5.5429 6.88946 6.025 7.42142 6.9034 7.65112L7.23025 7.73978V9.83535C6.56021 9.75475 6.14348 9.39609 6.09854 8.85607H5.3999C5.40399 9.74669 6.12305 10.3794 7.23025 10.46V11H7.77772ZM8.89309 8.8601C8.89309 9.4525 8.48862 9.81117 7.77772 9.84744V7.84859C8.54582 8.00979 8.89309 8.32412 8.89309 8.8601ZM6.24562 6.10766C6.24562 5.60391 6.65827 5.21704 7.23025 5.1848V7.03857C6.58473 6.90558 6.24562 6.58319 6.24562 6.10766Z" fill="white"/>
</svg>
