<svg width="15" height="15" viewBox="0 0 15 15" fill="none" xmlns="http://www.w3.org/2000/svg">
<path d="M7.01875 3.5L7.01881 2.05094C7.01881 1.78452 7.23131 1.5625 7.50006 1.5625C7.74069 1.5625 7.94455 1.74906 7.97686 1.98536L7.98131 2.05094L8 3.5H10.975C13.75 3.5 13.6783 5.77486 13.747 7.29401L13.75 7.42881V10.5784C13.75 12.1082 12.5704 13.3639 11.105 13.4344L10.975 13.4375H4.025C2.5375 13.4375 1.32131 12.2255 1.25302 10.7008L1.25 10.5655L1.25 7.42235C1.25 5.89256 1.25302 3.5 4 3.5H4.025H7.01875V8.55826L6.01875 7.52562C5.83125 7.332 5.525 7.332 5.3375 7.52562C5.24375 7.62243 5.2 7.75151 5.2 7.88059C5.2 7.97869 5.228 8.08092 5.2872 8.16746L5.3375 8.2291L7.15625 10.1137C7.24375 10.2105 7.36875 10.2621 7.5 10.2621C7.60417 10.2621 7.70833 10.2263 7.7908 10.1583L7.8375 10.1137L9.65625 8.2291C9.84375 8.03548 9.84375 7.71924 9.65625 7.52562C9.4858 7.3496 9.2172 7.3336 9.0289 7.47761L8.975 7.52562L7.98125 8.55826L8 3.5H7.01875Z" fill="#5C72A3"/>
</svg>
