<svg width="15" height="15" viewBox="0 0 15 15" fill="none" xmlns="http://www.w3.org/2000/svg">
<rect width="15" height="15" rx="7.5" fill="#5C72A3"/>
<path fill-rule="evenodd" clip-rule="evenodd" d="M9.10005 3.00513C9.11458 3.19869 9.15381 3.72134 8.67458 4.29487C8.32744 4.70387 7.9059 4.9432 7.44363 4.90748C7.40466 4.41454 7.58709 3.97696 7.89704 3.62332C8.17866 3.29291 8.67281 3.025 9.09966 3L9.10005 3.00513ZM10.5629 5.71303C9.96784 6.07738 9.67382 6.57211 9.67737 7.22758C9.67737 7.22851 9.67732 7.23021 9.67725 7.23265C9.67488 7.31921 9.64704 8.33566 10.7702 8.86894C10.5541 9.5262 9.81374 10.9872 8.95296 10.9997C8.7118 10.9997 8.51889 10.9246 8.32 10.8472C8.10843 10.7649 7.89011 10.68 7.59979 10.68C7.28552 10.68 7.049 10.7704 6.82742 10.8551C6.6394 10.927 6.46213 10.9948 6.25725 10.9997C5.40355 11.0265 4.58527 9.41904 4.35856 8.76357C4.18853 8.26526 4.10352 7.78125 4.10352 7.31331C4.10352 5.7291 5.15382 4.95039 6.14212 4.93432C6.41612 4.93432 6.73313 5.04982 7.0039 5.14847C7.20572 5.222 7.38184 5.28617 7.49529 5.28617C7.58703 5.28617 7.73674 5.23033 7.92043 5.16181C8.24035 5.04247 8.66335 4.88469 9.06277 4.91646C9.72696 4.96825 10.23 5.23259 10.5629 5.71303Z" fill="white"/>
</svg>
