<svg width="15" height="15" viewBox="0 0 15 15" fill="none" xmlns="http://www.w3.org/2000/svg">
<path fill-rule="evenodd" clip-rule="evenodd" d="M4.58149 1.25H10.4184C12.544 1.25 13.744 2.45562 13.7502 4.58125V10.4187C13.7502 12.5437 12.544 13.75 10.4184 13.75H4.58149C2.45587 13.75 1.25024 12.5437 1.25024 10.4187V4.58125C1.25024 2.45562 2.45587 1.25 4.58149 1.25ZM7.53087 11.1625C7.80024 11.1625 8.02462 10.9625 8.04962 10.6937V4.325C8.07462 4.13125 7.98149 3.93688 7.81274 3.83125C7.63712 3.725 7.42462 3.725 7.25649 3.83125C7.08712 3.93688 6.99399 4.13125 7.01212 4.325V10.6937C7.04399 10.9625 7.26837 11.1625 7.53087 11.1625ZM10.4065 11.1625C10.669 11.1625 10.8934 10.9625 10.9252 10.6938V8.64375C10.9434 8.44313 10.8502 8.25625 10.6809 8.15C10.5127 8.04375 10.3002 8.04375 10.1252 8.15C9.95587 8.25625 9.86274 8.44313 9.88774 8.64375V10.6938C9.91274 10.9625 10.1371 11.1625 10.4065 11.1625ZM5.13712 10.6937C5.11212 10.9625 4.88774 11.1625 4.61837 11.1625C4.34962 11.1625 4.12462 10.9625 4.10024 10.6937V6.375C4.08149 6.18062 4.17462 5.9875 4.34399 5.88125C4.51212 5.775 4.72524 5.775 4.89399 5.88125C5.06212 5.9875 5.15649 6.18062 5.13712 6.375V10.6937Z" fill="#5C72A3"/>
</svg>
