<svg width="20" height="20" viewBox="0 0 20 20" fill="none" xmlns="http://www.w3.org/2000/svg">
<g clip-path="url(#clip0)">
<path d="M17.4224 15.968C17.4239 16.2493 17.3656 16.5276 17.2513 16.7845C17.1371 17.0415 16.9695 17.2712 16.7598 17.4585C16.55 17.6458 16.3028 17.7864 16.0346 17.871C15.7664 17.9555 15.4833 17.9821 15.2041 17.9489C14.1875 17.7985 13.4426 16.914 13.4674 15.8866V4.07577C13.4428 3.04738 14.1896 2.16231 15.2075 2.01352C15.4864 1.98086 15.7692 2.0078 16.037 2.09257C16.3048 2.17734 16.5515 2.318 16.7609 2.50525C16.9703 2.6925 17.1375 2.92207 17.2516 3.17877C17.3656 3.43548 17.4239 3.71347 17.4224 3.99436V15.968Z" fill="#F9AB00"/>
<path d="M4.97752 14.0109C6.06969 14.0109 6.95504 14.8963 6.95504 15.9884C6.95504 17.0806 6.06969 17.9659 4.97752 17.9659C3.88535 17.9659 3 17.0806 3 15.9884C3 14.8963 3.88535 14.0109 4.97752 14.0109ZM10.1808 8.01724C9.08349 8.07741 8.23206 8.99786 8.25758 10.0966V15.4084C8.25758 16.85 8.89189 17.7251 9.82124 17.9117C10.1094 17.9701 10.4069 17.9636 10.6922 17.8927C10.9775 17.8219 11.2435 17.6884 11.4708 17.502C11.6982 17.3156 11.8811 17.0809 12.0065 16.815C12.1319 16.5491 12.1965 16.2586 12.1957 15.9646V10.005C12.1961 9.74155 12.1442 9.48063 12.0427 9.23748C11.9413 8.99432 11.7925 8.7738 11.6049 8.58877C11.4174 8.40374 11.1948 8.25792 10.9503 8.1598C10.7058 8.06168 10.4442 8.01324 10.1808 8.01729V8.01724Z" fill="#E37400"/>
</g>
<defs>
<clipPath id="clip0">
<rect width="14.4225" height="16" fill="white" transform="translate(3 2)"/>
</clipPath>
</defs>
</svg>
