<svg width="20" height="20" viewBox="0 0 20 20" fill="none" xmlns="http://www.w3.org/2000/svg">
<path d="M11.2009 9.79914C10.5638 9.16234 9.69991 8.80462 8.79916 8.80462C7.8984 8.80462 7.03452 9.16234 6.39746 9.79914L3.99498 12.2008C3.3579 12.8379 3 13.702 3 14.6029C3 15.5039 3.3579 16.3679 3.99498 17.005C4.63205 17.6421 5.49611 18 6.39707 18C7.29803 18 8.16208 17.6421 8.79916 17.005L10 15.8042M8.79991 12.2009C9.43697 12.8377 10.3009 13.1954 11.2016 13.1954C12.1024 13.1954 12.9663 12.8377 13.6033 12.2009L16.0058 9.79916C16.6429 9.16209 17.0008 8.29803 17.0008 7.39707C17.0008 6.49611 16.6429 5.63205 16.0058 4.99498C15.3687 4.3579 14.5047 4 13.6037 4C12.7027 4 11.8387 4.3579 11.2016 4.99498L10.0008 6.19583" stroke="url(#paint0_linear)" stroke-width="2" stroke-linecap="round" stroke-linejoin="round"/>
<defs>
<linearGradient id="paint0_linear" x1="3" y1="4" x2="16.7344" y2="3.74342" gradientUnits="userSpaceOnUse">
<stop stop-color="#31BC69"/>
<stop offset="1" stop-color="#089E4E"/>
</linearGradient>
</defs>
</svg>
