<svg width="20" height="20" viewBox="0 0 20 20" fill="none" xmlns="http://www.w3.org/2000/svg">
<g clip-path="url(#clip0)">
<path d="M12.2622 7.22374L10.2603 9.08624L8.40283 5.33937L9.36408 3.18437C9.61408 2.74687 10.0041 2.75187 10.2478 3.18437L12.2622 7.22374Z" fill="#FFA000"/>
<path d="M8.40305 5.33938L10.2605 9.08625L2.7793 16.0456L8.40305 5.33938Z" fill="#F57F17"/>
<path d="M14.4518 4.37686C14.8093 4.03311 15.1793 4.15061 15.2737 4.63748L17.2212 15.9531L10.7662 19.8281C10.5412 19.9531 9.94117 20.0069 9.94117 20.0069C9.94117 20.0069 9.39492 19.9419 9.1868 19.8194L2.7793 16.0456L14.4518 4.37686Z" fill="#FFCA28"/>
<path d="M8.40291 5.33936L2.77979 16.0456L5.28416 0.398738C5.37666 -0.0887624 5.65416 -0.135637 5.90166 0.294363L8.40291 5.33936Z" fill="#FFA000"/>
</g>
<defs>
<clipPath id="clip0">
<rect width="20" height="20" fill="white"/>
</clipPath>
</defs>
</svg>
