<svg width="20" height="20" viewBox="0 0 20 20" fill="none" xmlns="http://www.w3.org/2000/svg">
<g clip-path="url(#clip0)">
<path d="M13.3364 12.7924C15.1134 11.8167 16.4605 11.0732 16.5766 11.0154C16.948 10.8179 17.3316 10.2951 16.5766 9.88899C16.3328 9.76127 15.0203 9.04094 13.3364 8.11198L11.002 10.4696L13.3364 12.7924V12.7924Z" fill="#FFD900"/>
<path d="M11.0019 10.4696L3.56885 17.961C3.74332 17.9841 3.94029 17.9378 4.17252 17.8101C4.66007 17.5433 9.82861 14.7207 13.3363 12.793L11.0019 10.4696Z" fill="#F43249"/>
<path d="M11.0017 10.4696L13.3361 8.12359C13.3361 8.12359 4.69516 3.40785 4.17235 3.12947C3.97538 3.01281 3.75465 2.97816 3.55713 3.01281L11.0017 10.4696Z" fill="#00EE76"/>
<path d="M11.0021 10.4721L3.55746 3.01537C3.25533 3.08523 3 3.35216 3 3.89807V17.0808C3 17.5805 3.19757 17.9404 3.56901 17.9751L11.0021 10.4721Z" fill="#00D3FF"/>
</g>
<defs>
<clipPath id="clip0">
<rect width="14.0146" height="15" fill="white" transform="translate(3 3)"/>
</clipPath>
</defs>
</svg>
