<svg viewBox="0 0 15 16" fill="none" xmlns="http://www.w3.org/2000/svg">
<path d="M13.6589 4.51425C11.6777 1.24598 8.69311 3.51975 8.69311 3.51975C8.49954 3.66664 8.14263 3.78741 7.90012 3.78797L7.10069 3.78853C6.85818 3.78881 6.50126 3.66804 6.30798 3.52116C6.30798 3.52116 3.32314 1.24683 1.34164 4.51509C-0.639307 7.78223 0.159 11.3403 0.159 11.3403C0.298857 12.2115 0.759828 12.7929 1.62974 12.7199C2.49714 12.6471 4.3799 10.3736 4.3799 10.3736C4.53542 10.1863 4.86129 10.0333 5.10324 10.0333L9.89588 10.0324C10.1381 10.0324 10.4637 10.1855 10.6189 10.3728C10.6189 10.3728 12.502 12.6463 13.3708 12.719C14.2396 12.792 14.7017 12.2101 14.8407 11.3395C14.8404 11.3395 15.6401 7.78195 13.6589 4.51425ZM5.69904 7.17447H4.67136V8.16896C4.67136 8.16896 4.45375 8.33579 4.11697 8.33157C3.78075 8.32652 3.62859 8.14958 3.62859 8.14958V7.17475H2.65797C2.65797 7.17475 2.53686 7.05005 2.50441 6.72174C2.47252 6.39342 2.63839 6.12802 2.63839 6.12802H3.66635V5.09617C3.66635 5.09617 3.87781 4.98243 4.18186 4.99113C4.48619 5.00068 4.70913 5.11555 4.70913 5.11555L4.70493 6.12774H5.67554C5.67554 6.12774 5.84505 6.34624 5.85903 6.61024C5.87302 6.87452 5.69904 7.17447 5.69904 7.17447ZM10.4128 8.30798C9.96273 8.30798 9.59994 7.9426 9.59994 7.49127C9.59994 7.0391 9.96273 6.67455 10.4128 6.67455C10.8609 6.67455 11.2265 7.0391 11.2265 7.49127C11.2265 7.94288 10.8609 8.30798 10.4128 8.30798ZM10.4128 6.06089C9.96273 6.06089 9.59994 5.69579 9.59994 5.24446C9.59994 4.79229 9.96273 4.42775 10.4128 4.42775C10.8609 4.42775 11.2265 4.79229 11.2265 5.24446C11.2265 5.69607 10.8609 6.06089 10.4128 6.06089ZM12.4385 7.26715C11.9884 7.26715 11.6256 6.90204 11.6256 6.45043C11.6256 5.99855 11.9884 5.63372 12.4385 5.63372C12.8866 5.63372 13.2522 5.99855 13.2522 6.45043C13.2522 6.90204 12.8866 7.26715 12.4385 7.26715Z" fill="#5C72A3" fill-opacity="0.5"/>
</svg>
