<svg viewBox="0 0 15 16" fill="none" xmlns="http://www.w3.org/2000/svg">
<path fill-rule="evenodd" clip-rule="evenodd" d="M12.7514 8.98762C12.9749 9.10637 13.1474 9.29387 13.2687 9.48137C13.5051 9.86887 13.4859 10.3439 13.256 10.7626L12.8088 11.5126C12.5725 11.9126 12.1318 12.1626 11.6783 12.1626C11.4548 12.1626 11.2057 12.1001 11.0013 11.9751C10.8352 11.8689 10.6436 11.8314 10.4392 11.8314C9.80685 11.8314 9.27671 12.3501 9.25755 12.9689C9.25755 13.6876 8.66992 14.2501 7.93539 14.2501H7.06672C6.32581 14.2501 5.73818 13.6876 5.73818 12.9689C5.72541 12.3501 5.19527 11.8314 4.56293 11.8314C4.35215 11.8314 4.16053 11.8689 4.00085 11.9751C3.79646 12.1001 3.54097 12.1626 3.32381 12.1626C2.86393 12.1626 2.42321 11.9126 2.18688 11.5126L1.74616 10.7626C1.50983 10.3564 1.49706 9.86887 1.73338 9.48137C1.83558 9.29387 2.0272 9.10637 2.24436 8.98762C2.42321 8.90012 2.53818 8.75637 2.64676 8.58762C2.96612 8.05012 2.7745 7.34387 2.23159 7.02512C1.59925 6.66887 1.39486 5.87512 1.75893 5.25637L2.18688 4.51887C2.55734 3.90012 3.34935 3.68137 3.98808 4.04387C4.54377 4.34387 5.26553 4.14387 5.59127 3.61262C5.69347 3.43762 5.75095 3.25012 5.73818 3.06262C5.72541 2.81887 5.79567 2.58762 5.91702 2.40012C6.15335 2.01262 6.5813 1.76262 7.04756 1.75012H7.94816C8.42082 1.75012 8.84876 2.01262 9.08509 2.40012C9.20006 2.58762 9.27671 2.81887 9.25755 3.06262C9.24477 3.25012 9.30226 3.43762 9.40445 3.61262C9.7302 4.14387 10.452 4.34387 11.014 4.04387C11.6464 3.68137 12.4448 3.90012 12.8088 4.51887L13.2368 5.25637C13.6073 5.87512 13.4029 6.66887 12.7641 7.02512C12.2212 7.34387 12.0296 8.05012 12.3554 8.58762C12.4576 8.75637 12.5725 8.90012 12.7514 8.98762ZM5.6936 8.0064C5.6936 8.98765 6.50478 9.7689 7.50757 9.7689C8.51037 9.7689 9.30239 8.98765 9.30239 8.0064C9.30239 7.02515 8.51037 6.23765 7.50757 6.23765C6.50478 6.23765 5.6936 7.02515 5.6936 8.0064Z" fill="#1A88F3"/>
</svg>
