<svg width="15" height="16" viewBox="0 0 15 16" fill="none" xmlns="http://www.w3.org/2000/svg">
<g opacity="0.9">
<g clip-path="url(#clip0_231:19914)">
<path d="M14 7.10163V7.461C14 7.75872 13.7575 8.00006 13.4583 8.00006H13.2778L12.6884 12.1057C12.6122 12.6368 12.1551 13.0313 11.616 13.0313H3.38401C2.84489 13.0313 2.38782 12.6368 2.31156 12.1057L1.72222 8.00006H1.54167C1.24251 8.00006 1 7.75872 1 7.461V7.10163C1 6.80391 1.24251 6.56256 1.54167 6.56256H3.06152L5.47148 3.26483C5.70609 2.94381 6.15775 2.87282 6.48036 3.1063C6.80294 3.33978 6.87426 3.78929 6.63965 4.11032L4.84757 6.56256H10.1524L8.36035 4.1103C8.12574 3.78929 8.19708 3.33976 8.51967 3.10627C8.84221 2.87279 9.29393 2.94377 9.52854 3.2648L11.9385 6.56256H13.4583C13.7575 6.56256 14 6.80391 14 7.10163ZM8.04167 11.0548V8.53913C8.04167 8.24141 7.79916 8.00006 7.5 8.00006C7.20084 8.00006 6.95833 8.24141 6.95833 8.53913V11.0548C6.95833 11.3525 7.20084 11.5938 7.5 11.5938C7.79916 11.5938 8.04167 11.3525 8.04167 11.0548ZM10.5694 11.0548V8.53913C10.5694 8.24141 10.3269 8.00006 10.0278 8.00006C9.72862 8.00006 9.48611 8.24141 9.48611 8.53913V11.0548C9.48611 11.3525 9.72862 11.5938 10.0278 11.5938C10.3269 11.5938 10.5694 11.3525 10.5694 11.0548ZM5.51389 11.0548V8.53913C5.51389 8.24141 5.27138 8.00006 4.97222 8.00006C4.67306 8.00006 4.43056 8.24141 4.43056 8.53913V11.0548C4.43056 11.3525 4.67306 11.5938 4.97222 11.5938C5.27138 11.5938 5.51389 11.3525 5.51389 11.0548Z" fill="#1A88F3"/>
</g>
</g>
<defs>
<clipPath id="clip0_231:19914">
<rect width="13" height="11.5" fill="white" transform="translate(1 2.25)"/>
</clipPath>
</defs>
</svg>
