<svg viewBox="0 0 22 18" fill="none" xmlns="http://www.w3.org/2000/svg">
<path d="M21.4001 7.56255V8.13755C21.4001 8.6139 21.0121 9.00005 20.5334 9.00005H20.2445L19.3016 15.569C19.1796 16.4188 18.4483 17.0501 17.5857 17.0501H4.41451C3.55193 17.0501 2.82061 16.4188 2.69859 15.569L1.75565 9.00005H1.46676C0.988112 9.00005 0.600098 8.6139 0.600098 8.13755V7.56255C0.600098 7.0862 0.988112 6.70005 1.46676 6.70005H3.89852L7.75447 1.42367C8.12984 0.910055 8.8525 0.796456 9.36867 1.17003C9.88481 1.5436 9.99892 2.26281 9.62354 2.77647L6.75621 6.70005H15.244L12.3767 2.77643C12.0013 2.26281 12.1154 1.54356 12.6316 1.16999C13.1476 0.79642 13.8704 0.909983 14.2458 1.42364L18.1017 6.70005H20.5334C21.0121 6.70005 21.4001 7.0862 21.4001 7.56255ZM11.8668 13.8876V9.86255C11.8668 9.3862 11.4788 9.00005 11.0001 9.00005C10.5214 9.00005 10.1334 9.3862 10.1334 9.86255V13.8876C10.1334 14.3639 10.5214 14.7501 11.0001 14.7501C11.4788 14.7501 11.8668 14.3639 11.8668 13.8876ZM15.9112 13.8876V9.86255C15.9112 9.3862 15.5232 9.00005 15.0445 9.00005C14.5659 9.00005 14.1779 9.3862 14.1779 9.86255V13.8876C14.1779 14.3639 14.5659 14.7501 15.0445 14.7501C15.5232 14.7501 15.9112 14.3639 15.9112 13.8876ZM7.82232 13.8876V9.86255C7.82232 9.3862 7.43431 9.00005 6.95565 9.00005C6.477 9.00005 6.08899 9.3862 6.08899 9.86255V13.8876C6.08899 14.3639 6.477 14.7501 6.95565 14.7501C7.43431 14.7501 7.82232 14.3639 7.82232 13.8876Z" fill="white"/>
</svg>
