<svg width="20" height="20" viewBox="0 0 20 20" fill="none" xmlns="http://www.w3.org/2000/svg">
<path fill-rule="evenodd" clip-rule="evenodd" d="M0 17.62C0 16.831 0.639593 16.1914 1.42857 16.1914L18.5714 16.1914C19.3604 16.1914 20 16.831 20 17.62C20 18.409 19.3604 19.0485 18.5714 19.0485L1.42857 19.0485C0.639593 19.0485 0 18.409 0 17.62Z" fill="white"/>
<path fill-rule="evenodd" clip-rule="evenodd" d="M0 10.0008C0 9.21186 0.639593 8.57227 1.42857 8.57227L18.5714 8.57227C19.3604 8.57227 20 9.21186 20 10.0008C20 10.7898 19.3604 11.4294 18.5714 11.4294L1.42857 11.4294C0.639593 11.4294 0 10.7898 0 10.0008Z" fill="white"/>
<path fill-rule="evenodd" clip-rule="evenodd" d="M0 2.3817C0 1.59272 0.639593 0.953125 1.42857 0.953125L18.5714 0.953125C19.3604 0.953125 20 1.59272 20 2.3817C20 3.17067 19.3604 3.81027 18.5714 3.81027L1.42857 3.81027C0.639593 3.81027 0 3.17067 0 2.3817Z" fill="white"/>
</svg>
