<svg width="16" height="16" viewBox="0 0 16 16" fill="none" xmlns="http://www.w3.org/2000/svg">
<path opacity="0.4" fill-rule="evenodd" clip-rule="evenodd" d="M11.6022 14.3443C11.6022 13.7014 12.1227 13.181 12.7656 13.181C13.4008 13.181 13.9213 13.7014 13.9213 14.3443C13.9213 14.9795 13.4008 15.5 12.7656 15.5C12.1227 15.5 11.6022 14.9795 11.6022 14.3443ZM2.99219 14.3443C2.99219 13.7014 3.51263 13.181 4.15552 13.181C4.79076 13.181 5.3112 13.7014 5.3112 14.3443C5.3112 14.9796 4.79076 15.5 4.15552 15.5C3.51263 15.5 2.99219 14.9796 2.99219 14.3443Z" fill="#5C72A3" fill-opacity="0.5"/>
<path fill-rule="evenodd" clip-rule="evenodd" d="M13.9223 3.44609C14.3892 3.44609 14.6953 3.60682 15.0015 3.95888C15.3076 4.31094 15.3612 4.81607 15.2923 5.27452L14.5652 10.2952C14.4274 11.2603 13.6009 11.9713 12.6289 11.9713H4.27888C3.26097 11.9713 2.41908 11.1907 2.33489 10.1812L1.63077 1.83809L0.475086 1.6391C0.168945 1.58552 -0.0453531 1.28703 0.00822152 0.980894C0.0617961 0.6671 0.360283 0.460455 0.674078 0.506376L2.49944 0.781902C2.75966 0.828589 2.951 1.04212 2.97396 1.30234L3.11938 3.01673C3.14234 3.26241 3.34133 3.44609 3.58624 3.44609H13.9223ZM9.28437 7.42516H11.4044C11.7258 7.42516 11.9784 7.16494 11.9784 6.85115C11.9784 6.5297 11.7258 6.27714 11.4044 6.27714H9.28437C8.96293 6.27714 8.71036 6.5297 8.71036 6.85115C8.71036 7.16494 8.96293 7.42516 9.28437 7.42516Z" fill="#5C72A3" fill-opacity="0.5"/>
</svg>
