<svg viewBox="0 0 14 14" fill="none" xmlns="http://www.w3.org/2000/svg">
<path fill-rule="evenodd" clip-rule="evenodd" d="M4.27714 1.16686H9.72489C11.7088 1.16686 12.8288 2.29211 12.8346 4.27603V9.72436C12.8346 11.7077 11.7088 12.8335 9.72489 12.8335H4.27714C2.29322 12.8335 1.16797 11.7077 1.16797 9.72436V4.27603C1.16797 2.29211 2.29322 1.16686 4.27714 1.16686ZM7.03013 10.4186C7.28154 10.4186 7.49096 10.2319 7.51429 9.98105V4.03689C7.53763 3.85605 7.45071 3.67464 7.29321 3.57605C7.12929 3.47689 6.93096 3.47689 6.77404 3.57605C6.61596 3.67464 6.52904 3.85605 6.54596 4.03689V9.98105C6.57571 10.2319 6.78513 10.4186 7.03013 10.4186ZM9.71343 10.4185C9.95843 10.4185 10.1679 10.2318 10.1976 9.98099V8.06766C10.2145 7.88041 10.1276 7.70599 9.96952 7.60682C9.8126 7.50766 9.61427 7.50766 9.45093 7.60682C9.29285 7.70599 9.20593 7.88041 9.22927 8.06766V9.98099C9.2526 10.2318 9.46202 10.4185 9.71343 10.4185ZM4.79553 9.98104C4.7722 10.2319 4.56278 10.4185 4.31137 10.4185C4.06053 10.4185 3.85053 10.2319 3.82778 9.98104V5.95021C3.81028 5.76879 3.8972 5.58854 4.05528 5.48937C4.2122 5.39021 4.41112 5.39021 4.56862 5.48937C4.72553 5.58854 4.81362 5.76879 4.79553 5.95021V9.98104Z" fill="#5C72A3" fill-opacity="0.8"/>
</svg>
