<svg width="16" height="16" viewBox="0 0 16 16" fill="none" xmlns="http://www.w3.org/2000/svg">
<path d="M4.43647 11.5638C4.71765 11.8449 5.17353 11.8449 5.4547 11.5638L11.5641 5.45435C11.8453 5.17317 11.8453 4.7173 11.5641 4.43612C11.2829 4.15494 10.827 4.15494 10.5459 4.43612L4.43647 10.5455C4.15529 10.8267 4.15529 11.2826 4.43647 11.5638Z" fill="#96A0B7"/>
<path d="M11.5641 11.5638C11.8453 11.2826 11.8453 10.8267 11.5641 10.5455L5.4547 4.43612C5.17353 4.15494 4.71765 4.15494 4.43647 4.43612C4.15529 4.7173 4.15529 5.17317 4.43647 5.45435L10.5459 11.5638C10.827 11.8449 11.2829 11.8449 11.5641 11.5638Z" fill="#96A0B7"/>
</svg>
