<svg viewBox="0 0 15 16" fill="none" xmlns="http://www.w3.org/2000/svg">
<path opacity="0.5" d="M6.55904 11.6001C5.37114 11.6001 4.40455 10.685 4.40455 9.56032V4.64061H3.51704C2.74818 4.64061 2.12305 5.23244 2.12305 5.96035V12.4403C2.12305 13.1682 2.74818 13.76 3.51704 13.76H9.85429C10.6232 13.76 11.2483 13.1682 11.2483 12.4403V11.6001H6.55904Z" fill="#5C72A3" fill-opacity="0.8"/>
<path d="M6.55806 2.24004C5.78767 2.24004 5.16406 2.83115 5.16406 3.55979V9.5595C5.16406 10.2889 5.78843 10.8792 6.55806 10.8792H11.8816C12.6519 10.8792 13.2756 10.2881 13.2756 9.5595V3.68003C13.2756 2.88443 12.5949 2.24004 11.7546 2.24004H6.55806Z" fill="#5C72A3" fill-opacity="0.8"/>
</svg>
