<svg viewBox="0 0 12 12" fill="none" xmlns="http://www.w3.org/2000/svg">
<path opacity="0.4" d="M5.01748 8.99999C3.995 8.99999 3.16301 8.2374 3.16301 7.3002V3.20044H2.39909C1.7373 3.20044 1.19922 3.69364 1.19922 4.30023V9.70018C1.19922 10.3068 1.7373 10.8 2.39909 10.8H7.85385C8.51565 10.8 9.05372 10.3068 9.05372 9.70018V8.99999H5.01748Z" fill="#0064F5"/>
<path opacity="0.8" d="M5.01628 1.19995C4.35318 1.19995 3.81641 1.69255 3.81641 2.29974V7.2995C3.81641 7.90729 4.35383 8.39929 5.01628 8.39929H9.59846C10.2616 8.39929 10.7983 7.90669 10.7983 7.2995V2.39994C10.7983 1.73695 10.2125 1.19995 9.48914 1.19995H5.01628Z" fill="#0064F5"/>
</svg>
