<svg viewBox="0 0 14 14" fill="none" xmlns="http://www.w3.org/2000/svg">
    <path fill-rule="evenodd" clip-rule="evenodd" d="M11.8342 3.0584C12.0611 3.0584 12.25 3.24681 12.25 3.48656V3.70823C12.25 3.94214 12.0611 4.13639 11.8342 4.13639H2.16641C1.93892 4.13639 1.75 3.94214 1.75 3.70823V3.48656C1.75 3.24681 1.93892 3.0584 2.16641 3.0584H3.86725C4.21275 3.0584 4.51343 2.81282 4.59115 2.46632L4.68022 2.06849C4.81865 1.52658 5.27421 1.16667 5.79557 1.16667H8.20442C8.72012 1.16667 9.18079 1.52658 9.31411 2.03991L9.40942 2.46574C9.48657 2.81282 9.78725 3.0584 10.1333 3.0584H11.8342ZM10.9702 11.1616C11.1477 9.50666 11.4586 5.57504 11.4586 5.53537C11.47 5.41521 11.4308 5.30146 11.3531 5.20987C11.2697 5.12412 11.1642 5.07337 11.0479 5.07337H2.95673C2.83986 5.07337 2.72866 5.12412 2.65151 5.20987C2.57322 5.30146 2.53464 5.41521 2.54031 5.53537C2.54136 5.54266 2.55251 5.68115 2.57116 5.91268C2.65401 6.94125 2.88477 9.80598 3.03388 11.1616C3.13941 12.1602 3.79466 12.7879 4.74379 12.8106C5.47621 12.8275 6.23074 12.8334 7.0023 12.8334C7.72904 12.8334 8.46713 12.8275 9.22224 12.8106C10.2043 12.7937 10.859 12.1771 10.9702 11.1616Z" fill="#5C72A3" fill-opacity="0.8"/>
</svg>
