<svg width="24" height="24" viewBox="0 0 24 24" fill="none" xmlns="http://www.w3.org/2000/svg">
<path d="M12 24C18.6274 24 24 18.6274 24 12C24 5.37258 18.6274 0 12 0C5.37258 0 0 5.37258 0 12C0 18.6274 5.37258 24 12 24Z" fill="#0052B4"/>
<path d="M12.0008 4.69562L12.3893 5.89135H13.6465L12.6294 6.63034L13.0179 7.82607L12.0008 7.08704L10.9836 7.82607L11.3721 6.63034L10.355 5.89135H11.6122L12.0008 4.69562Z" fill="#FFDA44"/>
<path d="M6.83572 6.835L7.95603 7.40575L8.84502 6.51682L8.64828 7.75853L9.76855 8.32933L8.52678 8.52602L8.33009 9.76783L7.7593 8.64756L6.51758 8.8443L7.40656 7.95532L6.83572 6.835Z" fill="#FFDA44"/>
<path d="M4.69629 12L5.89202 11.6114V10.3542L6.63096 11.3714L7.82674 10.9828L7.08766 12L7.82674 13.0171L6.63096 12.6286L5.89202 13.6457V12.3885L4.69629 12Z" fill="#FFDA44"/>
<path d="M6.83572 17.1649L7.40652 16.0446L6.51758 15.1556L7.75934 15.3524L8.33005 14.2321L8.52678 15.4739L9.7685 15.6706L8.64837 16.2414L8.84501 17.4831L7.95603 16.5941L6.83572 17.1649Z" fill="#FFDA44"/>
<path d="M12.0008 19.3043L11.6122 18.1086H10.355L11.3722 17.3696L10.9836 16.174L12.0008 16.9129L13.0179 16.174L12.6294 17.3696L13.6465 18.1086H12.3893L12.0008 19.3043Z" fill="#FFDA44"/>
<path d="M17.1656 17.1649L16.0454 16.5942L15.1563 17.4832L15.3531 16.2414L14.2329 15.6706L15.4746 15.4739L15.6713 14.2321L16.2421 15.3524L17.4838 15.1556L16.5948 16.0447L17.1656 17.1649Z" fill="#FFDA44"/>
<path d="M19.3047 12L18.1089 12.3885V13.6457L17.37 12.6286L16.1743 13.0171L16.9133 12L16.1743 10.9828L17.37 11.3714L18.1089 10.3542V11.6115L19.3047 12Z" fill="#FFDA44"/>
<path d="M17.1656 6.83499L16.5948 7.9553L17.4838 8.84428L16.242 8.6475L15.6713 9.76777L15.4746 8.526L14.2329 8.32927L15.3531 7.75852L15.1563 6.51685L16.0454 7.40578L17.1656 6.83499Z" fill="#FFDA44"/>
</svg>
