<svg width="24" height="24" viewBox="0 0 24 24" fill="none" xmlns="http://www.w3.org/2000/svg">
<circle cx="12" cy="12" r="12" fill="#E0E5F0"/>
<mask id="mask0" style="mask-type:alpha" maskUnits="userSpaceOnUse" x="0" y="0" width="24" height="24">
<circle cx="12" cy="12" r="12" fill="#C4C4C4"/>
</mask>
<g mask="url(#mask0)">
<path fill-rule="evenodd" clip-rule="evenodd" d="M17.4097 24.9232V24.9155H17.6336V24.9232H24.7761C24.8379 24.9232 24.888 24.873 24.888 24.8111V17.6252V17.4011V12.9727C24.909 12.6896 24.9209 12.4039 24.9233 12.116H24.888V11.8919H24.9233C24.9209 11.604 24.909 11.3183 24.888 11.0352V6.60675V6.38264V-0.803252C24.888 -0.865137 24.8379 -0.915304 24.7761 -0.915304H17.6336V-0.922989H17.4097V-0.915304H12.0945L11.8707 -0.91536L6.62691 -0.915304L6.40304 -0.91536L-0.810919 -0.915304C-0.872738 -0.915304 -0.922852 -0.865137 -0.922852 -0.803252V6.38264L-0.922556 6.60675L-0.922852 11.8919L-0.922556 12.116L-0.922852 17.4011L-0.922556 17.6252L-0.922852 24.8111C-0.922852 24.873 -0.872738 24.9232 -0.810919 24.9232H6.40304H6.62691H11.8707H12.0945H17.4097ZM24.6642 9.41295V6.60675H23.7471C24.1546 7.49266 24.4648 8.43262 24.6642 9.41295ZM23.6414 6.38264H24.6642V-0.532734L21.2049 2.9302C22.1944 3.93398 23.0208 5.09913 23.6414 6.38264ZM21.0463 2.77204C20.0518 1.79728 18.9004 0.982257 17.6336 0.368458V-0.6912H24.5059L21.0463 2.77204ZM20.888 2.93052L17.6336 6.18841V0.618007C18.8394 1.21508 19.9367 1.99844 20.888 2.93052ZM17.7562 6.38264L21.0466 3.08867C21.9933 4.04931 22.7881 5.16031 23.3921 6.38264H17.7562ZM17.4097 6.72944V10.4273C17.1505 9.53738 16.6773 8.73874 16.0497 8.09089L17.4097 6.72944ZM17.2157 6.60675H13.5933C14.4656 6.86143 15.2502 7.3223 15.8907 7.93314L17.2157 6.60675ZM15.7324 8.09165C14.7826 7.18772 13.5039 6.62682 12.0945 6.60728V11.7334L15.7324 8.09165ZM12.2528 11.8919L15.8914 8.24938C16.8072 9.19588 17.3798 10.477 17.4086 11.8919H12.2528ZM11.7124 12.116H6.62805C6.65646 13.5127 7.21491 14.7792 8.11023 15.722L11.7124 12.116ZM8.26779 15.8812L11.8707 12.2744V17.3991C10.4715 17.3615 9.2053 16.7902 8.26779 15.8812ZM7.95189 15.8805C7.3417 15.2392 6.88131 14.4538 6.62691 13.5805V17.2069L7.95189 15.8805ZM6.74947 17.4011L8.10947 16.0396C8.75663 16.6679 9.55442 17.1416 10.4434 17.4011H6.74947ZM6.20901 17.6252H0.644561C1.24099 18.8323 2.02352 19.9308 2.9546 20.8831L6.20901 17.6252ZM3.11259 21.0419L6.40304 17.7479V23.3899C5.18202 22.7852 4.07221 21.9896 3.11259 21.0419ZM2.7963 21.0416C1.82257 20.046 1.00842 18.8934 0.395278 17.6252H-0.698987V24.5406L2.7963 21.0416ZM-0.54069 24.6991L2.95429 21.2004C3.957 22.1908 5.1209 23.0182 6.40304 23.6394V24.6991H-0.54069ZM17.4097 0.262643V-0.6912H14.4243C15.4694 -0.493922 16.47 -0.170507 17.4097 0.262643ZM12.0945 -0.690975C13.9943 -0.679786 15.7952 -0.250397 17.4097 0.509886V6.22014C16.015 4.91672 14.1485 4.11287 12.0945 4.09345V-0.690975ZM23.5001 6.60675H17.7959C19.0904 7.99484 19.8916 9.84984 19.9199 11.8919H24.6642V11.0436C24.5464 9.46691 24.1409 7.97048 23.5001 6.60675ZM19.6961 11.8919C19.6678 9.90965 18.89 8.10897 17.6336 6.76108V11.8919H19.6961ZM12.0945 4.31757C14.0887 4.33698 15.901 5.11739 17.2556 6.38264H12.0945V4.31757ZM11.8707 -0.690357V4.09445C9.84491 4.13161 8.00541 4.93185 6.62691 6.22014V0.509886C8.22124 -0.240856 9.99714 -0.668957 11.8707 -0.690357ZM11.8707 4.31859C9.90465 4.35571 8.11942 5.13253 6.78108 6.38264H11.8707V4.31859ZM6.40304 11.8919V6.76108C5.1467 8.10897 4.36889 9.90965 4.3406 11.8919H6.40304ZM4.11671 11.8919C4.14503 9.84984 4.94624 7.99484 6.24071 6.60675H0.536555C-0.218153 8.21293 -0.646455 10.0032 -0.662767 11.8919H4.11671ZM-0.662767 12.116H4.11671C4.14503 14.158 4.94624 16.013 6.24071 17.4011H0.536555C-0.218153 15.7949 -0.646455 14.0047 -0.662767 12.116ZM6.62691 23.498V17.7877C8.00541 19.076 9.84491 19.8763 11.8707 19.9134V24.6982C9.99714 24.6768 8.22124 24.2487 6.62691 23.498ZM6.78108 17.6252C8.11942 18.8753 9.90465 19.6522 11.8707 19.6893V17.6252H6.78108ZM12.0945 24.6988V19.9144C14.1485 19.895 16.015 19.0911 17.4097 17.7877V23.498C15.7952 24.2583 13.9943 24.6876 12.0945 24.6988ZM12.0945 19.6903C14.0887 19.6709 15.901 18.8905 17.2556 17.6252H12.0945V19.6903ZM23.5001 17.4011H17.7959C19.0904 16.013 19.8916 14.158 19.9199 12.116H24.6642V12.9642C24.5464 14.5409 24.1409 16.0374 23.5001 17.4011ZM17.6336 17.2468C18.89 15.8989 19.6678 14.0982 19.6961 12.116H17.6336V17.2468ZM4.3406 12.116C4.36889 14.0982 5.1467 15.8989 6.40304 17.2468V12.116H4.3406ZM9.6124 -0.6912H6.62691V0.262643C7.56665 -0.170507 8.56727 -0.493922 9.6124 -0.6912ZM6.40304 0.368459V-0.6912H-0.54069L2.95429 2.80751C3.957 1.81704 5.1209 0.989687 6.40304 0.368459ZM2.7963 2.96628L-0.698987 -0.532734V6.38264H0.395278C1.00842 5.11448 1.82257 3.96187 2.7963 2.96628ZM6.40304 0.618008C5.18202 1.22263 4.07221 2.0183 3.11259 2.96598L6.40304 6.25995V0.618008ZM10.4434 6.60675H6.74947L8.10947 7.9682C8.75663 7.33993 9.55442 6.86628 10.4434 6.60675ZM7.95189 8.12738L6.62691 6.80099V10.4273C6.88131 9.55401 7.3417 8.76863 7.95189 8.12738ZM0.644561 6.38264H6.20901L2.9546 3.12476C2.02352 4.0771 1.24099 5.17559 0.644561 6.38264ZM6.62805 11.8919C6.65646 10.4951 7.21491 9.2287 8.11023 8.28589L11.7124 11.8919H6.62805ZM11.8707 11.7334L8.26779 8.12669C9.2053 7.21769 10.4715 6.6464 11.8707 6.60873V11.7334ZM17.4086 12.116H12.2528L15.8914 15.7585C16.8072 14.812 17.3798 13.5308 17.4086 12.116ZM15.7324 15.9162L12.0945 12.2744V17.4006C13.5039 17.381 14.7826 16.8201 15.7324 15.9162ZM13.5933 17.4011C14.4656 17.1464 15.2502 16.6856 15.8907 16.0747L17.2157 17.4011H13.5933ZM17.4097 13.5805C17.1505 14.4705 16.6773 15.2691 16.0497 15.917L17.4097 17.2784V13.5805ZM17.6336 23.3899V17.8195L20.888 21.0773C19.9367 22.0094 18.8394 22.7928 17.6336 23.3899ZM17.7562 17.6252L21.0466 20.9192C21.9933 19.9585 22.7881 18.8475 23.3921 17.6252H17.7562ZM17.6336 23.6394C18.9004 23.0256 20.0518 22.2106 21.0463 21.2358L24.5059 24.6991H17.6336V23.6394ZM21.2049 21.0777L24.6642 24.5406V17.6252H23.6414C23.0208 18.9087 22.1944 20.0739 21.2049 21.0777ZM0.289575 6.60675H-0.698987V9.79367C-0.506449 8.67562 -0.170368 7.60675 0.289575 6.60675ZM-0.698987 14.2142V17.4011H0.289576C-0.170368 16.4011 -0.506449 15.3322 -0.698987 14.2142ZM6.62691 23.7452V24.6991H9.6124C8.56727 24.5018 7.56665 24.1784 6.62691 23.7452ZM14.4243 24.6991H17.4097V23.7452C16.47 24.1784 15.4694 24.5018 14.4243 24.6991ZM23.7471 17.4011H24.6642V14.5949C24.4648 15.5752 24.1546 16.5152 23.7471 17.4011Z" fill="#94A6CD" fill-opacity="0.8"/>
</g>
<path d="M12 24C18.6274 24 24 18.6274 24 12C24 5.37258 18.6274 0 12 0C5.37258 0 0 5.37258 0 12C0 18.6274 5.37258 24 12 24Z" fill="#FFDA44"/>
<path d="M0 12C0 5.37262 5.37262 0 12 0C18.6274 0 24 5.37262 24 12" fill="#338AF3"/>
</svg>
