<svg width="24" height="24" viewBox="0 0 24 24" fill="none" xmlns="http://www.w3.org/2000/svg">
<path d="M11.9981 1.99899C17.5221 1.99899 22.0001 6.47699 22.0001 12.001C22.0001 17.524 17.5221 22.002 11.9981 22.002C6.47409 22.002 1.99609 17.524 1.99609 12.001C1.99609 6.47699 6.47409 1.99899 11.9981 1.99899ZM11.9941 10.249C11.749 10.2493 11.5126 10.3396 11.3297 10.5028C11.1469 10.6659 11.0303 10.8906 11.0021 11.134L10.9951 11.25L10.9981 16.752L11.0051 16.869C11.0333 17.1129 11.1502 17.3379 11.3336 17.5011C11.517 17.6643 11.754 17.7544 11.9995 17.7542C12.245 17.7539 12.4818 17.6634 12.6649 17.4998C12.8479 17.3362 12.9644 17.1109 12.9921 16.867L12.9981 16.75L12.9951 11.249L12.9881 11.132C12.9592 10.8888 12.842 10.6646 12.6588 10.502C12.4756 10.3394 12.239 10.2498 11.9941 10.25V10.249ZM11.9981 6.49999C11.6662 6.49999 11.3479 6.63185 11.1131 6.86655C10.8784 7.10125 10.7466 7.41957 10.7466 7.75149C10.7466 8.08341 10.8784 8.40174 11.1131 8.63644C11.3479 8.87114 11.6662 9.00299 11.9981 9.00299C12.33 9.00299 12.6483 8.87114 12.883 8.63644C13.1177 8.40174 13.2496 8.08341 13.2496 7.75149C13.2496 7.41957 13.1177 7.10125 12.883 6.86655C12.6483 6.63185 12.33 6.49999 11.9981 6.49999Z" fill="#5C72A3" fill-opacity="0.5"/>
</svg>
