<svg viewBox="0 0 110 44" fill="none" xmlns="http://www.w3.org/2000/svg">
<path d="M20.0091 20.6798C20.5591 18.0068 19.5691 16.1038 17.7761 14.8498C16.1371 13.7608 14.0691 13.5958 11.8911 14.6848L2.78314 18.7768C0.495141 19.8108 -0.483859 22.4838 0.495141 24.7168C1.52914 27.0048 4.14714 27.9838 6.43514 27.0048L7.63414 26.4548L5.67614 37.0918C5.12614 40.3039 7.20514 42.9218 10.0431 43.4718C13.0461 44.0218 15.9831 42.0528 16.4781 39.0498L20.0091 20.6798Z" fill="url(#paint0_linear)"/>
<path d="M102.795 14.0579C97.7898 13.3319 92.7298 16.2579 90.7938 20.3939L91.1238 18.5899C91.9378 14.9379 90.4198 13.9589 87.8018 13.9589H84.4248C81.2128 13.9589 80.4978 15.7079 80.1128 17.7209L76.1858 39.5339C75.8558 41.0079 76.0758 43.5709 78.9688 43.5709H83.6548C86.4378 43.5709 86.9768 41.3929 87.3618 39.3139L89.2648 28.8419C89.7048 26.4439 90.0788 25.2999 90.9038 24.4199C92.1578 23.0009 94.6658 22.3519 96.4148 23.7709C97.4488 24.6399 97.8338 26.1139 97.5588 28.1929L95.6558 39.5339C95.2378 42.0419 96.3048 43.5709 98.3838 43.5709H103.07C105.743 43.5709 106.282 41.5029 106.667 39.3139L109.417 25.1129C110.649 19.9979 108.845 14.9379 102.795 14.0579Z" fill="url(#paint1_linear)"/>
<path d="M72.7321 11.1209C75.715 11.1209 78.1331 8.72742 78.1331 5.7749C78.1331 2.82238 75.715 0.428894 72.7321 0.428894C69.7492 0.428894 67.3311 2.82238 67.3311 5.7749C67.3311 8.72742 69.7492 11.1209 72.7321 11.1209Z" fill="url(#paint2_linear)"/>
<path d="M73.0619 39.3028C72.6769 41.5908 72.0279 43.5598 69.3549 43.5598H64.6139C62.3259 43.5598 61.5009 41.8658 61.9409 39.6328L65.8569 17.7098C66.2419 15.3668 67.2759 13.9478 70.1689 13.9478H73.7659C76.8239 13.9478 77.5829 15.4218 76.9339 18.5788L73.0619 39.3028Z" fill="url(#paint3_linear)"/>
<path d="M20.9766 13.9478C22.1756 15.3668 23.5946 17.1158 22.8796 21.3618L21.0316 31.3498L21.3616 39.3688C21.4166 42.2618 22.8356 43.5158 25.2336 43.5158H31.3386C33.2416 43.5158 34.0666 42.0418 34.8256 40.1938L39.4566 28.7978L39.9516 39.6988C40.0066 42.0968 41.2056 43.5708 43.4386 43.5708H50.3686C52.3266 43.5708 53.1516 42.3718 54.0206 40.2488L62.9086 18.4358C63.8876 16.2028 63.2936 13.9698 60.8956 13.9698H56.4736C54.8346 13.9698 53.6906 14.5198 53.0416 16.0928L47.0356 30.6898L46.4856 17.6548C46.3756 14.8718 45.0666 13.9478 43.4826 13.9478H38.9616C37.1576 13.9478 36.1236 14.6518 35.5846 16.0158L29.5896 30.7448L29.0396 17.3248C28.9846 14.8168 28.1156 13.9478 26.0916 13.9478H22.1646H20.9766Z" fill="url(#paint4_linear)"/>
<defs>
<linearGradient id="paint0_linear" x1="10.1351" y1="47.6495" x2="10.1351" y2="13.2526" gradientUnits="userSpaceOnUse">
<stop stop-color="#0167CA"/>
<stop offset="1" stop-color="#38A8FA"/>
</linearGradient>
<linearGradient id="paint1_linear" x1="92.9245" y1="44.34" x2="92.9245" y2="13.2075" gradientUnits="userSpaceOnUse">
<stop stop-color="#C8C7C7"/>
<stop offset="0.0762789" stop-color="#D6D5D5"/>
<stop offset="0.216" stop-color="#E8E8E8"/>
<stop offset="0.3802" stop-color="#F5F5F5"/>
<stop offset="0.5898" stop-color="#FDFDFD"/>
<stop offset="1" stop-color="white"/>
</linearGradient>
<linearGradient id="paint2_linear" x1="72.7295" y1="13.8587" x2="72.7295" y2="-1.42793" gradientUnits="userSpaceOnUse">
<stop stop-color="#0167CA"/>
<stop offset="1" stop-color="#38A8FA"/>
</linearGradient>
<linearGradient id="paint3_linear" x1="69.4825" y1="44.3942" x2="69.4825" y2="13.2731" gradientUnits="userSpaceOnUse">
<stop stop-color="#C8C7C7"/>
<stop offset="0.0762789" stop-color="#D6D5D5"/>
<stop offset="0.216" stop-color="#E8E8E8"/>
<stop offset="0.3802" stop-color="#F5F5F5"/>
<stop offset="0.5898" stop-color="#FDFDFD"/>
<stop offset="1" stop-color="white"/>
</linearGradient>
<linearGradient id="paint4_linear" x1="42.1681" y1="44.3382" x2="42.1681" y2="13.2732" gradientUnits="userSpaceOnUse">
<stop stop-color="#C8C7C7"/>
<stop offset="0.0762789" stop-color="#D6D5D5"/>
<stop offset="0.216" stop-color="#E8E8E8"/>
<stop offset="0.3802" stop-color="#F5F5F5"/>
<stop offset="0.5898" stop-color="#FDFDFD"/>
<stop offset="1" stop-color="white"/>
</linearGradient>
</defs>
</svg>
