<svg viewBox="0 0 26 25" fill="none" xmlns="http://www.w3.org/2000/svg">
    <path d="M23.0519 6.52185H22.5163V11.6856C22.5163 14.234 20.4721 16.3047 17.9599 16.3047H5.36182V18.7504C5.36182 20.3988 6.68386 21.7391 8.30989 21.7391H9.64963V24.1848C9.64963 24.5207 9.85228 24.8223 10.1627 24.9446C10.2576 24.9821 10.3557 25 10.4538 25C10.6741 25 10.8913 24.9071 11.0457 24.7359L13.7557 21.7391H23.0519C24.6779 21.7391 25.9999 20.3988 25.9999 18.7504V9.51052C25.9999 7.86373 24.6779 6.52185 23.0519 6.52185Z" fill="#4EABFF" fill-opacity="0.4"/>
    <path d="M17.9586 0H2.4125C1.08241 0 0 1.09731 0 2.44572V11.6856C0 13.034 1.08241 14.1313 2.4125 14.1313H17.9602C19.2903 14.1313 20.3727 13.034 20.3727 11.6856V2.44572C20.3711 1.09731 19.2887 0 17.9586 0ZM18.2272 4.82621L11.001 8.38065C10.7437 8.51109 10.4654 8.57631 10.1856 8.57631C9.90571 8.57631 9.62747 8.51109 9.37014 8.38065L2.14391 4.82621V3.02291L10.0682 6.91486C10.1437 6.95888 10.229 6.95888 10.3046 6.91486L18.2288 3.02291V4.82621H18.2272Z" fill="#4EABFF"/>
</svg>
