<svg width="20" height="20" viewBox="0 0 20 20" fill="none" xmlns="http://www.w3.org/2000/svg">
<path fill-rule="evenodd" clip-rule="evenodd" d="M13.889 1.6753C15.0878 1.60038 16.2699 2.01661 17.1607 2.83244C17.9765 3.72318 18.3928 4.90529 18.3262 6.11238V13.8877C18.4011 15.0948 17.9765 16.2769 17.169 17.1676C16.2783 17.9834 15.0878 18.3997 13.889 18.3247H6.11369C4.9066 18.3997 3.72448 17.9834 2.83373 17.1676C2.0179 16.2769 1.60166 15.0948 1.67658 13.8877V6.11238C1.60166 4.90529 2.0179 3.72318 2.83373 2.83244C3.72448 2.01661 4.9066 1.60038 6.11369 1.6753H13.889ZM9.15224 14.0375L14.7548 8.41832C15.2626 7.90219 15.2626 7.06972 14.7548 6.56191L13.6726 5.4797C13.1565 4.96357 12.324 4.96357 11.8078 5.4797L11.2501 6.04578C11.1668 6.12903 11.1668 6.27055 11.2501 6.35379C11.2501 6.35379 12.5737 7.6691 12.5987 7.7024C12.6903 7.8023 12.7485 7.93549 12.7485 8.08534C12.7485 8.38503 12.5071 8.63477 12.1991 8.63477C12.0576 8.63477 11.9244 8.57649 11.8328 8.48492L10.4426 7.10302C10.376 7.03642 10.2594 7.03642 10.1928 7.10302L6.22192 11.0739C5.9472 11.3486 5.78903 11.7149 5.7807 12.1062L5.73075 14.0791C5.73075 14.1874 5.76405 14.2873 5.83898 14.3622C5.9139 14.4371 6.0138 14.4787 6.12202 14.4787H8.07834C8.47793 14.4787 8.86087 14.3206 9.15224 14.0375Z" fill="#5C72A3" fill-opacity="0.5"/>
</svg>
