<svg viewBox="0 0 12 14" fill="none" xmlns="http://www.w3.org/2000/svg">
<path fill-rule="evenodd" clip-rule="evenodd" d="M10.4713 4.86422C10.4713 5.70151 10.6926 6.19502 11.1796 6.76373C11.5486 7.18271 11.6666 7.72053 11.6666 8.30401C11.6666 8.88682 11.4751 9.44009 11.0915 9.88929C10.5892 10.4278 9.88095 10.7716 9.15808 10.8313C8.11055 10.9206 7.06236 10.9958 6.00025 10.9958C4.93748 10.9958 3.88995 10.9508 2.84242 10.8313C2.11889 10.7716 1.4106 10.4278 0.909029 9.88929C0.525398 9.44009 0.333252 8.88682 0.333252 8.30401C0.333252 7.72053 0.451853 7.18271 0.820244 6.76373C1.32248 6.19502 1.5292 5.70151 1.5292 4.86422V4.5802C1.5292 3.45889 1.8088 2.72568 2.38458 2.00791C3.24063 0.96113 4.61282 0.333332 5.97043 0.333332H6.03007C7.41683 0.333332 8.83342 0.991345 9.67489 2.08311C10.2208 2.78611 10.4713 3.48844 10.4713 4.5802V4.86422ZM4.04904 12.3739C4.04904 12.0382 4.35714 11.8844 4.64205 11.8186C4.97532 11.7481 7.00611 11.7481 7.33939 11.8186C7.6243 11.8844 7.93239 12.0382 7.93239 12.3739C7.91583 12.6935 7.72832 12.9768 7.46925 13.1568C7.13333 13.4187 6.7391 13.5845 6.32698 13.6443C6.09905 13.6738 5.8751 13.6745 5.65512 13.6443C5.24234 13.5845 4.84811 13.4187 4.51285 13.1561C4.25312 12.9768 4.06561 12.6935 4.04904 12.3739Z" fill="#4EABFF"/>
</svg>
