<svg viewBox="0 0 13 13" fill="none" xmlns="http://www.w3.org/2000/svg">
<path d="M4.50682 9.23253L1.535 6.08129C1.27968 5.81057 0.865742 5.81057 0.610429 6.08129C0.355117 6.35202 0.355117 6.79095 0.610429 7.06168L4.03984 10.6981C4.29775 10.9716 4.71589 10.9716 4.9738 10.6981L11.9694 3.2802C12.2247 3.00948 12.2247 2.57054 11.9694 2.29982C11.7141 2.02909 11.3001 2.02909 11.0448 2.29982L4.50682 9.23253Z" fill="#5C72A3" fill-opacity="0.5"/>
<path d="M10.8933 2.15688L4.50682 8.92887L1.68656 5.93836C1.34902 5.58044 0.796408 5.58044 0.458864 5.93836C0.127861 6.28934 0.127861 6.85363 0.458864 7.20461L3.88828 10.8411C4.22841 11.2017 4.78523 11.2017 5.12536 10.8411L12.121 3.42314C12.452 3.07215 12.452 2.50787 12.121 2.15688C11.7834 1.79896 11.2308 1.79896 10.8933 2.15688Z" stroke="#5C72A3" stroke-opacity="0.5" stroke-width="0.416667"/>
</svg>
