<svg width="14" height="15" viewBox="0 0 14 15" fill="none" xmlns="http://www.w3.org/2000/svg">
<path d="M2.625 0C3.32119 0 3.98887 0.263392 4.48116 0.732233C4.97344 1.20107 5.25 1.83696 5.25 2.5V12.5C5.25 13.163 4.97344 13.7989 4.48116 14.2678C3.98887 14.7366 3.32119 15 2.625 15C1.92881 15 1.26113 14.7366 0.768844 14.2678C0.276561 13.7989 1.46712e-08 13.163 0 12.5V2.5C0 1.83696 0.276561 1.20107 0.768844 0.732233C1.26113 0.263392 1.92881 0 2.625 0ZM11.375 0C12.0712 0 12.7389 0.263392 13.2312 0.732233C13.7234 1.20107 14 1.83696 14 2.5V12.5C14 13.163 13.7234 13.7989 13.2312 14.2678C12.7389 14.7366 12.0712 15 11.375 15C10.6788 15 10.0111 14.7366 9.51884 14.2678C9.02656 13.7989 8.75 13.163 8.75 12.5V2.5C8.75 1.83696 9.02656 1.20107 9.51884 0.732233C10.0111 0.263392 10.6788 0 11.375 0Z" fill="white"/>
</svg>
