<svg viewBox="0 0 11 11" fill="none" xmlns="http://www.w3.org/2000/svg">
<path fill-rule="evenodd" clip-rule="evenodd" d="M6.23185 1.32152C6.23185 0.909211 5.89761 0.574969 5.4853 0.574969C5.07299 0.574969 4.73875 0.909211 4.73875 1.32152L4.73875 4.73881L1.3216 4.73881C0.909289 4.73881 0.575047 5.07305 0.575048 5.48536C0.575048 5.89767 0.90929 6.23191 1.3216 6.23191L4.73875 6.23191L4.73875 9.64905C4.73875 10.0614 5.07299 10.3956 5.4853 10.3956C5.89761 10.3956 6.23185 10.0614 6.23185 9.64905L6.23185 6.23191L9.64913 6.23191C10.0614 6.23191 10.3957 5.89767 10.3957 5.48536C10.3957 5.07305 10.0614 4.73881 9.64913 4.73881L6.23185 4.73881V1.32152Z" fill="#1A88F3"/>
</svg>
