<svg viewBox="0 0 12 12" fill="none" xmlns="http://www.w3.org/2000/svg">
<path fill-rule="evenodd" clip-rule="evenodd" d="M6.99938 2.20817C6.99983 1.65116 6.55248 1.19961 6.0002 1.19961C5.44792 1.19961 4.99983 1.65116 4.99938 2.20817L4.9971 5.00307L2.20876 5.00079C1.65175 5.00033 1.2002 5.44593 1.2002 5.99606C1.2002 6.54619 1.65175 6.99253 2.20876 6.99298L4.99547 6.99526L4.99319 9.79104C4.99273 10.3481 5.44008 10.7996 5.99236 10.7996C6.54465 10.7996 6.99273 10.3481 6.99319 9.79104L6.99547 6.99689L9.79163 6.99917C10.3486 6.99963 10.8002 6.55403 10.8002 6.0039C10.8002 5.45377 10.3486 5.00744 9.79163 5.00698L6.99709 5.0047L6.99938 2.20817Z" fill="white"/>
</svg>
