<svg viewBox="0 0 24 24" fill="none" xmlns="http://www.w3.org/2000/svg">
<path fill-rule="evenodd" clip-rule="evenodd" d="M14.3435 6.00739C14.3645 6.28612 14.421 7.03873 13.7309 7.86461C13.231 8.45358 12.624 8.79821 11.9583 8.74677C11.9022 8.03693 12.1649 7.40682 12.6112 6.89759C13.0167 6.42179 13.7283 6.03601 14.343 6L14.3435 6.00739ZM16.45 9.90675C15.5931 10.4314 15.1697 11.1438 15.1748 12.0877C15.1748 12.0891 15.1747 12.0915 15.1746 12.095C15.1712 12.2197 15.1311 13.6834 16.7484 14.4513C16.4373 15.3977 15.3712 17.5015 14.1316 17.5195C13.7844 17.5195 13.5066 17.4114 13.2202 17.3C12.9155 17.1815 12.6011 17.0592 12.1831 17.0592C11.7305 17.0592 11.3899 17.1894 11.0709 17.3113C10.8001 17.4149 10.5448 17.5124 10.2498 17.5195C9.02049 17.5581 7.84217 15.2434 7.51571 14.2995C7.27086 13.582 7.14844 12.885 7.14844 12.2112C7.14844 9.9299 8.66087 8.80856 10.084 8.78541C10.4786 8.78541 10.9351 8.95174 11.325 9.09379C11.6156 9.19967 11.8692 9.29207 12.0326 9.29207C12.1647 9.29207 12.3803 9.21166 12.6448 9.113C13.1055 8.94116 13.7146 8.71395 14.2898 8.7597C15.2462 8.83428 15.9705 9.21492 16.45 9.90675Z" fill="#B3B3B3"/>
<rect x="0.5" y="0.5" width="23" height="23" rx="11.5" stroke="#5C72A3" stroke-opacity="0.25"/>
</svg>
