<svg width="24" height="24" viewBox="0 0 24 24" fill="none" xmlns="http://www.w3.org/2000/svg">
<rect width="24" height="24" rx="12" fill="black"/>
<path fill-rule="evenodd" clip-rule="evenodd" d="M14.56 4.80821C14.5832 5.11791 14.646 5.95415 13.8792 6.8718C13.3238 7.5262 12.6493 7.90912 11.9097 7.85197C11.8473 7.06326 12.1392 6.36314 12.6352 5.79732C13.0857 5.26866 13.8764 4.84001 14.5593 4.8L14.56 4.80821ZM16.9005 9.14084C15.9483 9.7238 15.4779 10.5154 15.4836 11.5641C15.4836 11.5656 15.4835 11.5683 15.4834 11.5722C15.4796 11.7107 15.4351 13.3371 17.2321 14.1903C16.8864 15.2419 15.7018 17.5795 14.3245 17.5995C13.9387 17.5995 13.63 17.4794 13.3118 17.3556C12.9733 17.2239 12.624 17.088 12.1595 17.088C11.6566 17.088 11.2782 17.2326 10.9237 17.3682C10.6228 17.4832 10.3392 17.5916 10.0114 17.5995C8.64548 17.6423 7.33624 15.0705 6.97351 14.0217C6.70146 13.2244 6.56543 12.45 6.56543 11.7013C6.56543 9.16656 8.24591 7.92063 9.8272 7.89491C10.2656 7.89491 10.7728 8.07971 11.206 8.23755C11.529 8.3552 11.8107 8.45787 11.9923 8.45787C12.1391 8.45787 12.3786 8.36852 12.6725 8.25889C13.1844 8.06796 13.8612 7.8155 14.5002 7.86633C15.5629 7.9492 16.3678 8.37214 16.9005 9.14084Z" fill="white"/>
</svg>
