<svg width="24" height="24" viewBox="0 0 24 24" fill="none" xmlns="http://www.w3.org/2000/svg">
<rect width="24" height="24" rx="12" fill="#E0E5F0"/>
<path fill-rule="evenodd" clip-rule="evenodd" d="M14.344 6.00739C14.365 6.28612 14.4215 7.03873 13.7314 7.86461C13.2315 8.45358 12.6245 8.79821 11.9588 8.74677C11.9027 8.03693 12.1654 7.40682 12.6117 6.89759C13.0172 6.42179 13.7288 6.03601 14.3435 6L14.344 6.00739ZM16.4505 9.90675C15.5935 10.4314 15.1702 11.1438 15.1753 12.0877C15.1753 12.0891 15.1752 12.0915 15.1751 12.095C15.1717 12.2197 15.1316 13.6834 16.7489 14.4513C16.4378 15.3977 15.3717 17.5015 14.1321 17.5195C13.7849 17.5195 13.5071 17.4114 13.2207 17.3C12.916 17.1815 12.6016 17.0592 12.1836 17.0592C11.731 17.0592 11.3904 17.1894 11.0714 17.3113C10.8006 17.4149 10.5453 17.5124 10.2503 17.5195C9.02097 17.5581 7.84265 15.2434 7.51619 14.2995C7.27135 13.582 7.14893 12.885 7.14893 12.2112C7.14893 9.9299 8.66136 8.80856 10.0845 8.78541C10.4791 8.78541 10.9356 8.95174 11.3255 9.09379C11.6161 9.19967 11.8697 9.29207 12.0331 9.29207C12.1652 9.29207 12.3808 9.21166 12.6453 9.113C13.106 8.94116 13.7151 8.71395 14.2903 8.7597C15.2467 8.83428 15.971 9.21492 16.4505 9.90675Z" fill="#5C72A3"/>
</svg>
