<svg viewBox="0 0 20 20" fill="none" xmlns="http://www.w3.org/2000/svg">
<rect width="20" height="20" rx="10" fill="#00CC52"/>
<g clip-path="url(#clip0_23:18203)">
<path d="M12.7658 11.7196C12.6327 11.7196 12.5051 11.6666 12.411 11.5725C12.317 11.4783 12.2642 11.3507 12.2643 11.2176C12.2643 11.0846 12.3172 10.957 12.4114 10.8629C12.5055 10.7689 12.6332 10.7161 12.7663 10.7161C12.8993 10.7161 13.0269 10.769 13.121 10.8631C13.2151 10.9572 13.268 11.0848 13.268 11.2179C13.268 11.3509 13.2151 11.4786 13.121 11.5727C13.0269 11.6668 12.8993 11.7196 12.7663 11.7196H12.7658ZM7.24376 11.7196C7.17786 11.7196 7.11263 11.7066 7.05176 11.6813C6.9909 11.6561 6.93561 11.6191 6.88904 11.5725C6.79499 11.4783 6.74219 11.3507 6.74226 11.2176C6.74232 11.0846 6.79525 10.957 6.88939 10.8629C6.98353 10.7689 7.11118 10.7161 7.24426 10.7161C7.37733 10.7161 7.50495 10.769 7.59905 10.8631C7.69314 10.9572 7.74601 11.0848 7.74601 11.2179C7.74601 11.3509 7.69314 11.4786 7.59905 11.5727C7.50495 11.6668 7.37733 11.7196 7.24426 11.7196H7.24376ZM12.9438 8.71062L13.9468 6.98112C13.9737 6.93332 13.9806 6.87675 13.9659 6.82386C13.9512 6.77098 13.9161 6.72611 13.8683 6.69912C13.8204 6.67213 13.7639 6.66525 13.711 6.67997C13.6581 6.69469 13.6132 6.72982 13.5863 6.77762L12.5728 8.52762C11.7679 8.15971 10.8927 7.9707 10.0078 7.97362C9.08275 7.97362 8.21026 8.17262 7.43726 8.52262L6.42376 6.77262C6.41039 6.74898 6.39251 6.72821 6.37112 6.71148C6.34973 6.69476 6.32525 6.68241 6.29909 6.67514C6.27292 6.66788 6.24559 6.66584 6.21863 6.66913C6.19168 6.67243 6.16564 6.68101 6.14201 6.69437C6.11837 6.70773 6.09759 6.72562 6.08087 6.74701C6.06414 6.7684 6.05179 6.79288 6.04453 6.81904C6.03726 6.8452 6.03522 6.87254 6.03852 6.89949C6.04182 6.92644 6.05039 6.95248 6.06376 6.97612L7.06126 8.70512C5.34776 9.64012 4.17226 11.3751 3.99976 13.4281H15.9998C15.8328 11.3801 14.6623 9.64562 12.9438 8.71062V8.71062Z" fill="white"/>
</g>
<defs>
<clipPath id="clip0_23:18203">
<rect width="12" height="12" fill="white" transform="translate(3.99976 4.16663)"/>
</clipPath>
</defs>
</svg>
