<svg viewBox="0 0 20 20" fill="none" xmlns="http://www.w3.org/2000/svg">
    <path d="M10 20C15.5229 20 20 15.5229 20 10C20 4.47715 15.5229 0 10 0C4.47715 0 0 4.47715 0 10C0 15.5229 4.47715 20 10 20Z" fill="#1B97FF"/>
    <path fill-rule="evenodd" clip-rule="evenodd" d="M11.242 19.9199H9.98519V0C15.5011 0.0081186 19.9702 4.48216 19.9702 9.99999C19.9702 15.092 16.1643 19.295 11.242 19.9199Z" fill="#0081EE"/>
    <path d="M15.1976 12.2013C15.1976 11.0845 14.6061 10.1034 13.719 9.55093C14.109 9.02906 14.3401 8.38166 14.3401 7.68007C14.3401 6.26645 13.3925 5.06986 12.0971 4.68591V4.03098C12.0971 3.55182 11.7074 3.1636 11.2266 3.1636C10.7458 3.1636 10.356 3.55194 10.356 4.03098V4.55621H9.58031V4.03098C9.58031 3.55182 9.19055 3.1636 8.70975 3.1636C8.22894 3.1636 7.83918 3.55194 7.83918 4.03098V4.55621H7.579H7.4688H6.13749C5.65669 4.55621 5.26693 4.94454 5.26693 5.42358C5.26693 5.90273 5.65669 6.29095 6.13749 6.29095H6.59824V9.94466V13.5982H6.13749C5.65669 13.5982 5.26693 13.9866 5.26693 14.4656C5.26693 14.9447 5.65669 15.333 6.13749 15.333H7.4688H7.579H7.83918V15.8583C7.83918 16.3375 8.22894 16.7257 8.70975 16.7257C9.19055 16.7257 9.58031 16.3374 9.58031 15.8583V15.333H10.356V15.8583C10.356 16.3375 10.7458 16.7257 11.2266 16.7257C11.7074 16.7257 12.0971 16.3374 12.0971 15.8583V15.3322C13.8099 15.3138 15.1976 13.9204 15.1976 12.2013ZM12.5989 7.68861C12.5989 8.45449 11.9735 9.07751 11.2048 9.07751H8.33914V6.29118H11.2048C11.9735 6.29118 12.5989 6.91431 12.5989 7.68861ZM12.0623 13.5986H8.33925V10.8124H11.2049H12.0624C12.8311 10.8124 13.4565 11.4355 13.4565 12.2097C13.4564 12.9755 12.831 13.5986 12.0623 13.5986Z" fill="white"/>
    <path fill-rule="evenodd" clip-rule="evenodd" d="M9.98568 15.3335H10.3577V15.8588C10.3577 16.338 10.7474 16.7262 11.2282 16.7262C11.709 16.7262 12.0988 16.3379 12.0988 15.8588V15.3327C13.8115 15.3143 15.1993 13.9209 15.1993 12.2017C15.1993 11.085 14.6077 10.1038 13.7207 9.55141C14.1107 9.02955 14.3418 8.38215 14.3418 7.68056C14.3418 6.26694 13.3941 5.07035 12.0988 4.6864V4.03146C12.0988 3.55231 11.709 3.16409 11.2282 3.16409C10.7474 3.16409 10.3577 3.55243 10.3577 4.03146V4.5567H9.98568V6.29167H11.2065C11.9752 6.29167 12.6005 6.9148 12.6005 7.6891C12.6005 8.45498 11.9752 9.078 11.2065 9.078H9.98568V10.8129H11.2066H12.0641C12.8328 10.8129 13.4582 11.436 13.4582 12.2102C13.458 12.9759 12.8327 13.5991 12.064 13.5991H9.98568V15.3335Z" fill="#EFEFEF"/>
</svg>
