<svg viewBox="0 0 24 24" fill="none" xmlns="http://www.w3.org/2000/svg">
<path d="M15.227 13.8118C15.0717 13.8118 14.9229 13.75 14.8132 13.6402C14.7034 13.5303 14.6418 13.3814 14.6419 13.2262C14.642 13.0709 14.7037 12.9221 14.8136 12.8123C14.9234 12.7026 15.0723 12.641 15.2276 12.6411C15.3828 12.6411 15.5317 12.7028 15.6415 12.8125C15.7513 12.9223 15.813 13.0712 15.813 13.2265C15.813 13.3817 15.7513 13.5306 15.6415 13.6404C15.5317 13.7502 15.3828 13.8118 15.2276 13.8118H15.227ZM8.78467 13.8118C8.70779 13.8118 8.63168 13.7966 8.56068 13.7672C8.48967 13.7377 8.42516 13.6946 8.37083 13.6402C8.26111 13.5303 8.19951 13.3814 8.19958 13.2262C8.19966 13.0709 8.26141 12.9221 8.37124 12.8123C8.48108 12.7026 8.63 12.641 8.78525 12.6411C8.9405 12.6411 9.08939 12.7028 9.19917 12.8125C9.30895 12.9223 9.37062 13.0712 9.37062 13.2265C9.37062 13.3817 9.30895 13.5306 9.19917 13.6404C9.08939 13.7502 8.9405 13.8118 8.78525 13.8118H8.78467ZM15.4347 10.3013L16.6048 8.28359C16.6363 8.22781 16.6444 8.16182 16.6272 8.10012C16.61 8.03842 16.569 7.98607 16.5132 7.95459C16.4575 7.9231 16.3915 7.91507 16.3298 7.93224C16.2681 7.94942 16.2157 7.9904 16.1842 8.04617L15.0018 10.0878C14.0628 9.65861 13.0418 9.4381 12.0093 9.4415C10.9302 9.4415 9.91225 9.67367 9.01042 10.082L7.828 8.04034C7.81241 8.01276 7.79154 7.98852 7.76659 7.96901C7.74163 7.9495 7.71308 7.93509 7.68255 7.92661C7.65203 7.91814 7.62014 7.91575 7.58869 7.9196C7.55725 7.92345 7.52687 7.93346 7.49929 7.94905C7.47171 7.96463 7.44748 7.9855 7.42796 8.01046C7.40845 8.03541 7.39405 8.06397 7.38557 8.09449C7.37709 8.12502 7.37471 8.15691 7.37856 8.18835C7.38241 8.2198 7.39241 8.25018 7.408 8.27775L8.57175 10.2949C6.57267 11.3858 5.20125 13.4099 5 15.8051H19C18.8052 13.4158 17.4396 11.3922 15.4347 10.3013Z" fill="#00C64F"/>
<rect x="0.5" y="0.5" width="23" height="23" rx="11.5" stroke="#5C72A3" stroke-opacity="0.25"/>
</svg>
