<svg width="16" height="16" viewBox="0 0 16 16" fill="none" xmlns="http://www.w3.org/2000/svg">
<path d="M15.95 8C15.95 12.3907 12.3907 15.95 8 15.95C3.60934 15.95 0.05 12.3907 0.05 8C0.05 3.60934 3.60934 0.05 8 0.05C12.3907 0.05 15.95 3.60934 15.95 8Z" fill="white" stroke="#919191" stroke-width="0.1"/>
<path d="M15.5024 10.7828C15.824 9.91612 16 8.97875 16 8.00018C16 7.02162 15.824 6.08425 15.5024 5.21759H0.497594C0.176031 6.08425 0 7.02162 0 8.00018C0 8.97875 0.176031 9.91612 0.497594 10.7828L8 11.4784L15.5024 10.7828Z" fill="#0052B4"/>
<path d="M8.00045 15.9998C11.4402 15.9998 14.3725 13.8288 15.5029 10.7824H0.498047C1.62839 13.8288 4.56073 15.9998 8.00045 15.9998Z" fill="#D80027"/>
</svg>
