<svg viewBox="0 0 14 14" fill="none" xmlns="http://www.w3.org/2000/svg">
<path fill-rule="evenodd" clip-rule="evenodd" d="M11.902 7.92177C12.1107 8.0326 12.2716 8.2076 12.3849 8.3826C12.6055 8.74427 12.5876 9.1876 12.373 9.57843L11.9557 10.2784C11.7351 10.6518 11.3238 10.8851 10.9005 10.8851C10.6919 10.8851 10.4594 10.8268 10.2686 10.7101C10.1136 10.6109 9.93475 10.5759 9.74399 10.5759C9.15381 10.5759 8.65901 11.0601 8.64112 11.6376C8.64112 12.3084 8.09267 12.8334 7.40711 12.8334H6.59636C5.90483 12.8334 5.35638 12.3084 5.35638 11.6376C5.34446 11.0601 4.84966 10.5759 4.25948 10.5759C4.06275 10.5759 3.88391 10.6109 3.73488 10.7101C3.54411 10.8268 3.30565 10.8851 3.10297 10.8851C2.67374 10.8851 2.26241 10.6518 2.04183 10.2784L1.6305 9.57843C1.40992 9.19927 1.398 8.74427 1.61857 8.3826C1.71396 8.2076 1.8928 8.0326 2.09549 7.92177C2.26241 7.8401 2.36971 7.70593 2.47106 7.54843C2.76913 7.04677 2.59028 6.3876 2.08356 6.0901C1.49338 5.7576 1.30262 5.01677 1.64242 4.43927L2.04183 3.75093C2.3876 3.17343 3.12681 2.96927 3.72295 3.3076C4.2416 3.5876 4.91524 3.40093 5.21927 2.9051C5.31465 2.74177 5.3683 2.56677 5.35638 2.39177C5.34446 2.16427 5.41003 1.94843 5.5233 1.77343C5.74387 1.41177 6.14329 1.17843 6.57847 1.16677H7.41903C7.86018 1.16677 8.25959 1.41177 8.48017 1.77343C8.58747 1.94843 8.65901 2.16427 8.64112 2.39177C8.6292 2.56677 8.68285 2.74177 8.77824 2.9051C9.08227 3.40093 9.75591 3.5876 10.2805 3.3076C10.8707 2.96927 11.6159 3.17343 11.9557 3.75093L12.3551 4.43927C12.7008 5.01677 12.5101 5.7576 11.9139 6.0901C11.4072 6.3876 11.2284 7.04677 11.5324 7.54843C11.6278 7.70593 11.7351 7.8401 11.902 7.92177ZM5.31479 7.00596C5.31479 7.9218 6.07189 8.65096 7.00784 8.65096C7.94378 8.65096 8.683 7.9218 8.683 7.00596C8.683 6.09013 7.94378 5.35513 7.00784 5.35513C6.07189 5.35513 5.31479 6.09013 5.31479 7.00596Z" fill="#5C72A3" fill-opacity="0.8"/>
</svg>
