<svg width="14" height="14" viewBox="0 0 14 14" fill="none" xmlns="http://www.w3.org/2000/svg">
<path fill-rule="evenodd" clip-rule="evenodd" d="M4.72289 7.00006C4.72289 8.2445 5.74159 9.25703 6.99931 9.25703C8.25134 9.25703 9.27004 8.2445 9.27004 7.00006C9.27004 5.74996 8.25134 4.73743 6.99931 4.73743C5.74159 4.73743 4.72289 5.74996 4.72289 7.00006ZM10.3457 3.52688C11.3416 4.29617 12.1896 5.42183 12.7985 6.83031C12.8441 6.93779 12.8441 7.06223 12.7985 7.16405C11.5807 9.98102 9.41236 11.6667 6.99935 11.6667H6.99366C4.58634 11.6667 2.41805 9.98102 1.20016 7.16405C1.15463 7.06223 1.15463 6.93779 1.20016 6.83031C2.41805 4.01334 4.58634 2.33334 6.99366 2.33334H6.99935C8.20585 2.33334 9.34976 2.75193 10.3457 3.52688ZM6.99988 8.40721C7.77956 8.40721 8.41696 7.77367 8.41696 6.99872C8.41696 6.21811 7.77956 5.58458 6.99988 5.58458C6.93159 5.58458 6.8633 5.59024 6.8007 5.60155C6.77793 6.22377 6.26574 6.72155 5.63403 6.72155H5.60558C5.5885 6.81205 5.57712 6.90256 5.57712 6.99872C5.57712 7.77367 6.21452 8.40721 6.99988 8.40721Z" fill="#5C72A3" fill-opacity="0.8"/>
</svg>
