<svg width="24" height="24" viewBox="0 0 24 24" fill="none" xmlns="http://www.w3.org/2000/svg">
<path d="M21.1194 9.86599L20.3992 9.14599C20.1191 8.86599 19.959 8.48599 19.959 8.08699V7.05599C19.959 5.39599 18.6085 4.04699 16.9479 4.04699H15.9176C15.5174 4.04699 15.1373 3.88599 14.8572 3.60599L14.1269 2.87699C12.9465 1.70699 11.0358 1.70699 9.86537 2.88599L9.14511 3.60599C8.865 3.88599 8.48487 4.04699 8.08472 4.04699H7.05435C5.39375 4.04699 4.04326 5.39599 4.04326 7.05599V8.07599C4.04326 8.48599 3.8832 8.86599 3.6031 9.14599L2.87283 9.87699C1.70241 11.056 1.71241 12.967 2.88284 14.136L3.6031 14.846C3.8832 15.136 4.04326 15.516 4.04326 15.917V16.946C4.04326 18.606 5.39375 19.957 7.05435 19.957H8.08472C8.48487 19.957 8.865 20.116 9.14511 20.396L9.87537 21.127C10.4656 21.707 11.2359 21.996 12.0061 21.996C12.7764 21.996 13.5467 21.707 14.1369 21.116L14.8572 20.396C15.1373 20.116 15.5174 19.957 15.9176 19.957H16.9479C18.6085 19.957 19.959 18.606 19.959 16.946V15.917C19.959 15.516 20.1191 15.136 20.3992 14.856L21.1094 14.146C21.1194 14.136 21.1294 14.127 21.1395 14.116C21.6997 13.547 22.0098 12.786 21.9998 11.986C21.9998 11.186 21.6897 10.426 21.1194 9.86599Z" fill="url(#paint0_linear)"/>
<path d="M8 12.1272L10.5011 14.6272L15.5011 9.6272" stroke="white" stroke-width="2" stroke-linecap="round" stroke-linejoin="round"/>
<defs>
<linearGradient id="paint0_linear" x1="2" y1="2.00061" x2="21.6198" y2="1.63429" gradientUnits="userSpaceOnUse">
<stop stop-color="#5DD88F"/>
<stop offset="1" stop-color="#089E4E"/>
</linearGradient>
</defs>
</svg>
