<svg viewBox="0 0 18 18" fill="none" xmlns="http://www.w3.org/2000/svg">
<path fill-rule="evenodd" clip-rule="evenodd" d="M10.0178 4.83793C9.98007 4.47317 9.94075 4.09473 9.84402 3.71709C9.58056 2.81366 8.85073 2.25002 8.06822 2.25002C7.63174 2.24841 7.07965 2.51734 6.76665 2.7895L4.17215 4.96274H2.81396C1.81438 4.96274 1.01063 5.73331 0.858849 6.84529C0.729871 7.91299 0.698413 9.92841 0.858849 11.1032C0.99805 12.278 1.76562 13.0373 2.81396 13.0373H4.17215L6.81698 15.2427C7.0883 15.4786 7.56725 15.7492 8.00766 15.7492C8.03597 15.75 8.06114 15.75 8.08631 15.75C8.88377 15.75 9.58606 15.1654 9.84952 14.2644C9.94878 13.8835 9.98358 13.5265 10.0172 13.1814V13.1814L10.0178 13.175L10.0532 12.8312C10.1885 11.7159 10.1885 6.27682 10.0532 5.16967L10.0178 4.83793ZM13.0549 4.87092C12.8386 4.55206 12.41 4.47234 12.0962 4.69377C11.7855 4.91681 11.7085 5.35645 11.9247 5.67451C12.5264 6.56103 12.8575 7.74146 12.8575 8.99998C12.8575 10.2577 12.5264 11.4389 11.9247 12.3255C11.7085 12.6435 11.7855 13.0832 12.097 13.3062C12.2134 13.3883 12.3494 13.4318 12.4894 13.4318C12.7151 13.4318 12.9259 13.3183 13.0549 13.1291C13.8146 12.0098 14.2337 10.5436 14.2337 8.99998C14.2337 7.45642 13.8146 5.99015 13.0549 4.87092ZM14.4676 2.41581C14.7806 2.19357 15.2108 2.2749 15.4255 2.59295C16.602 4.32494 17.25 6.60124 17.25 8.99993C17.25 11.4002 16.602 13.6757 15.4255 15.4077C15.2973 15.5969 15.0857 15.7105 14.86 15.7105C14.72 15.7105 14.5847 15.667 14.4684 15.5849C14.1569 15.3618 14.0798 14.923 14.2953 14.6041C15.313 13.1048 15.8737 11.1144 15.8737 8.99993C15.8737 6.88628 15.313 4.89582 14.2953 3.39654C14.0798 3.07849 14.1569 2.63885 14.4676 2.41581Z" fill="#5C72A3" fill-opacity="0.5"/>
</svg>
