<svg width="12" height="12" viewBox="0 0 12 12" fill="none" xmlns="http://www.w3.org/2000/svg">
<path d="M8.63577 2.50389L7.57452 0.685135C7.52427 0.598134 7.44102 0.535884 7.34427 0.511134C7.24752 0.487134 7.14402 0.501384 7.05777 0.553134L3.8125 2.49939L8.63577 2.50389Z" fill="#5C72A3" fill-opacity="0.8"/>
<path d="M1.50001 2.99971C1.22476 2.99971 0.999755 2.77471 0.999755 2.49946C0.999755 2.22421 1.22476 1.99921 1.50001 1.99921H3.18526L4.85552 0.999451H1.50001C0.759753 0.999451 0.144751 1.53945 0.0247501 2.24971C0.0150001 2.28946 0 2.32996 0 2.37496V10.0002C0 10.8252 0.675003 11.5002 1.50001 11.5002H9.99979C10.5495 11.5002 10.9995 11.0502 10.9995 10.5005V9.50074H9.75004C8.51029 9.50074 7.50003 8.49049 7.50003 7.25073C7.50003 6.01097 8.51029 5.00072 9.75004 5.00072H11.0003V4.00096C11.0003 3.45121 10.5503 3.00121 10.0005 3.00121H1.50001V2.99971ZM9.50029 1.99996C9.50029 1.4952 9.12529 1.0752 8.63554 1.00995L9.50029 2.50021V1.99996Z" fill="#5C72A3"/>
<path d="M11.625 5.74994H9.75001C8.92275 5.74994 8.25 6.42269 8.25 7.24995C8.25 8.0772 8.92275 8.74995 9.75001 8.74995H11.625C11.832 8.74995 12 8.58195 12 8.37495V6.12494C12 5.91794 11.832 5.74994 11.625 5.74994ZM9.75001 7.74945C9.47401 7.74945 9.24975 7.5252 9.24975 7.2492C9.24975 6.97395 9.47401 6.74969 9.75001 6.74969C10.026 6.74969 10.2503 6.9732 10.2503 7.24995C10.2503 7.52595 10.026 7.74945 9.75001 7.74945Z" fill="#5C72A3" fill-opacity="0.8"/>
</svg>
